<svg xmlns="http://www.w3.org/2000/svg" xmlns:xlink="http://www.w3.org/1999/xlink" xmlns:lucid="lucid" width="1380" height="1013.8"><g transform="translate(-4.747213707580016 -4.747213707580002)" lucid:page-tab-id="0_0"><path d="M0 0h1446.47v1023.3H0z" fill="#fff"/><path d="M904.75 576.6l80-45.84 80 45.84v74.16h-160z" stroke="#000" stroke-width="2" fill="#fff"/><use xlink:href="#a" transform="matrix(1,0,0,1,904.74721370758,530.7602000569391) translate(42 63.6)"/><path d="M904.75 331.26h160v40h-160z" stroke="#000" fill="#fff"/><use xlink:href="#b" transform="matrix(1,0,0,1,909.74721370758,336.260200056939) translate(36.55 18.6)"/><path d="M904.75 449.47h160v40h-160z" stroke="#000" fill="#fff"/><use xlink:href="#c" transform="matrix(1,0,0,1,909.74721370758,454.4703270129473) translate(21.4 18.6)"/><path d="M902.32 589.25l-.6 1.9-27.96-9v-2.1zm-166.5-53.63v2.1L601.58 494.5l.6-1.9z"/><path d="M602.23 492.6l-.6 1.9-.68-.2v-2.1zM903.75 590.76l-21.16 4.8-.45-1.96 17.86-4.04-12.14-13.7 1.5-1.33z"/><use xlink:href="#d" transform="matrix(1,0,0,1,735.8110321732005,526.4890085291081) translate(18.054999999999986 14.4)"/><use xlink:href="#e" transform="matrix(1,0,0,1,735.8110321732005,526.4890085291081) translate(26.529999999999987 36)"/><use xlink:href="#f" transform="matrix(1,0,0,1,735.8110321732005,526.4890085291081) translate(0.0049999999999954525 57.6)"/><path d="M438.03 454.6l-.16 2-69.03-5.45v-2zm-208.1-16.4v2l-42.45-3.33.16-2z"/><path d="M438.95 454.67v2l-1.1-.08.15-2zM206.1 428l-16.44 8.04 14.98 10.53-1.15 1.63-17.75-12.47 19.48-9.54z"/><use xlink:href="#g" transform="matrix(1,0,0,1,229.93906933479462,433.881044539979) translate(0.0049999999999954525 14.4)"/><use xlink:href="#h" transform="matrix(1,0,0,1,229.93906933479462,433.881044539979) translate(34.004999999999995 14.4)"/><use xlink:href="#i" transform="matrix(1,0,0,1,229.93906933479462,433.881044539979) translate(95.005 14.4)"/><path d="M521.24 400.47l-1.88-.7 50.52-134h2.14zM616.5 147.8l-36.33 96.36h-2.14l36.6-97.06z"/><path d="M521.24 400.44l-.22.6h-2.14l.5-1.3zM619.94 167.1l-1.97.36-3.16-18.04-14.27 11.46-1.25-1.56 16.92-13.57z"/><use xlink:href="#j" transform="matrix(1,0,0,1,510.5999504807467,244.15763306530218) translate(0 14.4)"/><use xlink:href="#k" transform="matrix(1,0,0,1,510.5999504807467,244.15763306530218) translate(17.95 14.4)"/><use xlink:href="#l" transform="matrix(1,0,0,1,510.5999504807467,244.15763306530218) translate(69.85000000000001 14.4)"/><use xlink:href="#m" transform="matrix(1,0,0,1,510.5999504807467,244.15763306530218) translate(108.85000000000001 14.4)"/><path d="M187.72 755.62l-1.45-1.37L316 616.92h2.76zM439 489.65l-99.84 105.67h-2.75l101.13-107.05z"/><path d="M438.95 489.65l-1.43-1.36 1.43-1.52zM192.5 735.54l-4.05 17.86 17.6-5.06.54 1.93-20.85 5.98 4.8-21.15z"/><use xlink:href="#n" transform="matrix(1,0,0,1,264.65744330847764,595.3176266287934) translate(0 14.4)"/><use xlink:href="#o" transform="matrix(1,0,0,1,264.65744330847764,595.3176266287934) translate(34 14.4)"/><use xlink:href="#p" transform="matrix(1,0,0,1,264.65744330847764,595.3176266287934) translate(88.85 14.4)"/><path d="M747.16 401.2L602.2 446.35l-.6-1.9 145.56-45.32zm155.65-48.44l-39.8 12.4v-2.1l39.2-12.2z"/><path d="M602.22 446.33l-1.27.4v-2.1l.68-.2zM904.25 351.26l-14.55 16.1-1.48-1.35 12.28-13.57-17.82-4.22.46-1.93z"/><use xlink:href="#q" transform="matrix(1,0,0,1,747.1580936391124,349.7308631663971) translate(29.480000000000004 14.4)"/><use xlink:href="#r" transform="matrix(1,0,0,1,747.1580936391124,349.7308631663971) translate(0.005000000000002558 36)"/><use xlink:href="#s" transform="matrix(1,0,0,1,747.1580936391124,349.7308631663971) translate(9.530000000000001 57.6)"/><path d="M753.82 470.47H601.95v-2h151.87zm148.6 0h-51.75v-2h51.76z"/><path d="M601.97 470.47h-1.02v-2h1.02zM904.25 469.47l-18.67 11.04-1.02-1.7 15.76-9.33-15.76-9.32 1.02-1.72z"/><use xlink:href="#t" transform="matrix(1,0,0,1,753.8180296992662,437.0703270129473) translate(3.9550000000000054 14.4)"/><use xlink:href="#u" transform="matrix(1,0,0,1,753.8180296992662,437.0703270129473) translate(7.955000000000005 36)"/><use xlink:href="#v" transform="matrix(1,0,0,1,753.8180296992662,437.0703270129473) translate(0.005000000000002558 57.6)"/><path d="M105.75 876.23h-2v-21.5h2zm0-43.1h-2v-14.88h2z"/><path d="M105.75 818.28h-2v-1.03h2zM115.8 859.38l-11.05 18.67-11.04-18.67 1.73-1.02 9.32 15.76 9.32-15.76z"/><use xlink:href="#w" transform="matrix(1,0,0,1,33.29721370758001,833.1358143991895) translate(0 14.4)"/><path d="M105.75 694.25h-2v-10.8h2zm0-32.4h-2v-25.57h2z"/><path d="M105.75 695.25h-2v-1.02h2zM115.8 653.13l-1.73 1.02-9.32-15.76-9.32 15.75-1.72-1.02 11.05-18.67z"/><use xlink:href="#n" transform="matrix(1,0,0,1,41.79721370758001,661.8432342681394) translate(0 14.4)"/><use xlink:href="#x" transform="matrix(1,0,0,1,41.79721370758001,661.8432342681394) translate(34 14.4)"/><use xlink:href="#y" transform="matrix(1,0,0,1,41.79721370758001,661.8432342681394) translate(88.9 14.4)"/><path d="M24.75 701.25c0-2.76 2.24-5 5-5h150c2.76 0 5 2.24 5 5v110c0 2.77-2.24 5-5 5h-150c-2.76 0-5-2.23-5-5z" stroke="#000" stroke-width="2" fill="#666"/><use xlink:href="#z" transform="matrix(1,0,0,1,32.747213707580016,704.25436219086) translate(46.075 55.6)"/><path d="M24.75 565.48c0-2.76 1.93-6.13 4.32-7.52l71.35-41.5c2.4-1.38 6.26-1.38 8.65 0l71.35 41.5c2.4 1.4 4.33 4.76 4.33 7.52v63.48c0 2.76-2.24 5-5 5h-150c-2.76 0-5-2.24-5-5z" stroke="#000" fill="url(#A)"/><use xlink:href="#B" transform="matrix(1,0,0,1,24.747213707580016,513.9586512809055) translate(60.025 52.8)"/><use xlink:href="#C" transform="matrix(1,0,0,1,24.747213707580016,513.9586512809055) translate(56.5 74.4)"/><path d="M536.2 29.75c0-2.76 2.24-5 5-5h150c2.76 0 5 2.24 5 5v110c0 2.76-2.24 5-5 5h-150c-2.76 0-5-2.24-5-5z" stroke="#000" stroke-width="2" fill="#b2b2b2"/><use xlink:href="#D" transform="matrix(1,0,0,1,544.197941559579,32.74721370758) translate(29.049999999999997 34)"/><use xlink:href="#E" transform="matrix(1,0,0,1,544.197941559579,32.74721370758) translate(10.574999999999996 55.6)"/><use xlink:href="#F" transform="matrix(1,0,0,1,544.197941559579,32.74721370758) translate(79.525 55.6)"/><use xlink:href="#G" transform="matrix(1,0,0,1,544.197941559579,32.74721370758) translate(52.525 77.2)"/><path d="M24.75 883.55c0-2.76 2.24-5 5-5h150c2.76 0 5 2.24 5 5v110c0 2.76-2.24 5-5 5h-150c-2.76 0-5-2.24-5-5z" stroke="#000" fill="url(#H)"/><use xlink:href="#I" transform="matrix(1,0,0,1,32.747213707580016,886.5500731008532) translate(54.5 44.8)"/><use xlink:href="#J" transform="matrix(1,0,0,1,32.747213707580016,886.5500731008532) translate(32.55 66.4)"/><path d="M439.95 407.05c0-2.76 2.24-5 5-5h150c2.76 0 5 2.24 5 5v110c0 2.76-2.24 5-5 5h-150c-2.76 0-5-2.24-5-5z" stroke="#000" stroke-width="2" fill="#666"/><use xlink:href="#K" transform="matrix(1,0,0,1,447.94721370758,410.0500731009308) translate(29.049999999999997 44.8)"/><use xlink:href="#L" transform="matrix(1,0,0,1,447.94721370758,410.0500731009308) translate(10.574999999999996 66.4)"/><use xlink:href="#M" transform="matrix(1,0,0,1,447.94721370758,410.0500731009308) translate(79.525 66.4)"/><path d="M24.75 374.35c0-2.76 2.24-5 5-5h150c2.76 0 5 2.24 5 5v110c0 2.76-2.24 5-5 5h-150c-2.76 0-5-2.24-5-5z" stroke="#000" stroke-width="2" fill="#b2b2b2"/><use xlink:href="#N" transform="matrix(1,0,0,1,32.747213707580016,377.3529324942427) translate(15.049999999999997 55.6)"/><use xlink:href="#O" transform="matrix(1,0,0,1,32.747213707580016,377.3529324942427) translate(78.05 55.6)"/><path d="M736.2 29.75c0-2.76 2.24-5 5-5h150c2.76 0 5 2.24 5 5v110c0 2.76-2.24 5-5 5h-150c-2.76 0-5-2.24-5-5z" stroke="#000" stroke-width="2" fill="#666"/><use xlink:href="#P" transform="matrix(1,0,0,1,744.1979415595791,32.74721370758) translate(44.025 34)"/><use xlink:href="#Q" transform="matrix(1,0,0,1,744.1979415595791,32.74721370758) translate(64.025 55.6)"/><use xlink:href="#R" transform="matrix(1,0,0,1,744.1979415595791,32.74721370758) translate(23.549999999999997 77.2)"/><path d="M571.57 401.02l-1.44-1.38 173.67-180.2h2.78zm244.1-253.27l-48.27 50.08h-2.78l49.6-51.47z"/><path d="M571.6 401l-2.83.05 1.38-1.43zM811.2 166.85l-1.95-.46 4.22-17.82-17.65 4.88-.53-1.93 20.9-5.78z"/><use xlink:href="#S" transform="matrix(1,0,0,1,670.173632215593,197.8272449258075) translate(0 14.4)"/><use xlink:href="#T" transform="matrix(1,0,0,1,670.173632215593,197.8272449258075) translate(130.85000000000002 14.4)"/><path d="M520.95 729.23h-2v-91.88h2zm0-113.48h-2v-92.7h2z"/><path d="M520.95 523.08h-2v-1.03h2zM519.95 727.12l9.32-15.76 1.72 1.02-11.05 18.67-11.04-18.67 1.73-1.02z"/><use xlink:href="#n" transform="matrix(1,0,0,1,417.57221370758,615.7500731009309) translate(0.0049999999999954525 14.4)"/><use xlink:href="#U" transform="matrix(1,0,0,1,417.57221370758,615.7500731009309) translate(34.004999999999995 14.4)"/><use xlink:href="#V" transform="matrix(1,0,0,1,417.57221370758,615.7500731009309) translate(109.855 14.4)"/><use xlink:href="#T" transform="matrix(1,0,0,1,417.57221370758,615.7500731009309) translate(164.755 14.4)"/><path d="M397.18 957.64l-1.3-1.53 30.86-25.94h3.1zm122.65-103.18l-64.3 54.1h-3.12l66.14-55.63z"/><path d="M519.8 854.48l-1.2-1.43h2.9zM404.2 938.24l-6.05 17.28 18.06-3 .34 1.96-21.4 3.57 7.18-20.47z"/><use xlink:href="#W" transform="matrix(1,0,0,1,368.60222013236864,908.5645950197849) translate(0.0049999999999954525 14.4)"/><path d="M315.15 958.55h160v40h-160z" stroke="#000" fill="#fff"/><use xlink:href="#c" transform="matrix(1,0,0,1,320.14650511590605,963.5500731008533) translate(21.4 18.6)"/><path d="M563.15 958.55h160v40h-160z" stroke="#000" fill="#fff"/><use xlink:href="#c" transform="matrix(1,0,0,1,568.1465051159059,963.5500731008533) translate(21.4 18.6)"/><path d="M642.4 956.1l-1.3 1.53-32.33-27.57h3.08zm-55.9-47.64h-3.08l-63.36-54 1.3-1.52z"/><path d="M520.08 854.48l-1.67-1.43h2.9zM643.15 958.05l-21.38-3.7.35-1.98 18.04 3.13-5.95-17.3 1.9-.66z"/><use xlink:href="#X" transform="matrix(1,0,0,1,528.0858819148219,908.4623870558721) translate(0.0049999999999954525 14.4)"/><path d="M330.62 730.2l-1.6-1.2 33.2-43.52h2.5zm157.65-206.75l-70.38 92.3h-.33v.42l-36.37 47.7h-2.52l108-141.63z"/><path d="M488.88 522.66l-.63.8-1.6-1.2.64-.82zM333.25 709.74l-2.14 18.2 16.97-6.9.75 1.86-20.1 8.15 2.54-21.54z"/><use xlink:href="#Y" transform="matrix(1,0,0,1,302.7802394698618,663.8792145388862) translate(0.0049999999999954525 14.4)"/><use xlink:href="#m" transform="matrix(1,0,0,1,302.7802394698618,663.8792145388862) translate(117.855 14.4)"/><path d="M248.72 737.05c0-2.76 2.24-5 5-5h150c2.77 0 5 2.24 5 5v110c0 2.76-2.23 5-5 5h-150c-2.76 0-5-2.24-5-5z" stroke="#000" stroke-width="2" fill="#fff"/><use xlink:href="#Z" transform="matrix(1,0,0,1,256.72400733025495,740.0500731009308) translate(23.525 55.6)"/><path d="M439.95 737.05c0-2.76 2.24-5 5-5h150c2.76 0 5 2.24 5 5v110c0 2.76-2.24 5-5 5h-150c-2.76 0-5-2.24-5-5z" stroke="#000" stroke-width="2" fill="#fff"/><use xlink:href="#aa" transform="matrix(1,0,0,1,447.94721370758,740.0500731009308) translate(52.55 44.8)"/><use xlink:href="#ab" transform="matrix(1,0,0,1,447.94721370758,740.0500731009308) translate(15.599999999999994 66.4)"/><path d="M710.9 729l-1.6 1.18-34.16-46.35h2.48zm-49.2-66.77h-2.48L556.97 523.45l1.6-1.2z"/><path d="M558.6 522.28l-1.62 1.2-.6-.84 1.6-1.18zM711.17 731.05l-19.96-8.48.8-1.84 16.84 7.16-1.84-18.23 1.98-.2z"/><use xlink:href="#ac" transform="matrix(1,0,0,1,596.4697752691924,662.228683817628) translate(0.009999999999990905 14.4)"/><use xlink:href="#ad" transform="matrix(1,0,0,1,596.4697752691924,662.228683817628) translate(103.91 14.4)"/><path d="M631.17 737.05c0-2.76 2.24-5 5-5h150c2.76 0 5 2.24 5 5v110c0 2.76-2.24 5-5 5h-150c-2.76 0-5-2.24-5-5z" stroke="#000" stroke-width="2" fill="#fff"/><use xlink:href="#ae" transform="matrix(1,0,0,1,639.170420084905,740.0500731009308) translate(13.549999999999997 55.6)"/><path d="M438.57 426.8l-1 1.73-108.18-61.28h4.04zM295.3 345.64h-4.05l-104.4-59.14.97-1.73z"/><path d="M438.95 427v2.3l-1.4-.78 1-1.74zM207.47 286.34l-18.3.34 9.12 15.88-1.75 1-10.8-18.8 21.68-.42z"/><use xlink:href="#af" transform="matrix(1,0,0,1,246.87221370757996,345.65244426078635) translate(0.0049999999999954525 14.4)"/><use xlink:href="#ag" transform="matrix(1,0,0,1,246.87221370757996,345.65244426078635) translate(93.955 14.4)"/><path d="M24.75 229.75c0-2.76 2.24-5 5-5h150c2.76 0 5 2.24 5 5v110c0 2.76-2.24 5-5 5h-150c-2.76 0-5-2.24-5-5z" stroke="#000" stroke-width="2" fill="#b2b2b2"/><use xlink:href="#ah" transform="matrix(1,0,0,1,32.747213707580016,232.74721370758) translate(18.525 44.8)"/><use xlink:href="#ai" transform="matrix(1,0,0,1,32.747213707580016,232.74721370758) translate(63.525 44.8)"/><use xlink:href="#aj" transform="matrix(1,0,0,1,32.747213707580016,232.74721370758) translate(44.05 66.4)"/><path d="M904.75 697.05c0-2.76 2.24-5 5-5h150c2.76 0 5 2.24 5 5v110c0 2.76-2.24 5-5 5h-150c-2.76 0-5-2.24-5-5z" stroke="#000" stroke-width="2" fill="#fff"/><use xlink:href="#ak" transform="matrix(1,0,0,1,912.74721370758,700.0500731009308) translate(7.625 55.6)"/><path d="M902.9 750.15l-1.2 1.6-157.42-119.88h3.3zM719.2 610.27h-3.3l-115.88-88.25 1.2-1.6z"/><path d="M601.25 520.45l-1.2 1.6-1.06-.8.83-.63.33-1zM903.75 752.05l-21.55-2.53.24-1.98 18.18 2.13-6.9-16.96 1.86-.75z"/><use xlink:href="#al" transform="matrix(1,0,0,1,668.84593072165,610.2717172110666) translate(0.005000000000002558 14.4)"/><path d="M904.75 880.94h160v40h-160z" stroke="#000" fill="#fff"/><use xlink:href="#am" transform="matrix(1,0,0,1,909.74721370758,885.942898610232) translate(26.049999999999997 18.6)"/><path d="M985.75 878.62h-2v-25.45h2zm0-47.05h-2v-17.52h2z"/><path d="M985.75 814.08h-2v-1.03h2zM995.8 861.77l-11.05 18.67-11.04-18.67 1.73-1.02 9.32 15.76 9.32-15.75z"/><use xlink:href="#an" transform="matrix(1,0,0,1,908.8472137075801,831.5689859148553) translate(0 14.4)"/><path d="M904.75 177.05c0-2.76 2.24-5 5-5h150c2.76 0 5 2.24 5 5v110c0 2.76-2.24 5-5 5h-150c-2.76 0-5-2.24-5-5z" stroke="#000" stroke-width="2" fill="#fff"/><use xlink:href="#ao" transform="matrix(1,0,0,1,912.74721370758,180.05007310093077) translate(21.525 55.6)"/><path d="M888.54 242.64L602.32 419.72l-1.05-1.7 286.22-177.1z"/><path d="M602.35 419.7l-1.4.87v-2.35l.34-.2z"/><path d="M891.3 245.2l-4.88-7.88 14.58-3.57z" fill="#fff"/><path d="M891.18 246.9l-6.33-10.23 18.9-4.62zm-3.18-8.94l3.43 5.54 6.8-8.04z"/><path d="M136.2 29.75c0-2.76 2.24-5 5-5h150c2.76 0 5 2.24 5 5v110c0 2.76-2.24 5-5 5h-150c-2.76 0-5-2.24-5-5z" stroke="#000" stroke-width="2" fill="#b2b2b2"/><g><use xlink:href="#ap" transform="matrix(1,0,0,1,144.197941559579,32.74721370758) translate(16.049999999999997 44.8)"/><use xlink:href="#aq" transform="matrix(1,0,0,1,144.197941559579,32.74721370758) translate(64 44.8)"/><use xlink:href="#ar" transform="matrix(1,0,0,1,144.197941559579,32.74721370758) translate(14.074999999999996 66.4)"/><use xlink:href="#as" transform="matrix(1,0,0,1,144.197941559579,32.74721370758) translate(57.025 66.4)"/></g><path d="M476.5 399.64l-1.4 1.42L338.6 267.2h2.86zM319.44 245.6h-2.86l-99.78-97.87 1.4-1.42z"/><path d="M477.94 401.05h-2.85l1.38-1.43zM237.26 150.94l-.48 1.94L219 148.5l4.73 17.7-1.93.5-5.6-20.95z"/><g><use xlink:href="#n" transform="matrix(1,0,0,1,236.07328749396032,245.59869852228286) translate(0 14.4)"/><use xlink:href="#at" transform="matrix(1,0,0,1,236.07328749396032,245.59869852228286) translate(34 14.4)"/><use xlink:href="#au" transform="matrix(1,0,0,1,236.07328749396032,245.59869852228286) translate(79.95 14.4)"/><use xlink:href="#T" transform="matrix(1,0,0,1,236.07328749396032,245.59869852228286) translate(145.9 14.4)"/></g><path d="M1180.44 626.75h100.5M1180.47 626.75h-1.03" stroke="#000" stroke-width="2" fill="none"/><path d="M1296.2 626.75l-14.26 4.63v-9.27z" stroke="#000" stroke-width="2" fill="#fff"/><path d="M1164.75 417.05c0-2.76 2.24-5 5-5h150c2.76 0 5 2.24 5 5v110c0 2.76-2.24 5-5 5h-150c-2.76 0-5-2.24-5-5z" stroke="#000" stroke-width="2" fill="#b2b2b2"/><g><use xlink:href="#av" transform="matrix(1,0,0,1,1172.74721370758,420.0500731009308) translate(51 44.8)"/><use xlink:href="#aw" transform="matrix(1,0,0,1,1172.74721370758,420.0500731009308) translate(38.525 66.4)"/></g><path d="M1164.75 277.05c0-2.76 2.24-5 5-5h150c2.76 0 5 2.24 5 5v110c0 2.76-2.24 5-5 5h-150c-2.76 0-5-2.24-5-5z" stroke="#000" stroke-width="2" fill="#666"/><g><use xlink:href="#ax" transform="matrix(1,0,0,1,1172.74721370758,280.0500731009308) translate(27.049999999999997 55.6)"/><use xlink:href="#ay" transform="matrix(1,0,0,1,1172.74721370758,280.0500731009308) translate(72.05 55.6)"/></g><path d="M1164.75 77.05c0-2.76 2.24-5 5-5h190c2.76 0 5 2.24 5 5v50c0 2.76-2.24 5-5 5h-190c-2.76 0-5-2.24-5-5z" stroke="#000" stroke-opacity="0" stroke-width="2" fill="#fff" fill-opacity="0"/><g><use xlink:href="#az" transform="matrix(1,0,0,1,1169.74721370758,77.05007310093076) translate(0 28.6)"/><use xlink:href="#aA" transform="matrix(1,0,0,1,1169.74721370758,77.05007310093076) translate(72.80000000000001 28.6)"/><use xlink:href="#aB" transform="matrix(1,0,0,1,1169.74721370758,77.05007310093076) translate(143.70000000000002 28.6)"/></g><path d="M1164.75 134.38c0-2.76 2.24-5 5-5h150c2.76 0 5 2.24 5 5v110c0 2.76-2.24 5-5 5h-150c-2.76 0-5-2.24-5-5z" stroke="#000" stroke-width="2" fill="#fff"/><g><use xlink:href="#aC" transform="matrix(1,0,0,1,1172.74721370758,137.38340643426415) translate(56.05 44.8)"/><use xlink:href="#aD" transform="matrix(1,0,0,1,1172.74721370758,137.38340643426415) translate(49.55 66.4)"/></g><path d="M1179.44 571.75c0-2.76 2.24-5 5-5h110c2.77 0 5 2.24 5 5v30c0 2.76-2.23 5-5 5h-110c-2.76 0-5-2.24-5-5z" stroke="#000" stroke-opacity="0" stroke-width="2" fill="#fff" fill-opacity="0"/><g><use xlink:href="#aE" transform="matrix(1,0,0,1,1184.44364400053,571.7465033938811) translate(0 22.799999999999997)"/></g><path d="M1164.75 686.75h160v40h-160z" stroke="#000" fill="#fff"/><g><use xlink:href="#aF" transform="matrix(1,0,0,1,1169.74721370758,691.7465033938811) translate(50.575 18.6)"/></g><path d="M1180.44 566.75h107.2M1180.47 566.75h-1.03M1270.26 576.93l17.22-10.18-17.22-10.18" stroke="#000" stroke-width="2" fill="none"/><path d="M1179.44 631.75c0-2.76 2.24-5 5-5h150c2.77 0 5 2.24 5 5v30c0 2.76-2.23 5-5 5h-150c-2.76 0-5-2.24-5-5z" stroke="#000" stroke-opacity="0" stroke-width="2" fill="#fff" fill-opacity="0"/><g><use xlink:href="#aG" transform="matrix(1,0,0,1,1184.44364400053,631.7465033938811) translate(0 22.799999999999997)"/></g><path d="M336.2 29.75c0-2.76 2.24-5 5-5h150c2.76 0 5 2.24 5 5v110c0 2.76-2.24 5-5 5h-150c-2.76 0-5-2.24-5-5z" stroke="#000" stroke-width="2" fill="#b2b2b2"/><g><use xlink:href="#aH" transform="matrix(1,0,0,1,344.197941559579,32.74721370758) translate(50.5 44.8)"/><use xlink:href="#aI" transform="matrix(1,0,0,1,344.197941559579,32.74721370758) translate(1.5749999999999886 66.4)"/></g><path d="M494.97 399.8l-1.9.6L438 220.42h2.1zm-68.1-222.57h-2.08l-9.03-29.45 1.92-.6z"/><path d="M495.35 401.05h-2.1l-.2-.7 1.9-.57zM432.22 160.37l-1.35 1.48-13.52-12.35-4.3 17.8-1.95-.47 5.1-21.08z"/><g><use xlink:href="#aH" transform="matrix(1,0,0,1,326.51414233390443,177.2330540482528) translate(84.42999999999999 14.4)"/><use xlink:href="#aJ" transform="matrix(1,0,0,1,326.51414233390443,177.2330540482528) translate(0.0049999999999954525 36)"/><use xlink:href="#p" transform="matrix(1,0,0,1,326.51414233390443,177.2330540482528) translate(174.855 36)"/></g><path d="M1164.75 765.94c0-2.76 2.24-5 5-5h150c2.76 0 5 2.24 5 5v110c0 2.76-2.24 5-5 5h-150c-2.76 0-5-2.24-5-5z" stroke="#000" fill="url(#aK)"/><g><use xlink:href="#aL" transform="matrix(1,0,0,1,1172.74721370758,768.942898610232) translate(13.574999999999996 23.19999999999999)"/><use xlink:href="#aM" transform="matrix(1,0,0,1,1172.74721370758,768.942898610232) translate(46.525 23.19999999999999)"/><use xlink:href="#aN" transform="matrix(1,0,0,1,1172.74721370758,768.942898610232) translate(82.475 23.19999999999999)"/><use xlink:href="#aO" transform="matrix(1,0,0,1,1172.74721370758,768.942898610232) translate(102.475 23.19999999999999)"/><use xlink:href="#aP" transform="matrix(1,0,0,1,1172.74721370758,768.942898610232) translate(3.625 44.79999999999999)"/><use xlink:href="#aQ" transform="matrix(1,0,0,1,1172.74721370758,768.942898610232) translate(62.475 44.79999999999999)"/><use xlink:href="#aR" transform="matrix(1,0,0,1,1172.74721370758,768.942898610232) translate(119.42500000000001 44.79999999999999)"/><use xlink:href="#aS" transform="matrix(1,0,0,1,1172.74721370758,768.942898610232) translate(6.549999999999997 66.39999999999999)"/><use xlink:href="#aT" transform="matrix(1,0,0,1,1172.74721370758,768.942898610232) translate(122.45 66.39999999999999)"/><use xlink:href="#aU" transform="matrix(1,0,0,1,1172.74721370758,768.942898610232) translate(28.574999999999996 88)"/><use xlink:href="#aV" transform="matrix(1,0,0,1,1172.74721370758,768.942898610232) translate(82.475 88)"/></g><defs><path d="M85-194c31 0 48 13 60 33l-1-100h32l1 261h-30c-2-10 0-23-3-31C134-8 116 4 85 4 32 4 16-35 15-94c0-66 23-100 70-100zm9 24c-40 0-46 34-46 75 0 40 6 74 45 74 42 0 51-32 51-76 0-42-9-74-50-73" id="aW"/><path d="M96-169c-40 0-48 33-48 73s9 75 48 75c24 0 41-14 43-38l32 2c-6 37-31 61-74 61-59 0-76-41-82-99-10-93 101-131 147-64 4 7 5 14 7 22l-32 3c-4-21-16-35-41-35" id="aX"/><path d="M59-47c-2 24 18 29 38 22v24C64 9 27 4 27-40v-127H5v-23h24l9-43h21v43h35v23H59v120" id="aY"/><path d="M33-154v-36h34v36H33zM33 0v-36h34V0H33" id="aZ"/><path d="M205 0l-28-72H64L36 0H1l101-248h38L239 0h-34zm-38-99l-47-123c-12 45-31 82-46 123h93" id="ba"/><path d="M177-190C167-65 218 103 67 71c-23-6-38-20-44-43l32-5c15 47 100 32 89-28v-30C133-14 115 1 83 1 29 1 15-40 15-95c0-56 16-97 71-98 29-1 48 16 59 35 1-10 0-23 2-32h30zM94-22c36 0 50-32 50-73 0-42-14-75-50-75-39 0-46 34-46 75s6 73 46 73" id="bb"/><path d="M100-194c63 0 86 42 84 106H49c0 40 14 67 53 68 26 1 43-12 49-29l28 8c-11 28-37 45-77 45C44 4 14-33 15-96c1-61 26-98 85-98zm52 81c6-60-76-77-97-28-3 7-6 17-6 28h103" id="bc"/><path d="M117-194c89-4 53 116 60 194h-32v-121c0-31-8-49-39-48C34-167 62-67 57 0H25l-1-190h30c1 10-1 24 2 32 11-22 29-35 61-36" id="bd"/><g id="a"><use transform="matrix(0.05,0,0,0.05,0,0)" xlink:href="#aW"/><use transform="matrix(0.05,0,0,0.05,10,0)" xlink:href="#aX"/><use transform="matrix(0.05,0,0,0.05,19,0)" xlink:href="#aY"/><use transform="matrix(0.05,0,0,0.05,24,0)" xlink:href="#aZ"/><use transform="matrix(0.05,0,0,0.05,29,0)" xlink:href="#ba"/><use transform="matrix(0.05,0,0,0.05,41,0)" xlink:href="#bb"/><use transform="matrix(0.05,0,0,0.05,51,0)" xlink:href="#bc"/><use transform="matrix(0.05,0,0,0.05,61,0)" xlink:href="#bd"/><use transform="matrix(0.05,0,0,0.05,71,0)" xlink:href="#aY"/></g><path d="M141 0L90-78 38 0H4l68-98-65-92h35l48 74 47-74h35l-64 92 68 98h-35" id="be"/><path d="M135-143c-3-34-86-38-87 0 15 53 115 12 119 90S17 21 10-45l28-5c4 36 97 45 98 0-10-56-113-15-118-90-4-57 82-63 122-42 12 7 21 19 24 35" id="bf"/><path d="M114-163C36-179 61-72 57 0H25l-1-190h30c1 12-1 29 2 39 6-27 23-49 58-41v29" id="bg"/><path d="M24-231v-30h32v30H24zM24 0v-190h32V0H24" id="bh"/><g id="b"><use transform="matrix(0.05,0,0,0.05,0,0)" xlink:href="#be"/><use transform="matrix(0.05,0,0,0.05,9,0)" xlink:href="#bf"/><use transform="matrix(0.05,0,0,0.05,18,0)" xlink:href="#aW"/><use transform="matrix(0.05,0,0,0.05,28,0)" xlink:href="#aZ"/><use transform="matrix(0.05,0,0,0.05,33,0)" xlink:href="#bf"/><use transform="matrix(0.05,0,0,0.05,42,0)" xlink:href="#aY"/><use transform="matrix(0.05,0,0,0.05,47,0)" xlink:href="#bg"/><use transform="matrix(0.05,0,0,0.05,52.95,0)" xlink:href="#bh"/><use transform="matrix(0.05,0,0,0.05,56.900000000000006,0)" xlink:href="#bd"/><use transform="matrix(0.05,0,0,0.05,66.9,0)" xlink:href="#bb"/></g><path d="M141-36C126-15 110 5 73 4 37 3 15-17 15-53c-1-64 63-63 125-63 3-35-9-54-41-54-24 1-41 7-42 31l-33-3c5-37 33-52 76-52 45 0 72 20 72 64v82c-1 20 7 32 28 27v20c-31 9-61-2-59-35zM48-53c0 20 12 33 32 33 41-3 63-29 60-74-43 2-92-5-92 41" id="bi"/><path d="M127-220V0H93v-220H8v-28h204v28h-85" id="bj"/><path d="M210-169c-67 3-38 105-44 169h-31v-121c0-29-5-50-35-48C34-165 62-65 56 0H25l-1-190h30c1 10-1 24 2 32 10-44 99-50 107 0 11-21 27-35 58-36 85-2 47 119 55 194h-31v-121c0-29-5-49-35-48" id="bk"/><g id="c"><use transform="matrix(0.05,0,0,0.05,0,0)" xlink:href="#be"/><use transform="matrix(0.05,0,0,0.05,9,0)" xlink:href="#bf"/><use transform="matrix(0.05,0,0,0.05,18,0)" xlink:href="#aW"/><use transform="matrix(0.05,0,0,0.05,28,0)" xlink:href="#aZ"/><use transform="matrix(0.05,0,0,0.05,33,0)" xlink:href="#aW"/><use transform="matrix(0.05,0,0,0.05,43,0)" xlink:href="#bi"/><use transform="matrix(0.05,0,0,0.05,53,0)" xlink:href="#aY"/><use transform="matrix(0.05,0,0,0.05,58,0)" xlink:href="#bc"/><use transform="matrix(0.05,0,0,0.05,68,0)" xlink:href="#bj"/><use transform="matrix(0.05,0,0,0.05,78.3,0)" xlink:href="#bh"/><use transform="matrix(0.05,0,0,0.05,82.25,0)" xlink:href="#bk"/><use transform="matrix(0.05,0,0,0.05,97.2,0)" xlink:href="#bc"/></g><path d="M115-194c55 1 70 41 70 98S169 2 115 4C84 4 66-9 55-30l1 105H24l-1-265h31l2 30c10-21 28-34 59-34zm-8 174c40 0 45-34 45-75s-6-73-45-74c-42 0-51 32-51 76 0 43 10 73 51 73" id="bl"/><path d="M84 4C-5 8 30-112 23-190h32v120c0 31 7 50 39 49 72-2 45-101 50-169h31l1 190h-30c-1-10 1-25-2-33-11 22-28 36-60 37" id="bm"/><path d="M115-194c53 0 69 39 70 98 0 66-23 100-70 100C84 3 66-7 56-30L54 0H23l1-261h32v101c10-23 28-34 59-34zm-8 174c40 0 45-34 45-75 0-40-5-75-45-74-42 0-51 32-51 76 0 43 10 73 51 73" id="bn"/><path d="M24 0v-261h32V0H24" id="bo"/><path d="M106-169C34-169 62-67 57 0H25v-261h32l-1 103c12-21 28-36 61-36 89 0 53 116 60 194h-32v-121c2-32-8-49-39-48" id="bp"/><g id="d"><use transform="matrix(0.05,0,0,0.05,0,0)" xlink:href="#aW"/><use transform="matrix(0.05,0,0,0.05,10,0)" xlink:href="#aX"/><use transform="matrix(0.05,0,0,0.05,19,0)" xlink:href="#aY"/><use transform="matrix(0.05,0,0,0.05,24,0)" xlink:href="#aZ"/><use transform="matrix(0.05,0,0,0.05,29,0)" xlink:href="#bl"/><use transform="matrix(0.05,0,0,0.05,39,0)" xlink:href="#bm"/><use transform="matrix(0.05,0,0,0.05,49,0)" xlink:href="#bn"/><use transform="matrix(0.05,0,0,0.05,59,0)" xlink:href="#bo"/><use transform="matrix(0.05,0,0,0.05,62.95,0)" xlink:href="#bh"/><use transform="matrix(0.05,0,0,0.05,66.9,0)" xlink:href="#bf"/><use transform="matrix(0.05,0,0,0.05,75.9,0)" xlink:href="#bp"/><use transform="matrix(0.05,0,0,0.05,85.9,0)" xlink:href="#bc"/><use transform="matrix(0.05,0,0,0.05,95.9,0)" xlink:href="#bg"/></g><path d="M100-194c62-1 85 37 85 99 1 63-27 99-86 99S16-35 15-95c0-66 28-99 85-99zM99-20c44 1 53-31 53-75 0-43-8-75-51-75s-53 32-53 75 10 74 51 75" id="bq"/><g id="e"><use transform="matrix(0.05,0,0,0.05,0,0)" xlink:href="#aW"/><use transform="matrix(0.05,0,0,0.05,10,0)" xlink:href="#aX"/><use transform="matrix(0.05,0,0,0.05,19,0)" xlink:href="#aY"/><use transform="matrix(0.05,0,0,0.05,24,0)" xlink:href="#aZ"/><use transform="matrix(0.05,0,0,0.05,29,0)" xlink:href="#aX"/><use transform="matrix(0.05,0,0,0.05,38,0)" xlink:href="#bg"/><use transform="matrix(0.05,0,0,0.05,43.95,0)" xlink:href="#bc"/><use transform="matrix(0.05,0,0,0.05,53.95,0)" xlink:href="#bi"/><use transform="matrix(0.05,0,0,0.05,63.95,0)" xlink:href="#aY"/><use transform="matrix(0.05,0,0,0.05,68.95,0)" xlink:href="#bq"/><use transform="matrix(0.05,0,0,0.05,78.95,0)" xlink:href="#bg"/></g><path d="M30-248c87 1 191-15 191 75 0 78-77 80-158 76V0H30v-248zm33 125c57 0 124 11 124-50 0-59-68-47-124-48v98" id="br"/><g id="f"><use transform="matrix(0.05,0,0,0.05,0,0)" xlink:href="#aW"/><use transform="matrix(0.05,0,0,0.05,10,0)" xlink:href="#aX"/><use transform="matrix(0.05,0,0,0.05,19,0)" xlink:href="#bi"/><use transform="matrix(0.05,0,0,0.05,29,0)" xlink:href="#aY"/><use transform="matrix(0.05,0,0,0.05,34,0)" xlink:href="#aZ"/><use transform="matrix(0.05,0,0,0.05,39,0)" xlink:href="#aX"/><use transform="matrix(0.05,0,0,0.05,48,0)" xlink:href="#bq"/><use transform="matrix(0.05,0,0,0.05,58,0)" xlink:href="#bd"/><use transform="matrix(0.05,0,0,0.05,68,0)" xlink:href="#aY"/><use transform="matrix(0.05,0,0,0.05,73,0)" xlink:href="#bi"/><use transform="matrix(0.05,0,0,0.05,83,0)" xlink:href="#aX"/><use transform="matrix(0.05,0,0,0.05,92,0)" xlink:href="#aY"/><use transform="matrix(0.05,0,0,0.05,97,0)" xlink:href="#br"/><use transform="matrix(0.05,0,0,0.05,109,0)" xlink:href="#bq"/><use transform="matrix(0.05,0,0,0.05,119,0)" xlink:href="#bh"/><use transform="matrix(0.05,0,0,0.05,122.95,0)" xlink:href="#bd"/><use transform="matrix(0.05,0,0,0.05,132.95,0)" xlink:href="#aY"/></g><g id="g"><use transform="matrix(0.05,0,0,0.05,0,0)" xlink:href="#bp"/><use transform="matrix(0.05,0,0,0.05,10,0)" xlink:href="#bi"/><use transform="matrix(0.05,0,0,0.05,20,0)" xlink:href="#bf"/></g><g id="h"><use transform="matrix(0.05,0,0,0.05,0,0)" xlink:href="#bi"/><use transform="matrix(0.05,0,0,0.05,10,0)" xlink:href="#aX"/><use transform="matrix(0.05,0,0,0.05,19,0)" xlink:href="#aX"/><use transform="matrix(0.05,0,0,0.05,28,0)" xlink:href="#bc"/><use transform="matrix(0.05,0,0,0.05,38,0)" xlink:href="#bf"/><use transform="matrix(0.05,0,0,0.05,47,0)" xlink:href="#bf"/></g><g id="i"><use transform="matrix(0.05,0,0,0.05,0,0)" xlink:href="#bg"/><use transform="matrix(0.05,0,0,0.05,5.95,0)" xlink:href="#bh"/><use transform="matrix(0.05,0,0,0.05,9.9,0)" xlink:href="#bb"/><use transform="matrix(0.05,0,0,0.05,19.9,0)" xlink:href="#bp"/><use transform="matrix(0.05,0,0,0.05,29.899999999999995,0)" xlink:href="#aY"/><use transform="matrix(0.05,0,0,0.05,34.9,0)" xlink:href="#bf"/></g><g id="j"><use transform="matrix(0.05,0,0,0.05,0,0)" xlink:href="#bh"/><use transform="matrix(0.05,0,0,0.05,3.95,0)" xlink:href="#bf"/></g><g id="k"><use transform="matrix(0.05,0,0,0.05,0,0)" xlink:href="#bg"/><use transform="matrix(0.05,0,0,0.05,5.95,0)" xlink:href="#bc"/><use transform="matrix(0.05,0,0,0.05,15.949999999999998,0)" xlink:href="#bl"/><use transform="matrix(0.05,0,0,0.05,25.950000000000003,0)" xlink:href="#bq"/><use transform="matrix(0.05,0,0,0.05,35.95,0)" xlink:href="#bg"/><use transform="matrix(0.05,0,0,0.05,41.900000000000006,0)" xlink:href="#aY"/></g><path d="M179-190L93 31C79 59 56 82 12 73V49c39 6 53-20 64-50L1-190h34L92-34l54-156h33" id="bs"/><g id="l"><use transform="matrix(0.05,0,0,0.05,0,0)" xlink:href="#aY"/><use transform="matrix(0.05,0,0,0.05,5,0)" xlink:href="#bs"/><use transform="matrix(0.05,0,0,0.05,14,0)" xlink:href="#bl"/><use transform="matrix(0.05,0,0,0.05,24,0)" xlink:href="#bc"/></g><path d="M26 75v-336h71v23H56V52h41v23H26" id="bt"/><path d="M27 0v-27h64v-190l-56 39v-29l58-41h29v221h61V0H27" id="bu"/><path d="M3 75V52h41v-290H3v-23h71V75H3" id="bv"/><g id="m"><use transform="matrix(0.05,0,0,0.05,0,0)" xlink:href="#bt"/><use transform="matrix(0.05,0,0,0.05,5,0)" xlink:href="#bu"/><use transform="matrix(0.05,0,0,0.05,15,0)" xlink:href="#bv"/></g><g id="n"><use transform="matrix(0.05,0,0,0.05,0,0)" xlink:href="#bp"/><use transform="matrix(0.05,0,0,0.05,10,0)" xlink:href="#bi"/><use transform="matrix(0.05,0,0,0.05,20,0)" xlink:href="#bf"/></g><g id="o"><use transform="matrix(0.05,0,0,0.05,0,0)" xlink:href="#bl"/><use transform="matrix(0.05,0,0,0.05,10,0)" xlink:href="#bc"/><use transform="matrix(0.05,0,0,0.05,20,0)" xlink:href="#bg"/><use transform="matrix(0.05,0,0,0.05,25.950000000000003,0)" xlink:href="#bk"/><use transform="matrix(0.05,0,0,0.05,40.9,0)" xlink:href="#bh"/><use transform="matrix(0.05,0,0,0.05,44.85,0)" xlink:href="#aY"/></g><path d="M101-251c68 0 85 55 85 127S166 4 100 4C33 4 14-52 14-124c0-73 17-127 87-127zm-1 229c47 0 54-49 54-102s-4-102-53-102c-51 0-55 48-55 102 0 53 5 102 54 102" id="bw"/><path d="M33 0v-38h34V0H33" id="bx"/><path d="M80-196l47-18 7 23-49 13 32 44-20 13-27-46-27 45-21-12 33-44-49-13 8-23 47 19-2-53h23" id="by"/><g id="p"><use transform="matrix(0.05,0,0,0.05,0,0)" xlink:href="#bt"/><use transform="matrix(0.05,0,0,0.05,5,0)" xlink:href="#bw"/><use transform="matrix(0.05,0,0,0.05,15,0)" xlink:href="#bx"/><use transform="matrix(0.05,0,0,0.05,20,0)" xlink:href="#bx"/><use transform="matrix(0.05,0,0,0.05,25,0)" xlink:href="#by"/><use transform="matrix(0.05,0,0,0.05,32,0)" xlink:href="#bv"/></g><g id="q"><use transform="matrix(0.05,0,0,0.05,0,0)" xlink:href="#aW"/><use transform="matrix(0.05,0,0,0.05,10,0)" xlink:href="#aX"/><use transform="matrix(0.05,0,0,0.05,19,0)" xlink:href="#aY"/><use transform="matrix(0.05,0,0,0.05,24,0)" xlink:href="#aZ"/><use transform="matrix(0.05,0,0,0.05,29,0)" xlink:href="#aY"/><use transform="matrix(0.05,0,0,0.05,34,0)" xlink:href="#bh"/><use transform="matrix(0.05,0,0,0.05,37.95,0)" xlink:href="#aY"/><use transform="matrix(0.05,0,0,0.05,42.95,0)" xlink:href="#bo"/><use transform="matrix(0.05,0,0,0.05,46.900000000000006,0)" xlink:href="#bc"/></g><g id="r"><use transform="matrix(0.05,0,0,0.05,0,0)" xlink:href="#aW"/><use transform="matrix(0.05,0,0,0.05,10,0)" xlink:href="#aX"/><use transform="matrix(0.05,0,0,0.05,19,0)" xlink:href="#aY"/><use transform="matrix(0.05,0,0,0.05,24,0)" xlink:href="#aZ"/><use transform="matrix(0.05,0,0,0.05,29,0)" xlink:href="#aW"/><use transform="matrix(0.05,0,0,0.05,39,0)" xlink:href="#bc"/><use transform="matrix(0.05,0,0,0.05,49,0)" xlink:href="#bf"/><use transform="matrix(0.05,0,0,0.05,58,0)" xlink:href="#aX"/><use transform="matrix(0.05,0,0,0.05,67,0)" xlink:href="#bg"/><use transform="matrix(0.05,0,0,0.05,72.95,0)" xlink:href="#bh"/><use transform="matrix(0.05,0,0,0.05,76.9,0)" xlink:href="#bl"/><use transform="matrix(0.05,0,0,0.05,86.9,0)" xlink:href="#aY"/><use transform="matrix(0.05,0,0,0.05,91.9,0)" xlink:href="#bh"/><use transform="matrix(0.05,0,0,0.05,95.85000000000001,0)" xlink:href="#bq"/><use transform="matrix(0.05,0,0,0.05,105.85000000000001,0)" xlink:href="#bd"/></g><path d="M101-234c-31-9-42 10-38 44h38v23H63V0H32v-167H5v-23h27c-7-52 17-82 69-68v24" id="bz"/><g id="s"><use transform="matrix(0.05,0,0,0.05,0,0)" xlink:href="#aW"/><use transform="matrix(0.05,0,0,0.05,10,0)" xlink:href="#aX"/><use transform="matrix(0.05,0,0,0.05,19,0)" xlink:href="#aY"/><use transform="matrix(0.05,0,0,0.05,24,0)" xlink:href="#aZ"/><use transform="matrix(0.05,0,0,0.05,29,0)" xlink:href="#bh"/><use transform="matrix(0.05,0,0,0.05,32.95,0)" xlink:href="#aW"/><use transform="matrix(0.05,0,0,0.05,42.95,0)" xlink:href="#bc"/><use transform="matrix(0.05,0,0,0.05,52.95,0)" xlink:href="#bd"/><use transform="matrix(0.05,0,0,0.05,62.95,0)" xlink:href="#aY"/><use transform="matrix(0.05,0,0,0.05,67.95,0)" xlink:href="#bh"/><use transform="matrix(0.05,0,0,0.05,71.9,0)" xlink:href="#bz"/><use transform="matrix(0.05,0,0,0.05,76.9,0)" xlink:href="#bh"/><use transform="matrix(0.05,0,0,0.05,80.85000000000001,0)" xlink:href="#bc"/><use transform="matrix(0.05,0,0,0.05,90.85000000000001,0)" xlink:href="#bg"/></g><g id="t"><use transform="matrix(0.05,0,0,0.05,0,0)" xlink:href="#aW"/><use transform="matrix(0.05,0,0,0.05,10,0)" xlink:href="#aX"/><use transform="matrix(0.05,0,0,0.05,19,0)" xlink:href="#aY"/><use transform="matrix(0.05,0,0,0.05,24,0)" xlink:href="#aZ"/><use transform="matrix(0.05,0,0,0.05,29,0)" xlink:href="#aX"/><use transform="matrix(0.05,0,0,0.05,38,0)" xlink:href="#bg"/><use transform="matrix(0.05,0,0,0.05,43.95,0)" xlink:href="#bc"/><use transform="matrix(0.05,0,0,0.05,53.95,0)" xlink:href="#bi"/><use transform="matrix(0.05,0,0,0.05,63.95,0)" xlink:href="#aY"/><use transform="matrix(0.05,0,0,0.05,68.95,0)" xlink:href="#bc"/><use transform="matrix(0.05,0,0,0.05,78.95,0)" xlink:href="#aW"/></g><g id="u"><use transform="matrix(0.05,0,0,0.05,0,0)" xlink:href="#aW"/><use transform="matrix(0.05,0,0,0.05,10,0)" xlink:href="#aX"/><use transform="matrix(0.05,0,0,0.05,19,0)" xlink:href="#aY"/><use transform="matrix(0.05,0,0,0.05,24,0)" xlink:href="#aZ"/><use transform="matrix(0.05,0,0,0.05,29,0)" xlink:href="#bh"/><use transform="matrix(0.05,0,0,0.05,32.95,0)" xlink:href="#bf"/><use transform="matrix(0.05,0,0,0.05,41.95,0)" xlink:href="#bf"/><use transform="matrix(0.05,0,0,0.05,50.95,0)" xlink:href="#bm"/><use transform="matrix(0.05,0,0,0.05,60.95,0)" xlink:href="#bc"/><use transform="matrix(0.05,0,0,0.05,70.95,0)" xlink:href="#aW"/></g><g id="v"><use transform="matrix(0.05,0,0,0.05,0,0)" xlink:href="#aW"/><use transform="matrix(0.05,0,0,0.05,10,0)" xlink:href="#aX"/><use transform="matrix(0.05,0,0,0.05,19,0)" xlink:href="#aY"/><use transform="matrix(0.05,0,0,0.05,24,0)" xlink:href="#aZ"/><use transform="matrix(0.05,0,0,0.05,29,0)" xlink:href="#bk"/><use transform="matrix(0.05,0,0,0.05,43.95,0)" xlink:href="#bq"/><use transform="matrix(0.05,0,0,0.05,53.95,0)" xlink:href="#aW"/><use transform="matrix(0.05,0,0,0.05,63.95,0)" xlink:href="#bh"/><use transform="matrix(0.05,0,0,0.05,67.9,0)" xlink:href="#bz"/><use transform="matrix(0.05,0,0,0.05,72.9,0)" xlink:href="#bh"/><use transform="matrix(0.05,0,0,0.05,76.85000000000001,0)" xlink:href="#bc"/><use transform="matrix(0.05,0,0,0.05,86.85000000000001,0)" xlink:href="#aW"/></g><path d="M143 4C61 4 22-44 18-125c-5-107 100-154 193-111 17 8 29 25 37 43l-32 9c-13-25-37-40-76-40-61 0-88 39-88 99 0 61 29 100 91 101 35 0 62-11 79-27v-45h-74v-28h105v86C228-13 192 4 143 4" id="bA"/><g id="w"><use transform="matrix(0.05,0,0,0.05,0,0)" xlink:href="#bb"/><use transform="matrix(0.05,0,0,0.05,10,0)" xlink:href="#bc"/><use transform="matrix(0.05,0,0,0.05,20,0)" xlink:href="#bq"/><use transform="matrix(0.05,0,0,0.05,30,0)" xlink:href="#aZ"/><use transform="matrix(0.05,0,0,0.05,35,0)" xlink:href="#bp"/><use transform="matrix(0.05,0,0,0.05,45,0)" xlink:href="#bi"/><use transform="matrix(0.05,0,0,0.05,55,0)" xlink:href="#bf"/><use transform="matrix(0.05,0,0,0.05,64,0)" xlink:href="#bA"/><use transform="matrix(0.05,0,0,0.05,78,0)" xlink:href="#bc"/><use transform="matrix(0.05,0,0,0.05,88,0)" xlink:href="#bq"/><use transform="matrix(0.05,0,0,0.05,98,0)" xlink:href="#bk"/><use transform="matrix(0.05,0,0,0.05,112.95,0)" xlink:href="#bc"/><use transform="matrix(0.05,0,0,0.05,122.95,0)" xlink:href="#aY"/><use transform="matrix(0.05,0,0,0.05,127.95,0)" xlink:href="#bg"/><use transform="matrix(0.05,0,0,0.05,133.9,0)" xlink:href="#bs"/></g><g id="x"><use transform="matrix(0.05,0,0,0.05,0,0)" xlink:href="#bp"/><use transform="matrix(0.05,0,0,0.05,10,0)" xlink:href="#bq"/><use transform="matrix(0.05,0,0,0.05,20,0)" xlink:href="#bo"/><use transform="matrix(0.05,0,0,0.05,23.95,0)" xlink:href="#aW"/><use transform="matrix(0.05,0,0,0.05,33.95,0)" xlink:href="#bc"/><use transform="matrix(0.05,0,0,0.05,43.95,0)" xlink:href="#bg"/></g><g id="y"><use transform="matrix(0.05,0,0,0.05,0,0)" xlink:href="#bt"/><use transform="matrix(0.05,0,0,0.05,5,0)" xlink:href="#bu"/><use transform="matrix(0.05,0,0,0.05,15,0)" xlink:href="#bx"/><use transform="matrix(0.05,0,0,0.05,20,0)" xlink:href="#bx"/><use transform="matrix(0.05,0,0,0.05,25,0)" xlink:href="#by"/><use transform="matrix(0.05,0,0,0.05,32,0)" xlink:href="#bv"/></g><path fill="#fff" d="M30-248c87 1 191-15 191 75 0 78-77 80-158 76V0H30v-248zm33 125c57 0 124 11 124-50 0-59-68-47-124-48v98" id="bB"/><path fill="#fff" d="M100-194c63 0 86 42 84 106H49c0 40 14 67 53 68 26 1 43-12 49-29l28 8c-11 28-37 45-77 45C44 4 14-33 15-96c1-61 26-98 85-98zm52 81c6-60-76-77-97-28-3 7-6 17-6 28h103" id="bC"/><path fill="#fff" d="M114-163C36-179 61-72 57 0H25l-1-190h30c1 12-1 29 2 39 6-27 23-49 58-41v29" id="bD"/><path fill="#fff" d="M210-169c-67 3-38 105-44 169h-31v-121c0-29-5-50-35-48C34-165 62-65 56 0H25l-1-190h30c1 10-1 24 2 32 10-44 99-50 107 0 11-21 27-35 58-36 85-2 47 119 55 194h-31v-121c0-29-5-49-35-48" id="bE"/><path fill="#fff" d="M24-231v-30h32v30H24zM24 0v-190h32V0H24" id="bF"/><path fill="#fff" d="M59-47c-2 24 18 29 38 22v24C64 9 27 4 27-40v-127H5v-23h24l9-43h21v43h35v23H59v120" id="bG"/><g id="z"><use transform="matrix(0.05,0,0,0.05,0,0)" xlink:href="#bB"/><use transform="matrix(0.05,0,0,0.05,12,0)" xlink:href="#bC"/><use transform="matrix(0.05,0,0,0.05,22,0)" xlink:href="#bD"/><use transform="matrix(0.05,0,0,0.05,27.950000000000003,0)" xlink:href="#bE"/><use transform="matrix(0.05,0,0,0.05,42.9,0)" xlink:href="#bF"/><use transform="matrix(0.05,0,0,0.05,46.85,0)" xlink:href="#bG"/></g><linearGradient gradientUnits="userSpaceOnUse" id="A" x1="24.75" y1="513.96" x2="24.75" y2="633.96"><stop offset="0%" stop-color="#fff"/><stop offset="20%" stop-color="#fff"/><stop offset="100%" stop-color="#dbdbdb"/></linearGradient><path d="M108 0H70L1-190h34L89-25l56-165h34" id="bH"/><g id="B"><use transform="matrix(0.05,0,0,0.05,0,0)" xlink:href="#bl"/><use transform="matrix(0.05,0,0,0.05,10,0)" xlink:href="#bg"/><use transform="matrix(0.05,0,0,0.05,15.949999999999998,0)" xlink:href="#bq"/><use transform="matrix(0.05,0,0,0.05,25.950000000000003,0)" xlink:href="#bH"/><use transform="matrix(0.05,0,0,0.05,34.95,0)" xlink:href="#aZ"/></g><g id="C"><use transform="matrix(0.05,0,0,0.05,0,0)" xlink:href="#ba"/><use transform="matrix(0.05,0,0,0.05,12,0)" xlink:href="#bb"/><use transform="matrix(0.05,0,0,0.05,22,0)" xlink:href="#bc"/><use transform="matrix(0.05,0,0,0.05,32,0)" xlink:href="#bd"/><use transform="matrix(0.05,0,0,0.05,42,0)" xlink:href="#aY"/></g><path d="M233-177c-1 41-23 64-60 70L243 0h-38l-65-103H63V0H30v-248c88 3 205-21 203 71zM63-129c60-2 137 13 137-47 0-61-80-42-137-45v92" id="bI"/><g id="D"><use transform="matrix(0.05,0,0,0.05,0,0)" xlink:href="#bI"/><use transform="matrix(0.05,0,0,0.05,12.950000000000001,0)" xlink:href="#bc"/><use transform="matrix(0.05,0,0,0.05,22.950000000000003,0)" xlink:href="#bf"/><use transform="matrix(0.05,0,0,0.05,31.950000000000003,0)" xlink:href="#bq"/><use transform="matrix(0.05,0,0,0.05,41.95,0)" xlink:href="#bm"/><use transform="matrix(0.05,0,0,0.05,51.95,0)" xlink:href="#bg"/><use transform="matrix(0.05,0,0,0.05,57.900000000000006,0)" xlink:href="#aX"/><use transform="matrix(0.05,0,0,0.05,66.9,0)" xlink:href="#bc"/><use transform="matrix(0.05,0,0,0.05,76.9,0)" xlink:href="#bf"/></g><path d="M33 0v-248h34V0H33" id="bJ"/><g id="E"><use transform="matrix(0.05,0,0,0.05,0,0)" xlink:href="#bJ"/><use transform="matrix(0.05,0,0,0.05,5,0)" xlink:href="#bd"/><use transform="matrix(0.05,0,0,0.05,15,0)" xlink:href="#aW"/><use transform="matrix(0.05,0,0,0.05,25,0)" xlink:href="#bm"/><use transform="matrix(0.05,0,0,0.05,35,0)" xlink:href="#bf"/><use transform="matrix(0.05,0,0,0.05,44,0)" xlink:href="#aY"/><use transform="matrix(0.05,0,0,0.05,49,0)" xlink:href="#bg"/><use transform="matrix(0.05,0,0,0.05,54.95,0)" xlink:href="#bs"/></g><g id="F"><use transform="matrix(0.05,0,0,0.05,0,0)" xlink:href="#bI"/><use transform="matrix(0.05,0,0,0.05,12.950000000000001,0)" xlink:href="#bc"/><use transform="matrix(0.05,0,0,0.05,22.950000000000003,0)" xlink:href="#bl"/><use transform="matrix(0.05,0,0,0.05,32.95,0)" xlink:href="#bq"/><use transform="matrix(0.05,0,0,0.05,42.95,0)" xlink:href="#bg"/><use transform="matrix(0.05,0,0,0.05,48.900000000000006,0)" xlink:href="#aY"/></g><g id="G"><use transform="matrix(0.05,0,0,0.05,0,0)" xlink:href="#bj"/><use transform="matrix(0.05,0,0,0.05,9.950000000000001,0)" xlink:href="#bs"/><use transform="matrix(0.05,0,0,0.05,18.950000000000003,0)" xlink:href="#bl"/><use transform="matrix(0.05,0,0,0.05,28.950000000000003,0)" xlink:href="#bc"/></g><linearGradient gradientUnits="userSpaceOnUse" id="H" x1="24.75" y1="878.55" x2="24.75" y2="998.55"><stop offset="0%" stop-color="#fff"/><stop offset="20%" stop-color="#fff"/><stop offset="100%" stop-color="#dbdbdb"/></linearGradient><g id="I"><use transform="matrix(0.05,0,0,0.05,0,0)" xlink:href="#bb"/><use transform="matrix(0.05,0,0,0.05,10,0)" xlink:href="#bc"/><use transform="matrix(0.05,0,0,0.05,20,0)" xlink:href="#bq"/><use transform="matrix(0.05,0,0,0.05,30,0)" xlink:href="#aZ"/></g><g id="J"><use transform="matrix(0.05,0,0,0.05,0,0)" xlink:href="#bA"/><use transform="matrix(0.05,0,0,0.05,14,0)" xlink:href="#bc"/><use transform="matrix(0.05,0,0,0.05,24,0)" xlink:href="#bq"/><use transform="matrix(0.05,0,0,0.05,34,0)" xlink:href="#bk"/><use transform="matrix(0.05,0,0,0.05,48.95,0)" xlink:href="#bc"/><use transform="matrix(0.05,0,0,0.05,58.95,0)" xlink:href="#aY"/><use transform="matrix(0.05,0,0,0.05,63.95,0)" xlink:href="#bg"/><use transform="matrix(0.05,0,0,0.05,69.9,0)" xlink:href="#bs"/></g><path fill="#fff" d="M233-177c-1 41-23 64-60 70L243 0h-38l-65-103H63V0H30v-248c88 3 205-21 203 71zM63-129c60-2 137 13 137-47 0-61-80-42-137-45v92" id="bK"/><path fill="#fff" d="M135-143c-3-34-86-38-87 0 15 53 115 12 119 90S17 21 10-45l28-5c4 36 97 45 98 0-10-56-113-15-118-90-4-57 82-63 122-42 12 7 21 19 24 35" id="bL"/><path fill="#fff" d="M100-194c62-1 85 37 85 99 1 63-27 99-86 99S16-35 15-95c0-66 28-99 85-99zM99-20c44 1 53-31 53-75 0-43-8-75-51-75s-53 32-53 75 10 74 51 75" id="bM"/><path fill="#fff" d="M84 4C-5 8 30-112 23-190h32v120c0 31 7 50 39 49 72-2 45-101 50-169h31l1 190h-30c-1-10 1-25-2-33-11 22-28 36-60 37" id="bN"/><path fill="#fff" d="M96-169c-40 0-48 33-48 73s9 75 48 75c24 0 41-14 43-38l32 2c-6 37-31 61-74 61-59 0-76-41-82-99-10-93 101-131 147-64 4 7 5 14 7 22l-32 3c-4-21-16-35-41-35" id="bO"/><g id="K"><use transform="matrix(0.05,0,0,0.05,0,0)" xlink:href="#bK"/><use transform="matrix(0.05,0,0,0.05,12.950000000000001,0)" xlink:href="#bC"/><use transform="matrix(0.05,0,0,0.05,22.950000000000003,0)" xlink:href="#bL"/><use transform="matrix(0.05,0,0,0.05,31.950000000000003,0)" xlink:href="#bM"/><use transform="matrix(0.05,0,0,0.05,41.95,0)" xlink:href="#bN"/><use transform="matrix(0.05,0,0,0.05,51.95,0)" xlink:href="#bD"/><use transform="matrix(0.05,0,0,0.05,57.900000000000006,0)" xlink:href="#bO"/><use transform="matrix(0.05,0,0,0.05,66.9,0)" xlink:href="#bC"/><use transform="matrix(0.05,0,0,0.05,76.9,0)" xlink:href="#bL"/></g><path fill="#fff" d="M33 0v-248h34V0H33" id="bP"/><path fill="#fff" d="M117-194c89-4 53 116 60 194h-32v-121c0-31-8-49-39-48C34-167 62-67 57 0H25l-1-190h30c1 10-1 24 2 32 11-22 29-35 61-36" id="bQ"/><path fill="#fff" d="M85-194c31 0 48 13 60 33l-1-100h32l1 261h-30c-2-10 0-23-3-31C134-8 116 4 85 4 32 4 16-35 15-94c0-66 23-100 70-100zm9 24c-40 0-46 34-46 75 0 40 6 74 45 74 42 0 51-32 51-76 0-42-9-74-50-73" id="bR"/><path fill="#fff" d="M179-190L93 31C79 59 56 82 12 73V49c39 6 53-20 64-50L1-190h34L92-34l54-156h33" id="bS"/><g id="L"><use transform="matrix(0.05,0,0,0.05,0,0)" xlink:href="#bP"/><use transform="matrix(0.05,0,0,0.05,5,0)" xlink:href="#bQ"/><use transform="matrix(0.05,0,0,0.05,15,0)" xlink:href="#bR"/><use transform="matrix(0.05,0,0,0.05,25,0)" xlink:href="#bN"/><use transform="matrix(0.05,0,0,0.05,35,0)" xlink:href="#bL"/><use transform="matrix(0.05,0,0,0.05,44,0)" xlink:href="#bG"/><use transform="matrix(0.05,0,0,0.05,49,0)" xlink:href="#bD"/><use transform="matrix(0.05,0,0,0.05,54.95,0)" xlink:href="#bS"/></g><path fill="#fff" d="M115-194c55 1 70 41 70 98S169 2 115 4C84 4 66-9 55-30l1 105H24l-1-265h31l2 30c10-21 28-34 59-34zm-8 174c40 0 45-34 45-75s-6-73-45-74c-42 0-51 32-51 76 0 43 10 73 51 73" id="bT"/><g id="M"><use transform="matrix(0.05,0,0,0.05,0,0)" xlink:href="#bK"/><use transform="matrix(0.05,0,0,0.05,12.950000000000001,0)" xlink:href="#bC"/><use transform="matrix(0.05,0,0,0.05,22.950000000000003,0)" xlink:href="#bT"/><use transform="matrix(0.05,0,0,0.05,32.95,0)" xlink:href="#bM"/><use transform="matrix(0.05,0,0,0.05,42.95,0)" xlink:href="#bD"/><use transform="matrix(0.05,0,0,0.05,48.900000000000006,0)" xlink:href="#bG"/></g><g id="N"><use transform="matrix(0.05,0,0,0.05,0,0)" xlink:href="#ba"/><use transform="matrix(0.05,0,0,0.05,12,0)" xlink:href="#aX"/><use transform="matrix(0.05,0,0,0.05,21,0)" xlink:href="#aX"/><use transform="matrix(0.05,0,0,0.05,30,0)" xlink:href="#bc"/><use transform="matrix(0.05,0,0,0.05,40,0)" xlink:href="#bf"/><use transform="matrix(0.05,0,0,0.05,49,0)" xlink:href="#bf"/></g><g id="O"><use transform="matrix(0.05,0,0,0.05,0,0)" xlink:href="#bI"/><use transform="matrix(0.05,0,0,0.05,12.950000000000001,0)" xlink:href="#bh"/><use transform="matrix(0.05,0,0,0.05,16.900000000000002,0)" xlink:href="#bb"/><use transform="matrix(0.05,0,0,0.05,26.900000000000002,0)" xlink:href="#bp"/><use transform="matrix(0.05,0,0,0.05,36.900000000000006,0)" xlink:href="#aY"/><use transform="matrix(0.05,0,0,0.05,41.900000000000006,0)" xlink:href="#bf"/></g><path fill="#fff" d="M185-189c-5-48-123-54-124 2 14 75 158 14 163 119 3 78-121 87-175 55-17-10-28-26-33-46l33-7c5 56 141 63 141-1 0-78-155-14-162-118-5-82 145-84 179-34 5 7 8 16 11 25" id="bU"/><path fill="#fff" d="M108 0H70L1-190h34L89-25l56-165h34" id="bV"/><g id="P"><use transform="matrix(0.05,0,0,0.05,0,0)" xlink:href="#bU"/><use transform="matrix(0.05,0,0,0.05,12,0)" xlink:href="#bN"/><use transform="matrix(0.05,0,0,0.05,22,0)" xlink:href="#bD"/><use transform="matrix(0.05,0,0,0.05,27.950000000000003,0)" xlink:href="#bV"/><use transform="matrix(0.05,0,0,0.05,36.95,0)" xlink:href="#bC"/><use transform="matrix(0.05,0,0,0.05,46.95,0)" xlink:href="#bS"/></g><g id="Q"><use transform="matrix(0.05,0,0,0.05,0,0)" xlink:href="#bM"/><use transform="matrix(0.05,0,0,0.05,10,0)" xlink:href="#bD"/></g><path fill="#fff" d="M140-251c81 0 123 46 123 126C263-46 219 4 140 4 59 4 17-45 17-125s42-126 123-126zm0 227c63 0 89-41 89-101s-29-99-89-99c-61 0-89 39-89 99S79-25 140-24" id="bW"/><path fill="#fff" d="M115-194c53 0 69 39 70 98 0 66-23 100-70 100C84 3 66-7 56-30L54 0H23l1-261h32v101c10-23 28-34 59-34zm-8 174c40 0 45-34 45-75 0-40-5-75-45-74-42 0-51 32-51 76 0 43 10 73 51 73" id="bX"/><path fill="#fff" d="M141-36C126-15 110 5 73 4 37 3 15-17 15-53c-1-64 63-63 125-63 3-35-9-54-41-54-24 1-41 7-42 31l-33-3c5-37 33-52 76-52 45 0 72 20 72 64v82c-1 20 7 32 28 27v20c-31 9-61-2-59-35zM48-53c0 20 12 33 32 33 41-3 63-29 60-74-43 2-92-5-92 41" id="bY"/><g id="R"><use transform="matrix(0.05,0,0,0.05,0,0)" xlink:href="#bW"/><use transform="matrix(0.05,0,0,0.05,14,0)" xlink:href="#bX"/><use transform="matrix(0.05,0,0,0.05,24,0)" xlink:href="#bL"/><use transform="matrix(0.05,0,0,0.05,33,0)" xlink:href="#bC"/><use transform="matrix(0.05,0,0,0.05,43,0)" xlink:href="#bD"/><use transform="matrix(0.05,0,0,0.05,48.95,0)" xlink:href="#bV"/><use transform="matrix(0.05,0,0,0.05,57.95,0)" xlink:href="#bY"/><use transform="matrix(0.05,0,0,0.05,67.95,0)" xlink:href="#bG"/><use transform="matrix(0.05,0,0,0.05,72.95,0)" xlink:href="#bF"/><use transform="matrix(0.05,0,0,0.05,76.9,0)" xlink:href="#bM"/><use transform="matrix(0.05,0,0,0.05,86.9,0)" xlink:href="#bQ"/></g><path d="M140-251c81 0 123 46 123 126C263-46 219 4 140 4 59 4 17-45 17-125s42-126 123-126zm0 227c63 0 89-41 89-101s-29-99-89-99c-61 0-89 39-89 99S79-25 140-24" id="bZ"/><g id="S"><use transform="matrix(0.05,0,0,0.05,0,0)" xlink:href="#bf"/><use transform="matrix(0.05,0,0,0.05,9,0)" xlink:href="#bq"/><use transform="matrix(0.05,0,0,0.05,19,0)" xlink:href="#bf"/><use transform="matrix(0.05,0,0,0.05,28,0)" xlink:href="#bi"/><use transform="matrix(0.05,0,0,0.05,38,0)" xlink:href="#aZ"/><use transform="matrix(0.05,0,0,0.05,43,0)" xlink:href="#bh"/><use transform="matrix(0.05,0,0,0.05,46.95,0)" xlink:href="#bf"/><use transform="matrix(0.05,0,0,0.05,55.95,0)" xlink:href="#bI"/><use transform="matrix(0.05,0,0,0.05,68.9,0)" xlink:href="#bc"/><use transform="matrix(0.05,0,0,0.05,78.9,0)" xlink:href="#bf"/><use transform="matrix(0.05,0,0,0.05,87.9,0)" xlink:href="#bm"/><use transform="matrix(0.05,0,0,0.05,97.9,0)" xlink:href="#bo"/><use transform="matrix(0.05,0,0,0.05,101.85000000000001,0)" xlink:href="#aY"/><use transform="matrix(0.05,0,0,0.05,106.85000000000001,0)" xlink:href="#bZ"/><use transform="matrix(0.05,0,0,0.05,120.85000000000001,0)" xlink:href="#bz"/></g><g id="T"><use transform="matrix(0.05,0,0,0.05,0,0)" xlink:href="#bt"/><use transform="matrix(0.05,0,0,0.05,5,0)" xlink:href="#bw"/><use transform="matrix(0.05,0,0,0.05,15,0)" xlink:href="#bx"/><use transform="matrix(0.05,0,0,0.05,20,0)" xlink:href="#bx"/><use transform="matrix(0.05,0,0,0.05,25,0)" xlink:href="#bu"/><use transform="matrix(0.05,0,0,0.05,35,0)" xlink:href="#bv"/></g><g id="U"><use transform="matrix(0.05,0,0,0.05,0,0)" xlink:href="#bg"/><use transform="matrix(0.05,0,0,0.05,5.95,0)" xlink:href="#bc"/><use transform="matrix(0.05,0,0,0.05,15.949999999999998,0)" xlink:href="#bl"/><use transform="matrix(0.05,0,0,0.05,25.950000000000003,0)" xlink:href="#bq"/><use transform="matrix(0.05,0,0,0.05,35.95,0)" xlink:href="#bg"/><use transform="matrix(0.05,0,0,0.05,41.900000000000006,0)" xlink:href="#aY"/><use transform="matrix(0.05,0,0,0.05,46.900000000000006,0)" xlink:href="#bh"/><use transform="matrix(0.05,0,0,0.05,50.85000000000001,0)" xlink:href="#bd"/><use transform="matrix(0.05,0,0,0.05,60.85,0)" xlink:href="#bb"/></g><g id="V"><use transform="matrix(0.05,0,0,0.05,0,0)" xlink:href="#bl"/><use transform="matrix(0.05,0,0,0.05,10,0)" xlink:href="#bc"/><use transform="matrix(0.05,0,0,0.05,20,0)" xlink:href="#bg"/><use transform="matrix(0.05,0,0,0.05,25.950000000000003,0)" xlink:href="#bh"/><use transform="matrix(0.05,0,0,0.05,29.899999999999995,0)" xlink:href="#bq"/><use transform="matrix(0.05,0,0,0.05,39.9,0)" xlink:href="#aW"/></g><path d="M185-189c-5-48-123-54-124 2 14 75 158 14 163 119 3 78-121 87-175 55-17-10-28-26-33-46l33-7c5 56 141 63 141-1 0-78-155-14-162-118-5-82 145-84 179-34 5 7 8 16 11 25" id="ca"/><g id="W"><use transform="matrix(0.05,0,0,0.05,0,0)" xlink:href="#aY"/><use transform="matrix(0.05,0,0,0.05,5,0)" xlink:href="#bh"/><use transform="matrix(0.05,0,0,0.05,8.95,0)" xlink:href="#bk"/><use transform="matrix(0.05,0,0,0.05,23.9,0)" xlink:href="#bc"/><use transform="matrix(0.05,0,0,0.05,33.9,0)" xlink:href="#aZ"/><use transform="matrix(0.05,0,0,0.05,38.9,0)" xlink:href="#bp"/><use transform="matrix(0.05,0,0,0.05,48.9,0)" xlink:href="#bi"/><use transform="matrix(0.05,0,0,0.05,58.900000000000006,0)" xlink:href="#bf"/><use transform="matrix(0.05,0,0,0.05,67.9,0)" xlink:href="#ca"/><use transform="matrix(0.05,0,0,0.05,79.9,0)" xlink:href="#aY"/><use transform="matrix(0.05,0,0,0.05,84.9,0)" xlink:href="#bi"/><use transform="matrix(0.05,0,0,0.05,94.9,0)" xlink:href="#bg"/><use transform="matrix(0.05,0,0,0.05,100.85000000000001,0)" xlink:href="#aY"/><use transform="matrix(0.05,0,0,0.05,105.85000000000001,0)" xlink:href="#bj"/><use transform="matrix(0.05,0,0,0.05,116.15,0)" xlink:href="#bh"/><use transform="matrix(0.05,0,0,0.05,120.10000000000001,0)" xlink:href="#bk"/><use transform="matrix(0.05,0,0,0.05,135.05,0)" xlink:href="#bc"/></g><path d="M30 0v-248h187v28H63v79h144v27H63v87h162V0H30" id="cb"/><g id="X"><use transform="matrix(0.05,0,0,0.05,0,0)" xlink:href="#aY"/><use transform="matrix(0.05,0,0,0.05,5,0)" xlink:href="#bh"/><use transform="matrix(0.05,0,0,0.05,8.95,0)" xlink:href="#bk"/><use transform="matrix(0.05,0,0,0.05,23.9,0)" xlink:href="#bc"/><use transform="matrix(0.05,0,0,0.05,33.9,0)" xlink:href="#aZ"/><use transform="matrix(0.05,0,0,0.05,38.9,0)" xlink:href="#bp"/><use transform="matrix(0.05,0,0,0.05,48.9,0)" xlink:href="#bi"/><use transform="matrix(0.05,0,0,0.05,58.900000000000006,0)" xlink:href="#bf"/><use transform="matrix(0.05,0,0,0.05,67.9,0)" xlink:href="#cb"/><use transform="matrix(0.05,0,0,0.05,79.9,0)" xlink:href="#bd"/><use transform="matrix(0.05,0,0,0.05,89.9,0)" xlink:href="#aW"/><use transform="matrix(0.05,0,0,0.05,99.9,0)" xlink:href="#bj"/><use transform="matrix(0.05,0,0,0.05,110.2,0)" xlink:href="#bh"/><use transform="matrix(0.05,0,0,0.05,114.15,0)" xlink:href="#bk"/><use transform="matrix(0.05,0,0,0.05,129.1,0)" xlink:href="#bc"/></g><g id="Y"><use transform="matrix(0.05,0,0,0.05,0,0)" xlink:href="#bo"/><use transform="matrix(0.05,0,0,0.05,3.95,0)" xlink:href="#bq"/><use transform="matrix(0.05,0,0,0.05,13.949999999999998,0)" xlink:href="#aX"/><use transform="matrix(0.05,0,0,0.05,22.95,0)" xlink:href="#bd"/><use transform="matrix(0.05,0,0,0.05,32.95,0)" xlink:href="#aZ"/><use transform="matrix(0.05,0,0,0.05,37.95,0)" xlink:href="#bb"/><use transform="matrix(0.05,0,0,0.05,47.95,0)" xlink:href="#bc"/><use transform="matrix(0.05,0,0,0.05,57.95,0)" xlink:href="#bq"/><use transform="matrix(0.05,0,0,0.05,67.95,0)" xlink:href="#bk"/><use transform="matrix(0.05,0,0,0.05,82.9,0)" xlink:href="#bc"/><use transform="matrix(0.05,0,0,0.05,92.9,0)" xlink:href="#aY"/><use transform="matrix(0.05,0,0,0.05,97.9,0)" xlink:href="#bg"/><use transform="matrix(0.05,0,0,0.05,103.85000000000001,0)" xlink:href="#bs"/></g><path d="M30 0v-248h33v221h125V0H30" id="cc"/><g id="Z"><use transform="matrix(0.05,0,0,0.05,0,0)" xlink:href="#aW"/><use transform="matrix(0.05,0,0,0.05,10,0)" xlink:href="#aX"/><use transform="matrix(0.05,0,0,0.05,19,0)" xlink:href="#aY"/><use transform="matrix(0.05,0,0,0.05,24,0)" xlink:href="#aZ"/><use transform="matrix(0.05,0,0,0.05,29,0)" xlink:href="#cc"/><use transform="matrix(0.05,0,0,0.05,39,0)" xlink:href="#bq"/><use transform="matrix(0.05,0,0,0.05,49,0)" xlink:href="#aX"/><use transform="matrix(0.05,0,0,0.05,58,0)" xlink:href="#bi"/><use transform="matrix(0.05,0,0,0.05,68,0)" xlink:href="#aY"/><use transform="matrix(0.05,0,0,0.05,73,0)" xlink:href="#bh"/><use transform="matrix(0.05,0,0,0.05,76.95,0)" xlink:href="#bq"/><use transform="matrix(0.05,0,0,0.05,86.95,0)" xlink:href="#bd"/></g><g id="aa"><use transform="matrix(0.05,0,0,0.05,0,0)" xlink:href="#aY"/><use transform="matrix(0.05,0,0,0.05,5,0)" xlink:href="#bh"/><use transform="matrix(0.05,0,0,0.05,8.95,0)" xlink:href="#bk"/><use transform="matrix(0.05,0,0,0.05,23.9,0)" xlink:href="#bc"/><use transform="matrix(0.05,0,0,0.05,33.9,0)" xlink:href="#aZ"/></g><g id="ab"><use transform="matrix(0.05,0,0,0.05,0,0)" xlink:href="#br"/><use transform="matrix(0.05,0,0,0.05,12,0)" xlink:href="#bg"/><use transform="matrix(0.05,0,0,0.05,17.95,0)" xlink:href="#bq"/><use transform="matrix(0.05,0,0,0.05,27.950000000000003,0)" xlink:href="#bl"/><use transform="matrix(0.05,0,0,0.05,37.95,0)" xlink:href="#bc"/><use transform="matrix(0.05,0,0,0.05,47.95,0)" xlink:href="#bg"/><use transform="matrix(0.05,0,0,0.05,53.900000000000006,0)" xlink:href="#bJ"/><use transform="matrix(0.05,0,0,0.05,58.900000000000006,0)" xlink:href="#bd"/><use transform="matrix(0.05,0,0,0.05,68.9,0)" xlink:href="#aY"/><use transform="matrix(0.05,0,0,0.05,73.9,0)" xlink:href="#bc"/><use transform="matrix(0.05,0,0,0.05,83.9,0)" xlink:href="#bg"/><use transform="matrix(0.05,0,0,0.05,89.85000000000001,0)" xlink:href="#bH"/><use transform="matrix(0.05,0,0,0.05,98.85000000000001,0)" xlink:href="#bi"/><use transform="matrix(0.05,0,0,0.05,108.85000000000001,0)" xlink:href="#bo"/></g><g id="ac"><use transform="matrix(0.05,0,0,0.05,0,0)" xlink:href="#bg"/><use transform="matrix(0.05,0,0,0.05,5.95,0)" xlink:href="#aW"/><use transform="matrix(0.05,0,0,0.05,15.949999999999998,0)" xlink:href="#bz"/><use transform="matrix(0.05,0,0,0.05,20.95,0)" xlink:href="#bf"/><use transform="matrix(0.05,0,0,0.05,29.950000000000003,0)" xlink:href="#aZ"/><use transform="matrix(0.05,0,0,0.05,34.95,0)" xlink:href="#bf"/><use transform="matrix(0.05,0,0,0.05,43.95,0)" xlink:href="#bc"/><use transform="matrix(0.05,0,0,0.05,53.95,0)" xlink:href="#bc"/><use transform="matrix(0.05,0,0,0.05,63.95,0)" xlink:href="#ba"/><use transform="matrix(0.05,0,0,0.05,75.95,0)" xlink:href="#bo"/><use transform="matrix(0.05,0,0,0.05,79.9,0)" xlink:href="#bf"/><use transform="matrix(0.05,0,0,0.05,88.9,0)" xlink:href="#bq"/></g><g id="ad"><use transform="matrix(0.05,0,0,0.05,0,0)" xlink:href="#bt"/><use transform="matrix(0.05,0,0,0.05,5,0)" xlink:href="#bw"/><use transform="matrix(0.05,0,0,0.05,15,0)" xlink:href="#bx"/><use transform="matrix(0.05,0,0,0.05,20,0)" xlink:href="#bx"/><use transform="matrix(0.05,0,0,0.05,25,0)" xlink:href="#bu"/><use transform="matrix(0.05,0,0,0.05,35,0)" xlink:href="#bv"/></g><path d="M30-248c118-7 216 8 213 122C240-48 200 0 122 0H30v-248zM63-27c89 8 146-16 146-99s-60-101-146-95v194" id="cd"/><g id="ae"><use transform="matrix(0.05,0,0,0.05,0,0)" xlink:href="#bz"/><use transform="matrix(0.05,0,0,0.05,5,0)" xlink:href="#bq"/><use transform="matrix(0.05,0,0,0.05,15,0)" xlink:href="#bi"/><use transform="matrix(0.05,0,0,0.05,25,0)" xlink:href="#bz"/><use transform="matrix(0.05,0,0,0.05,30,0)" xlink:href="#aZ"/><use transform="matrix(0.05,0,0,0.05,35,0)" xlink:href="#cd"/><use transform="matrix(0.05,0,0,0.05,47.95,0)" xlink:href="#bq"/><use transform="matrix(0.05,0,0,0.05,57.95,0)" xlink:href="#aX"/><use transform="matrix(0.05,0,0,0.05,66.95,0)" xlink:href="#bm"/><use transform="matrix(0.05,0,0,0.05,76.95,0)" xlink:href="#bk"/><use transform="matrix(0.05,0,0,0.05,91.9,0)" xlink:href="#bc"/><use transform="matrix(0.05,0,0,0.05,101.9,0)" xlink:href="#bd"/><use transform="matrix(0.05,0,0,0.05,111.9,0)" xlink:href="#aY"/></g><g id="af"><use transform="matrix(0.05,0,0,0.05,0,0)" xlink:href="#aW"/><use transform="matrix(0.05,0,0,0.05,10,0)" xlink:href="#aX"/><use transform="matrix(0.05,0,0,0.05,19,0)" xlink:href="#bi"/><use transform="matrix(0.05,0,0,0.05,29,0)" xlink:href="#aY"/><use transform="matrix(0.05,0,0,0.05,34,0)" xlink:href="#aZ"/><use transform="matrix(0.05,0,0,0.05,39,0)" xlink:href="#aY"/><use transform="matrix(0.05,0,0,0.05,44,0)" xlink:href="#bp"/><use transform="matrix(0.05,0,0,0.05,54,0)" xlink:href="#bc"/><use transform="matrix(0.05,0,0,0.05,64,0)" xlink:href="#bk"/><use transform="matrix(0.05,0,0,0.05,78.95,0)" xlink:href="#bc"/></g><g id="ag"><use transform="matrix(0.05,0,0,0.05,0,0)" xlink:href="#bt"/><use transform="matrix(0.05,0,0,0.05,5,0)" xlink:href="#bu"/><use transform="matrix(0.05,0,0,0.05,15,0)" xlink:href="#bx"/><use transform="matrix(0.05,0,0,0.05,20,0)" xlink:href="#bx"/><use transform="matrix(0.05,0,0,0.05,25,0)" xlink:href="#by"/><use transform="matrix(0.05,0,0,0.05,32,0)" xlink:href="#bv"/></g><path d="M140-251c81 0 123 46 123 126C263-53 228-8 163 1c7 30 30 48 69 40v23c-55 16-95-15-103-61C56-3 17-48 17-125c0-80 42-126 123-126zm0 227c63 0 89-41 89-101s-29-99-89-99c-61 0-89 39-89 99S79-25 140-24" id="ce"/><g id="ah"><use transform="matrix(0.05,0,0,0.05,0,0)" xlink:href="#bA"/><use transform="matrix(0.05,0,0,0.05,14,0)" xlink:href="#ca"/><use transform="matrix(0.05,0,0,0.05,26,0)" xlink:href="#ce"/></g><g id="ai"><use transform="matrix(0.05,0,0,0.05,0,0)" xlink:href="#cd"/><use transform="matrix(0.05,0,0,0.05,12.950000000000001,0)" xlink:href="#bi"/><use transform="matrix(0.05,0,0,0.05,22.950000000000003,0)" xlink:href="#aY"/><use transform="matrix(0.05,0,0,0.05,27.950000000000003,0)" xlink:href="#bi"/><use transform="matrix(0.05,0,0,0.05,37.95,0)" xlink:href="#bf"/><use transform="matrix(0.05,0,0,0.05,46.95,0)" xlink:href="#bc"/><use transform="matrix(0.05,0,0,0.05,56.95,0)" xlink:href="#aY"/></g><g id="aj"><use transform="matrix(0.05,0,0,0.05,0,0)" xlink:href="#bj"/><use transform="matrix(0.05,0,0,0.05,10.950000000000001,0)" xlink:href="#bp"/><use transform="matrix(0.05,0,0,0.05,20.950000000000003,0)" xlink:href="#bc"/><use transform="matrix(0.05,0,0,0.05,30.950000000000003,0)" xlink:href="#bk"/><use transform="matrix(0.05,0,0,0.05,45.900000000000006,0)" xlink:href="#bc"/></g><g id="ak"><use transform="matrix(0.05,0,0,0.05,0,0)" xlink:href="#aW"/><use transform="matrix(0.05,0,0,0.05,10,0)" xlink:href="#aX"/><use transform="matrix(0.05,0,0,0.05,19,0)" xlink:href="#bi"/><use transform="matrix(0.05,0,0,0.05,29,0)" xlink:href="#aY"/><use transform="matrix(0.05,0,0,0.05,34,0)" xlink:href="#aZ"/><use transform="matrix(0.05,0,0,0.05,39,0)" xlink:href="#cd"/><use transform="matrix(0.05,0,0,0.05,51.95,0)" xlink:href="#bh"/><use transform="matrix(0.05,0,0,0.05,55.900000000000006,0)" xlink:href="#bf"/><use transform="matrix(0.05,0,0,0.05,64.9,0)" xlink:href="#aY"/><use transform="matrix(0.05,0,0,0.05,69.9,0)" xlink:href="#bg"/><use transform="matrix(0.05,0,0,0.05,75.85000000000001,0)" xlink:href="#bh"/><use transform="matrix(0.05,0,0,0.05,79.80000000000001,0)" xlink:href="#bn"/><use transform="matrix(0.05,0,0,0.05,89.80000000000001,0)" xlink:href="#bm"/><use transform="matrix(0.05,0,0,0.05,99.80000000000001,0)" xlink:href="#aY"/><use transform="matrix(0.05,0,0,0.05,104.80000000000001,0)" xlink:href="#bh"/><use transform="matrix(0.05,0,0,0.05,108.75,0)" xlink:href="#bq"/><use transform="matrix(0.05,0,0,0.05,118.75,0)" xlink:href="#bd"/></g><g id="al"><use transform="matrix(0.05,0,0,0.05,0,0)" xlink:href="#aW"/><use transform="matrix(0.05,0,0,0.05,10,0)" xlink:href="#aX"/><use transform="matrix(0.05,0,0,0.05,19,0)" xlink:href="#bi"/><use transform="matrix(0.05,0,0,0.05,29,0)" xlink:href="#aY"/><use transform="matrix(0.05,0,0,0.05,34,0)" xlink:href="#aZ"/><use transform="matrix(0.05,0,0,0.05,39,0)" xlink:href="#aW"/><use transform="matrix(0.05,0,0,0.05,49,0)" xlink:href="#bh"/><use transform="matrix(0.05,0,0,0.05,52.95,0)" xlink:href="#bf"/><use transform="matrix(0.05,0,0,0.05,61.95,0)" xlink:href="#aY"/><use transform="matrix(0.05,0,0,0.05,66.95,0)" xlink:href="#bg"/><use transform="matrix(0.05,0,0,0.05,72.9,0)" xlink:href="#bh"/><use transform="matrix(0.05,0,0,0.05,76.85000000000001,0)" xlink:href="#bn"/><use transform="matrix(0.05,0,0,0.05,86.85000000000001,0)" xlink:href="#bm"/><use transform="matrix(0.05,0,0,0.05,96.85000000000001,0)" xlink:href="#aY"/><use transform="matrix(0.05,0,0,0.05,101.85000000000001,0)" xlink:href="#bh"/><use transform="matrix(0.05,0,0,0.05,105.80000000000001,0)" xlink:href="#bq"/><use transform="matrix(0.05,0,0,0.05,115.80000000000001,0)" xlink:href="#bd"/></g><path d="M232-93c-1 65-40 97-104 97C67 4 28-28 28-90v-158h33c8 89-33 224 67 224 102 0 64-133 71-224h33v155" id="cf"/><g id="am"><use transform="matrix(0.05,0,0,0.05,0,0)" xlink:href="#be"/><use transform="matrix(0.05,0,0,0.05,9,0)" xlink:href="#bf"/><use transform="matrix(0.05,0,0,0.05,18,0)" xlink:href="#aW"/><use transform="matrix(0.05,0,0,0.05,28,0)" xlink:href="#aZ"/><use transform="matrix(0.05,0,0,0.05,33,0)" xlink:href="#bi"/><use transform="matrix(0.05,0,0,0.05,43,0)" xlink:href="#bd"/><use transform="matrix(0.05,0,0,0.05,53,0)" xlink:href="#bs"/><use transform="matrix(0.05,0,0,0.05,62,0)" xlink:href="#cf"/><use transform="matrix(0.05,0,0,0.05,74.95,0)" xlink:href="#bI"/><use transform="matrix(0.05,0,0,0.05,87.9,0)" xlink:href="#cc"/></g><path d="M206 0h-36l-40-164L89 0H53L-1-190h32L70-26l43-164h34l41 164 42-164h31" id="cg"/><g id="an"><use transform="matrix(0.05,0,0,0.05,0,0)" xlink:href="#aW"/><use transform="matrix(0.05,0,0,0.05,10,0)" xlink:href="#aX"/><use transform="matrix(0.05,0,0,0.05,19,0)" xlink:href="#bi"/><use transform="matrix(0.05,0,0,0.05,29,0)" xlink:href="#aY"/><use transform="matrix(0.05,0,0,0.05,34,0)" xlink:href="#aZ"/><use transform="matrix(0.05,0,0,0.05,39,0)" xlink:href="#aW"/><use transform="matrix(0.05,0,0,0.05,49,0)" xlink:href="#bq"/><use transform="matrix(0.05,0,0,0.05,59,0)" xlink:href="#cg"/><use transform="matrix(0.05,0,0,0.05,71.95,0)" xlink:href="#bd"/><use transform="matrix(0.05,0,0,0.05,81.95,0)" xlink:href="#bo"/><use transform="matrix(0.05,0,0,0.05,85.9,0)" xlink:href="#bq"/><use transform="matrix(0.05,0,0,0.05,95.9,0)" xlink:href="#bi"/><use transform="matrix(0.05,0,0,0.05,105.9,0)" xlink:href="#aW"/><use transform="matrix(0.05,0,0,0.05,115.9,0)" xlink:href="#cf"/><use transform="matrix(0.05,0,0,0.05,128.85,0)" xlink:href="#bI"/><use transform="matrix(0.05,0,0,0.05,141.79999999999998,0)" xlink:href="#cc"/></g><g id="ao"><use transform="matrix(0.05,0,0,0.05,0,0)" xlink:href="#aW"/><use transform="matrix(0.05,0,0,0.05,10,0)" xlink:href="#aX"/><use transform="matrix(0.05,0,0,0.05,19,0)" xlink:href="#bi"/><use transform="matrix(0.05,0,0,0.05,29,0)" xlink:href="#aY"/><use transform="matrix(0.05,0,0,0.05,34,0)" xlink:href="#aZ"/><use transform="matrix(0.05,0,0,0.05,39,0)" xlink:href="#cd"/><use transform="matrix(0.05,0,0,0.05,51.95,0)" xlink:href="#bi"/><use transform="matrix(0.05,0,0,0.05,61.95,0)" xlink:href="#aY"/><use transform="matrix(0.05,0,0,0.05,66.95,0)" xlink:href="#bi"/><use transform="matrix(0.05,0,0,0.05,76.95,0)" xlink:href="#bf"/><use transform="matrix(0.05,0,0,0.05,85.95,0)" xlink:href="#bc"/><use transform="matrix(0.05,0,0,0.05,95.95,0)" xlink:href="#aY"/></g><g id="ap"><use transform="matrix(0.05,0,0,0.05,0,0)" xlink:href="#cb"/><use transform="matrix(0.05,0,0,0.05,12,0)" xlink:href="#bi"/><use transform="matrix(0.05,0,0,0.05,22,0)" xlink:href="#bg"/><use transform="matrix(0.05,0,0,0.05,27.950000000000003,0)" xlink:href="#aY"/><use transform="matrix(0.05,0,0,0.05,32.95,0)" xlink:href="#bp"/></g><g id="aq"><use transform="matrix(0.05,0,0,0.05,0,0)" xlink:href="#ca"/><use transform="matrix(0.05,0,0,0.05,12,0)" xlink:href="#aX"/><use transform="matrix(0.05,0,0,0.05,21,0)" xlink:href="#bh"/><use transform="matrix(0.05,0,0,0.05,24.95,0)" xlink:href="#bc"/><use transform="matrix(0.05,0,0,0.05,34.95,0)" xlink:href="#bd"/><use transform="matrix(0.05,0,0,0.05,44.95,0)" xlink:href="#aX"/><use transform="matrix(0.05,0,0,0.05,53.95,0)" xlink:href="#bc"/></g><g id="ar"><use transform="matrix(0.05,0,0,0.05,0,0)" xlink:href="#cd"/><use transform="matrix(0.05,0,0,0.05,12.950000000000001,0)" xlink:href="#bi"/><use transform="matrix(0.05,0,0,0.05,22.950000000000003,0)" xlink:href="#aY"/><use transform="matrix(0.05,0,0,0.05,27.950000000000003,0)" xlink:href="#bi"/></g><path d="M212-179c-10-28-35-45-73-45-59 0-87 40-87 99 0 60 29 101 89 101 43 0 62-24 78-52l27 14C228-24 195 4 139 4 59 4 22-46 18-125c-6-104 99-153 187-111 19 9 31 26 39 46" id="ch"/><g id="as"><use transform="matrix(0.05,0,0,0.05,0,0)" xlink:href="#ch"/><use transform="matrix(0.05,0,0,0.05,12.950000000000001,0)" xlink:href="#bi"/><use transform="matrix(0.05,0,0,0.05,22.950000000000003,0)" xlink:href="#aY"/><use transform="matrix(0.05,0,0,0.05,27.950000000000003,0)" xlink:href="#bc"/><use transform="matrix(0.05,0,0,0.05,37.95,0)" xlink:href="#bb"/><use transform="matrix(0.05,0,0,0.05,47.95,0)" xlink:href="#bq"/><use transform="matrix(0.05,0,0,0.05,57.95,0)" xlink:href="#bg"/><use transform="matrix(0.05,0,0,0.05,63.900000000000006,0)" xlink:href="#bs"/></g><g id="at"><use transform="matrix(0.05,0,0,0.05,0,0)" xlink:href="#bc"/><use transform="matrix(0.05,0,0,0.05,10,0)" xlink:href="#bi"/><use transform="matrix(0.05,0,0,0.05,20,0)" xlink:href="#bg"/><use transform="matrix(0.05,0,0,0.05,25.950000000000003,0)" xlink:href="#aY"/><use transform="matrix(0.05,0,0,0.05,30.950000000000003,0)" xlink:href="#bp"/></g><g id="au"><use transform="matrix(0.05,0,0,0.05,0,0)" xlink:href="#bf"/><use transform="matrix(0.05,0,0,0.05,9,0)" xlink:href="#aX"/><use transform="matrix(0.05,0,0,0.05,18,0)" xlink:href="#bh"/><use transform="matrix(0.05,0,0,0.05,21.95,0)" xlink:href="#bc"/><use transform="matrix(0.05,0,0,0.05,31.950000000000003,0)" xlink:href="#bd"/><use transform="matrix(0.05,0,0,0.05,41.95,0)" xlink:href="#aX"/><use transform="matrix(0.05,0,0,0.05,50.95,0)" xlink:href="#bc"/></g><path d="M143 0L79-87 56-68V0H24v-261h32v163l83-92h37l-77 82L181 0h-38" id="ci"/><g id="av"><use transform="matrix(0.05,0,0,0.05,0,0)" xlink:href="#bf"/><use transform="matrix(0.05,0,0,0.05,9,0)" xlink:href="#ci"/><use transform="matrix(0.05,0,0,0.05,18,0)" xlink:href="#bq"/><use transform="matrix(0.05,0,0,0.05,28,0)" xlink:href="#bf"/><use transform="matrix(0.05,0,0,0.05,37,0)" xlink:href="#aZ"/></g><g id="aw"><use transform="matrix(0.05,0,0,0.05,0,0)" xlink:href="#ch"/><use transform="matrix(0.05,0,0,0.05,12.950000000000001,0)" xlink:href="#bq"/><use transform="matrix(0.05,0,0,0.05,22.950000000000003,0)" xlink:href="#bd"/><use transform="matrix(0.05,0,0,0.05,32.95,0)" xlink:href="#aX"/><use transform="matrix(0.05,0,0,0.05,41.95,0)" xlink:href="#bc"/><use transform="matrix(0.05,0,0,0.05,51.95,0)" xlink:href="#bl"/><use transform="matrix(0.05,0,0,0.05,61.95,0)" xlink:href="#aY"/></g><path fill="#fff" d="M143 4C61 4 22-44 18-125c-5-107 100-154 193-111 17 8 29 25 37 43l-32 9c-13-25-37-40-76-40-61 0-88 39-88 99 0 61 29 100 91 101 35 0 62-11 79-27v-45h-74v-28h105v86C228-13 192 4 143 4" id="cj"/><path fill="#fff" d="M140-251c81 0 123 46 123 126C263-53 228-8 163 1c7 30 30 48 69 40v23c-55 16-95-15-103-61C56-3 17-48 17-125c0-80 42-126 123-126zm0 227c63 0 89-41 89-101s-29-99-89-99c-61 0-89 39-89 99S79-25 140-24" id="ck"/><g id="ax"><use transform="matrix(0.05,0,0,0.05,0,0)" xlink:href="#cj"/><use transform="matrix(0.05,0,0,0.05,14,0)" xlink:href="#bU"/><use transform="matrix(0.05,0,0,0.05,26,0)" xlink:href="#ck"/></g><path fill="#fff" d="M212-179c-10-28-35-45-73-45-59 0-87 40-87 99 0 60 29 101 89 101 43 0 62-24 78-52l27 14C228-24 195 4 139 4 59 4 22-46 18-125c-6-104 99-153 187-111 19 9 31 26 39 46" id="cl"/><path fill="#fff" d="M24 0v-261h32V0H24" id="cm"/><g id="ay"><use transform="matrix(0.05,0,0,0.05,0,0)" xlink:href="#cl"/><use transform="matrix(0.05,0,0,0.05,12.950000000000001,0)" xlink:href="#cm"/><use transform="matrix(0.05,0,0,0.05,16.900000000000002,0)" xlink:href="#bY"/><use transform="matrix(0.05,0,0,0.05,26.900000000000002,0)" xlink:href="#bL"/><use transform="matrix(0.05,0,0,0.05,35.900000000000006,0)" xlink:href="#bL"/></g><g id="az"><use transform="matrix(0.05,0,0,0.05,0,0)" xlink:href="#cd"/><use transform="matrix(0.05,0,0,0.05,12.950000000000001,0)" xlink:href="#bh"/><use transform="matrix(0.05,0,0,0.05,16.900000000000002,0)" xlink:href="#bi"/><use transform="matrix(0.05,0,0,0.05,26.900000000000002,0)" xlink:href="#bb"/><use transform="matrix(0.05,0,0,0.05,36.900000000000006,0)" xlink:href="#bg"/><use transform="matrix(0.05,0,0,0.05,42.85000000000001,0)" xlink:href="#bi"/><use transform="matrix(0.05,0,0,0.05,52.85,0)" xlink:href="#bk"/><path d="M-.9 1.25h74.6v1.32H-.9z"/></g><g id="aA"><use transform="matrix(0.05,0,0,0.05,0,0)" xlink:href="#cb"/><use transform="matrix(0.05,0,0,0.05,12,0)" xlink:href="#bo"/><use transform="matrix(0.05,0,0,0.05,15.949999999999998,0)" xlink:href="#bc"/><use transform="matrix(0.05,0,0,0.05,25.950000000000003,0)" xlink:href="#bk"/><use transform="matrix(0.05,0,0,0.05,40.9,0)" xlink:href="#bc"/><use transform="matrix(0.05,0,0,0.05,50.9,0)" xlink:href="#bd"/><use transform="matrix(0.05,0,0,0.05,60.900000000000006,0)" xlink:href="#aY"/><path d="M-.9 1.25h72.7v1.32H-.9z"/></g><path d="M194 0L95-120 63-95V0H30v-248h33v124l119-124h40L117-140 236 0h-42" id="cn"/><g id="aB"><use transform="matrix(0.05,0,0,0.05,0,0)" xlink:href="#cn"/><use transform="matrix(0.05,0,0,0.05,12,0)" xlink:href="#bc"/><use transform="matrix(0.05,0,0,0.05,22,0)" xlink:href="#bs"/><path d="M-.9 1.25h32.8v1.32H-.9z"/></g><g id="aC"><use transform="matrix(0.05,0,0,0.05,0,0)" xlink:href="#bq"/><use transform="matrix(0.05,0,0,0.05,10,0)" xlink:href="#cg"/><use transform="matrix(0.05,0,0,0.05,22.950000000000003,0)" xlink:href="#bo"/><use transform="matrix(0.05,0,0,0.05,26.900000000000002,0)" xlink:href="#aZ"/></g><g id="aD"><use transform="matrix(0.05,0,0,0.05,0,0)" xlink:href="#ch"/><use transform="matrix(0.05,0,0,0.05,12.950000000000001,0)" xlink:href="#bo"/><use transform="matrix(0.05,0,0,0.05,16.900000000000002,0)" xlink:href="#bi"/><use transform="matrix(0.05,0,0,0.05,26.900000000000002,0)" xlink:href="#bf"/><use transform="matrix(0.05,0,0,0.05,35.900000000000006,0)" xlink:href="#bf"/></g><g id="aE"><use transform="matrix(0.05,0,0,0.05,0,0)" xlink:href="#bg"/><use transform="matrix(0.05,0,0,0.05,5.95,0)" xlink:href="#aW"/><use transform="matrix(0.05,0,0,0.05,15.949999999999998,0)" xlink:href="#bz"/><use transform="matrix(0.05,0,0,0.05,20.95,0)" xlink:href="#aZ"/><use transform="matrix(0.05,0,0,0.05,25.950000000000003,0)" xlink:href="#bl"/><use transform="matrix(0.05,0,0,0.05,35.95,0)" xlink:href="#bg"/><use transform="matrix(0.05,0,0,0.05,41.900000000000006,0)" xlink:href="#bq"/><use transform="matrix(0.05,0,0,0.05,51.900000000000006,0)" xlink:href="#bl"/><use transform="matrix(0.05,0,0,0.05,61.900000000000006,0)" xlink:href="#bc"/><use transform="matrix(0.05,0,0,0.05,71.9,0)" xlink:href="#bg"/><use transform="matrix(0.05,0,0,0.05,77.85000000000001,0)" xlink:href="#aY"/><use transform="matrix(0.05,0,0,0.05,82.85000000000001,0)" xlink:href="#bs"/></g><g id="aF"><use transform="matrix(0.05,0,0,0.05,0,0)" xlink:href="#cc"/><use transform="matrix(0.05,0,0,0.05,10,0)" xlink:href="#bh"/><use transform="matrix(0.05,0,0,0.05,13.949999999999998,0)" xlink:href="#aY"/><use transform="matrix(0.05,0,0,0.05,18.95,0)" xlink:href="#bc"/><use transform="matrix(0.05,0,0,0.05,28.950000000000003,0)" xlink:href="#bg"/><use transform="matrix(0.05,0,0,0.05,34.9,0)" xlink:href="#bi"/><use transform="matrix(0.05,0,0,0.05,44.9,0)" xlink:href="#bo"/></g><g id="aG"><use transform="matrix(0.05,0,0,0.05,0,0)" xlink:href="#bg"/><use transform="matrix(0.05,0,0,0.05,5.95,0)" xlink:href="#aW"/><use transform="matrix(0.05,0,0,0.05,15.949999999999998,0)" xlink:href="#bz"/><use transform="matrix(0.05,0,0,0.05,20.95,0)" xlink:href="#bf"/><use transform="matrix(0.05,0,0,0.05,29.950000000000003,0)" xlink:href="#aZ"/><use transform="matrix(0.05,0,0,0.05,34.95,0)" xlink:href="#bf"/><use transform="matrix(0.05,0,0,0.05,43.95,0)" xlink:href="#bm"/><use transform="matrix(0.05,0,0,0.05,53.95,0)" xlink:href="#bn"/><use transform="matrix(0.05,0,0,0.05,63.95,0)" xlink:href="#ch"/><use transform="matrix(0.05,0,0,0.05,76.9,0)" xlink:href="#bo"/><use transform="matrix(0.05,0,0,0.05,80.85000000000001,0)" xlink:href="#bi"/><use transform="matrix(0.05,0,0,0.05,90.85000000000001,0)" xlink:href="#bf"/><use transform="matrix(0.05,0,0,0.05,99.85000000000001,0)" xlink:href="#bf"/><use transform="matrix(0.05,0,0,0.05,108.85000000000001,0)" xlink:href="#bZ"/><use transform="matrix(0.05,0,0,0.05,122.85000000000001,0)" xlink:href="#bz"/></g><g id="aH"><use transform="matrix(0.05,0,0,0.05,0,0)" xlink:href="#bf"/><use transform="matrix(0.05,0,0,0.05,9,0)" xlink:href="#bq"/><use transform="matrix(0.05,0,0,0.05,19,0)" xlink:href="#bf"/><use transform="matrix(0.05,0,0,0.05,28,0)" xlink:href="#bi"/><use transform="matrix(0.05,0,0,0.05,38,0)" xlink:href="#aZ"/></g><path d="M63-220v92h138v28H63V0H30v-248h175v28H63" id="co"/><g id="aI"><use transform="matrix(0.05,0,0,0.05,0,0)" xlink:href="#co"/><use transform="matrix(0.05,0,0,0.05,10.950000000000001,0)" xlink:href="#bc"/><use transform="matrix(0.05,0,0,0.05,20.950000000000003,0)" xlink:href="#bi"/><use transform="matrix(0.05,0,0,0.05,30.950000000000003,0)" xlink:href="#aY"/><use transform="matrix(0.05,0,0,0.05,35.95,0)" xlink:href="#bm"/><use transform="matrix(0.05,0,0,0.05,45.95,0)" xlink:href="#bg"/><use transform="matrix(0.05,0,0,0.05,51.900000000000006,0)" xlink:href="#bc"/><use transform="matrix(0.05,0,0,0.05,61.900000000000006,0)" xlink:href="#bZ"/><use transform="matrix(0.05,0,0,0.05,75.9,0)" xlink:href="#bz"/><use transform="matrix(0.05,0,0,0.05,80.9,0)" xlink:href="#bJ"/><use transform="matrix(0.05,0,0,0.05,85.9,0)" xlink:href="#bd"/><use transform="matrix(0.05,0,0,0.05,95.9,0)" xlink:href="#aY"/><use transform="matrix(0.05,0,0,0.05,100.9,0)" xlink:href="#bc"/><use transform="matrix(0.05,0,0,0.05,110.9,0)" xlink:href="#bg"/><use transform="matrix(0.05,0,0,0.05,116.85000000000001,0)" xlink:href="#bc"/><use transform="matrix(0.05,0,0,0.05,126.85000000000001,0)" xlink:href="#bf"/><use transform="matrix(0.05,0,0,0.05,135.85000000000002,0)" xlink:href="#aY"/></g><g id="aJ"><use transform="matrix(0.05,0,0,0.05,0,0)" xlink:href="#bp"/><use transform="matrix(0.05,0,0,0.05,10,0)" xlink:href="#bi"/><use transform="matrix(0.05,0,0,0.05,20,0)" xlink:href="#bf"/><use transform="matrix(0.05,0,0,0.05,29,0)" xlink:href="#co"/><use transform="matrix(0.05,0,0,0.05,39.95,0)" xlink:href="#bc"/><use transform="matrix(0.05,0,0,0.05,49.95,0)" xlink:href="#bi"/><use transform="matrix(0.05,0,0,0.05,59.95,0)" xlink:href="#aY"/><use transform="matrix(0.05,0,0,0.05,64.95,0)" xlink:href="#bm"/><use transform="matrix(0.05,0,0,0.05,74.95,0)" xlink:href="#bg"/><use transform="matrix(0.05,0,0,0.05,80.9,0)" xlink:href="#bc"/><use transform="matrix(0.05,0,0,0.05,90.9,0)" xlink:href="#bZ"/><use transform="matrix(0.05,0,0,0.05,104.9,0)" xlink:href="#bz"/><use transform="matrix(0.05,0,0,0.05,109.9,0)" xlink:href="#bJ"/><use transform="matrix(0.05,0,0,0.05,114.9,0)" xlink:href="#bd"/><use transform="matrix(0.05,0,0,0.05,124.9,0)" xlink:href="#aY"/><use transform="matrix(0.05,0,0,0.05,129.9,0)" xlink:href="#bc"/><use transform="matrix(0.05,0,0,0.05,139.9,0)" xlink:href="#bg"/><use transform="matrix(0.05,0,0,0.05,145.85,0)" xlink:href="#bc"/><use transform="matrix(0.05,0,0,0.05,155.85,0)" xlink:href="#bf"/><use transform="matrix(0.05,0,0,0.05,164.85,0)" xlink:href="#aY"/></g><linearGradient gradientUnits="userSpaceOnUse" id="aK" x1="1164.75" y1="760.94" x2="1164.75" y2="880.94"><stop offset="0%" stop-color="#fff"/><stop offset="20%" stop-color="#fff"/><stop offset="100%" stop-color="#dbdbdb"/></linearGradient><path d="M190 0L58-211 59 0H30v-248h39L202-35l-2-213h31V0h-41" id="cp"/><g id="aL"><use transform="matrix(0.05,0,0,0.05,0,0)" xlink:href="#cp"/><use transform="matrix(0.05,0,0,0.05,12.950000000000001,0)" xlink:href="#bq"/><use transform="matrix(0.05,0,0,0.05,22.950000000000003,0)" xlink:href="#aY"/></g><g id="aM"><use transform="matrix(0.05,0,0,0.05,0,0)" xlink:href="#bl"/><use transform="matrix(0.05,0,0,0.05,10,0)" xlink:href="#bi"/><use transform="matrix(0.05,0,0,0.05,20,0)" xlink:href="#bg"/><use transform="matrix(0.05,0,0,0.05,25.950000000000003,0)" xlink:href="#aY"/></g><g id="aN"><use transform="matrix(0.05,0,0,0.05,0,0)" xlink:href="#bq"/><use transform="matrix(0.05,0,0,0.05,10,0)" xlink:href="#bz"/></g><g id="aO"><use transform="matrix(0.05,0,0,0.05,0,0)" xlink:href="#aY"/><use transform="matrix(0.05,0,0,0.05,5,0)" xlink:href="#bp"/><use transform="matrix(0.05,0,0,0.05,15,0)" xlink:href="#bh"/><use transform="matrix(0.05,0,0,0.05,18.95,0)" xlink:href="#bf"/></g><g id="aP"><use transform="matrix(0.05,0,0,0.05,0,0)" xlink:href="#bl"/><use transform="matrix(0.05,0,0,0.05,10,0)" xlink:href="#bg"/><use transform="matrix(0.05,0,0,0.05,15.949999999999998,0)" xlink:href="#bq"/><use transform="matrix(0.05,0,0,0.05,25.950000000000003,0)" xlink:href="#bz"/><use transform="matrix(0.05,0,0,0.05,30.950000000000003,0)" xlink:href="#bh"/><use transform="matrix(0.05,0,0,0.05,34.9,0)" xlink:href="#bo"/><use transform="matrix(0.05,0,0,0.05,38.85,0)" xlink:href="#bc"/><use transform="matrix(0.05,0,0,0.05,48.85,0)" xlink:href="#aZ"/></g><g id="aQ"><use transform="matrix(0.05,0,0,0.05,0,0)" xlink:href="#bf"/><use transform="matrix(0.05,0,0,0.05,9,0)" xlink:href="#bp"/><use transform="matrix(0.05,0,0,0.05,19,0)" xlink:href="#bq"/><use transform="matrix(0.05,0,0,0.05,29,0)" xlink:href="#cg"/><use transform="matrix(0.05,0,0,0.05,41.95,0)" xlink:href="#bd"/></g><g id="aR"><use transform="matrix(0.05,0,0,0.05,0,0)" xlink:href="#bz"/><use transform="matrix(0.05,0,0,0.05,5,0)" xlink:href="#bq"/><use transform="matrix(0.05,0,0,0.05,15,0)" xlink:href="#bg"/></g><g id="aS"><use transform="matrix(0.05,0,0,0.05,0,0)" xlink:href="#aX"/><use transform="matrix(0.05,0,0,0.05,9,0)" xlink:href="#bq"/><use transform="matrix(0.05,0,0,0.05,19,0)" xlink:href="#bk"/><use transform="matrix(0.05,0,0,0.05,33.95,0)" xlink:href="#bl"/><use transform="matrix(0.05,0,0,0.05,43.95,0)" xlink:href="#bo"/><use transform="matrix(0.05,0,0,0.05,47.900000000000006,0)" xlink:href="#bc"/><use transform="matrix(0.05,0,0,0.05,57.900000000000006,0)" xlink:href="#aY"/><use transform="matrix(0.05,0,0,0.05,62.900000000000006,0)" xlink:href="#bc"/><use transform="matrix(0.05,0,0,0.05,72.9,0)" xlink:href="#bd"/><use transform="matrix(0.05,0,0,0.05,82.9,0)" xlink:href="#bc"/><use transform="matrix(0.05,0,0,0.05,92.9,0)" xlink:href="#bf"/><use transform="matrix(0.05,0,0,0.05,101.9,0)" xlink:href="#bf"/></g><g id="aT"><use transform="matrix(0.05,0,0,0.05,0,0)" xlink:href="#bq"/><use transform="matrix(0.05,0,0,0.05,10,0)" xlink:href="#bz"/></g><g id="aU"><use transform="matrix(0.05,0,0,0.05,0,0)" xlink:href="#bk"/><use transform="matrix(0.05,0,0,0.05,14.950000000000001,0)" xlink:href="#bq"/><use transform="matrix(0.05,0,0,0.05,24.950000000000003,0)" xlink:href="#aW"/><use transform="matrix(0.05,0,0,0.05,34.95,0)" xlink:href="#bc"/><use transform="matrix(0.05,0,0,0.05,44.95,0)" xlink:href="#bo"/></g><g id="aV"><use transform="matrix(0.05,0,0,0.05,0,0)" xlink:href="#bq"/><use transform="matrix(0.05,0,0,0.05,10,0)" xlink:href="#bd"/><use transform="matrix(0.05,0,0,0.05,20,0)" xlink:href="#bo"/><use transform="matrix(0.05,0,0,0.05,23.95,0)" xlink:href="#bs"/></g></defs></g></svg>