<svg xmlns="http://www.w3.org/2000/svg" xmlns:xlink="http://www.w3.org/1999/xlink" xmlns:lucid="lucid" width="1279" height="998"><g transform="translate(-14 -11)" lucid:page-tab-id="0_0"><path d="M0 0h1446.47v1023.3H0z" fill="#fff"/><path d="M904.75 567.9l80-45.85 80 45.84v74.15h-160z" stroke="#000" stroke-width="2" fill="#fff"/><use xlink:href="#a" transform="matrix(1,0,0,1,904.74721370758,522.0500731009308) translate(42 63.6)"/><path d="M904.75 242.37h160v40h-160z" stroke="#000" fill="#fff"/><use xlink:href="#b" transform="matrix(1,0,0,1,909.74721370758,247.37360685379002) translate(36.55 18.6)"/><path d="M904.75 380h160v40h-160z" stroke="#000" fill="#fff"/><use xlink:href="#c" transform="matrix(1,0,0,1,909.74721370758,385) translate(21.4 18.6)"/><path d="M902.43 580.45l-.74 1.86-46.5-18.4v-2.16zm-214.98-85.2v2.16l-85.94-34.05.75-1.86z"/><path d="M602.27 461.5l-.74 1.86-.58-.23v-2.16zM903.75 582.05l-21.43 3.4-.3-2 18.07-2.85-11.22-14.47 1.58-1.22z"/><use xlink:href="#d" transform="matrix(1,0,0,1,687.4503889518636,475.5711465134606) translate(32.95499999999999 14.4)"/><use xlink:href="#e" transform="matrix(1,0,0,1,687.4503889518636,475.5711465134606) translate(41.42999999999999 36)"/><use xlink:href="#f" transform="matrix(1,0,0,1,687.4503889518636,475.5711465134606) translate(14.905000000000001 57.6)"/><use xlink:href="#g" transform="matrix(1,0,0,1,687.4503889518636,475.5711465134606) translate(0.0049999999999954525 79.20000000000002)"/><use xlink:href="#h" transform="matrix(1,0,0,1,687.4503889518636,475.5711465134606) translate(41.92999999999999 100.80000000000001)"/><use xlink:href="#i" transform="matrix(1,0,0,1,687.4503889518636,475.5711465134606) translate(75.92999999999999 100.80000000000001)"/><path d="M187.8 549.56l-.66-1.9 77.8-26.77h6.15zm250.53-86.24l-104.5 35.97h-6.14l109.98-37.87z"/><path d="M438.95 463.1l-.65.23-.65-1.9 1.3-.44zM201.33 534l-11.87 13.93 17.94 3.68-.4 1.97-21.25-4.36 14.06-16.5z"/><use xlink:href="#j" transform="matrix(1,0,0,1,229.93906933479462,499.29073415719716) translate(0.0049999999999954525 14.4)"/><use xlink:href="#k" transform="matrix(1,0,0,1,229.93906933479462,499.29073415719716) translate(34.004999999999995 14.4)"/><use xlink:href="#l" transform="matrix(1,0,0,1,229.93906933479462,499.29073415719716) translate(95.005 14.4)"/><path d="M521.34 400.8l-1.63-1.14 98.87-140.18h2.45zm178.43-253l-63.52 90.08h-2.45l64.33-91.22z"/><path d="M521.36 400.8l-.2.25h-2.44l1-1.4zM698.26 167.37l-2-.16 1.48-18.24-16.7 7.5-.82-1.82 19.78-8.9z"/><use xlink:href="#m" transform="matrix(1,0,0,1,562.9833146844021,237.87738885719193) translate(0 14.4)"/><use xlink:href="#n" transform="matrix(1,0,0,1,562.9833146844021,237.87738885719193) translate(17.95 14.4)"/><use xlink:href="#o" transform="matrix(1,0,0,1,562.9833146844021,237.87738885719193) translate(69.85000000000001 14.4)"/><use xlink:href="#p" transform="matrix(1,0,0,1,562.9833146844021,237.87738885719193) translate(108.85000000000001 14.4)"/><path d="M187.77 686.7l-1.33-1.5 95.97-85.32h3.02zm251.1-223.24L309.7 578.28h-3l130.82-116.3z"/><path d="M438.95 463.4l-.1.08-1.33-1.5 1.43-1.27zM194.27 667.1l-5.6 17.45 17.98-3.5.4 1.96-21.3 4.16 6.6-20.66z"/><use xlink:href="#j" transform="matrix(1,0,0,1,233.14244832772016,578.2787509635582) translate(0 14.4)"/><use xlink:href="#q" transform="matrix(1,0,0,1,233.14244832772016,578.2787509635582) translate(34 14.4)"/><use xlink:href="#r" transform="matrix(1,0,0,1,233.14244832772016,578.2787509635582) translate(88.85 14.4)"/><path d="M602.33 462.34l-1.1-1.68 133.65-87.98h3.63zM903.28 264.2l-66.34 43.68h-3.64l68.88-45.34z"/><path d="M602.35 462.32l-1.4.93v-2.4l.3-.2zM894.72 281.86l-1.8-.88 8.05-16.45-18.3.9-.1-2 21.68-1.06z"/><use xlink:href="#s" transform="matrix(1,0,0,1,727.9828839537483,307.8818797957624) translate(29.480000000000004 14.4)"/><use xlink:href="#t" transform="matrix(1,0,0,1,727.9828839537483,307.8818797957624) translate(0.005000000000002558 36)"/><use xlink:href="#u" transform="matrix(1,0,0,1,727.9828839537483,307.8818797957624) translate(9.530000000000001 57.6)"/><path d="M735.93 435.46l-133.8 27.37-.4-1.96 134.2-27.45zm166.74-34.12l-69.9 14.3v-2.04l69.5-14.22z"/><path d="M602.15 462.82l-1.2.25v-2.04l.8-.17zM904.25 400l-16.08 14.56-1.34-1.48 13.57-12.3-17.3-5.96.64-1.9z"/><use xlink:href="#v" transform="matrix(1,0,0,1,735.9254200471632,392.1288651869307) translate(3.9550000000000054 14.4)"/><use xlink:href="#w" transform="matrix(1,0,0,1,735.9254200471632,392.1288651869307) translate(7.955000000000005 36)"/><use xlink:href="#x" transform="matrix(1,0,0,1,735.9254200471632,392.1288651869307) translate(0.005000000000002558 57.6)"/><path d="M105.75 840.13h-2v-35.5h2zm0-78.7h-2v-12.27h2z"/><path d="M105.75 749.2h-2v-1.04h2zM115.8 823.27l-11.05 18.67-11.04-18.67 1.73-1 9.32 15.75 9.32-15.76z"/><use xlink:href="#y" transform="matrix(1,0,0,1,23.872213707580016,761.4402857360415) translate(66.38 14.4)"/><use xlink:href="#z" transform="matrix(1,0,0,1,23.872213707580016,761.4402857360415) translate(0.0049999999999954525 36)"/><use xlink:href="#p" transform="matrix(1,0,0,1,23.872213707580016,761.4402857360415) translate(141.755 36)"/><path d="M24.75 632.16c0-2.76 2.24-5 5-5h150c2.76 0 5 2.24 5 5v110c0 2.76-2.24 5-5 5h-150c-2.76 0-5-2.24-5-5z" stroke="#000" stroke-width="2" fill="#666"/><use xlink:href="#A" transform="matrix(1,0,0,1,32.747213707580016,635.1600538550774) translate(46.075 55.6)"/><path d="M24.75 892.46c0-2.76 1.93-6.12 4.32-7.5l71.35-41.5c2.4-1.4 6.26-1.4 8.65 0l71.35 41.5c2.4 1.38 4.33 4.74 4.33 7.5v63.48c0 2.76-2.24 5-5 5h-150c-2.76 0-5-2.24-5-5z" stroke="#000" fill="url(#B)"/><use xlink:href="#C" transform="matrix(1,0,0,1,24.747213707580016,840.9428986102707) translate(60.025 52.8)"/><use xlink:href="#D" transform="matrix(1,0,0,1,24.747213707580016,840.9428986102707) translate(56.5 74.4)"/><path d="M620 29.75c0-2.76 2.24-5 5-5h150c2.76 0 5 2.24 5 5v110c0 2.76-2.24 5-5 5H625c-2.76 0-5-2.24-5-5z" stroke="#000" stroke-width="2" fill="#b2b2b2"/><use xlink:href="#E" transform="matrix(1,0,0,1,628,32.747213707580016) translate(29.049999999999997 34)"/><use xlink:href="#F" transform="matrix(1,0,0,1,628,32.747213707580016) translate(10.574999999999996 55.6)"/><use xlink:href="#G" transform="matrix(1,0,0,1,628,32.747213707580016) translate(79.525 55.6)"/><use xlink:href="#H" transform="matrix(1,0,0,1,628,32.747213707580016) translate(52.525 77.2)"/><path d="M439.95 407.05c0-2.76 2.24-5 5-5h150c2.76 0 5 2.24 5 5v110c0 2.76-2.24 5-5 5h-150c-2.76 0-5-2.24-5-5z" stroke="#000" stroke-width="2" fill="#666"/><use xlink:href="#I" transform="matrix(1,0,0,1,447.94721370758,410.0500731009308) translate(29.049999999999997 44.8)"/><use xlink:href="#J" transform="matrix(1,0,0,1,447.94721370758,410.0500731009308) translate(10.574999999999996 66.4)"/><use xlink:href="#K" transform="matrix(1,0,0,1,447.94721370758,410.0500731009308) translate(79.525 66.4)"/><path d="M24.75 494.2c0-2.75 2.24-5 5-5h150c2.76 0 5 2.25 5 5v110c0 2.77-2.24 5-5 5h-150c-2.76 0-5-2.23-5-5z" stroke="#000" stroke-width="2" fill="#b2b2b2"/><use xlink:href="#L" transform="matrix(1,0,0,1,32.747213707580016,497.21012695600825) translate(15.049999999999997 55.6)"/><use xlink:href="#M" transform="matrix(1,0,0,1,32.747213707580016,497.21012695600825) translate(78.05 55.6)"/><path d="M800.05 29.75c0-2.76 2.24-5 5-5h150c2.76 0 5 2.24 5 5v110c0 2.76-2.24 5-5 5h-150c-2.76 0-5-2.24-5-5z" stroke="#000" stroke-width="2" fill="#666"/><use xlink:href="#N" transform="matrix(1,0,0,1,808.05278629242,32.747213707580016) translate(44.025 34)"/><use xlink:href="#O" transform="matrix(1,0,0,1,808.05278629242,32.747213707580016) translate(64.025 55.6)"/><use xlink:href="#P" transform="matrix(1,0,0,1,808.05278629242,32.747213707580016) translate(23.549999999999997 77.2)"/><path d="M521.34 401.3l-1.16-1.64L774.4 219.43h3.46zm357.8-253.7l-70.82 50.23h-3.46L878 145.98z"/><path d="M521.2 401.05h-2.98l2-1.4zM871.2 165.55l-1.82-.8 7.47-16.73-18.25 1.5-.16-1.98 21.6-1.8z"/><use xlink:href="#Q" transform="matrix(1,0,0,1,679.9352832010027,197.82724492580755) translate(0 14.4)"/><use xlink:href="#R" transform="matrix(1,0,0,1,679.9352832010027,197.82724492580755) translate(182.85000000000002 14.4)"/><path d="M520.95 729.23h-2V694.8h2zm0-56.03h-2V523.05h2z"/><path d="M520.95 523.08h-2v-1.03h2zM519.95 727.12l9.32-15.76 1.72 1.02-11.05 18.67-11.04-18.67 1.73-1.02z"/><use xlink:href="#j" transform="matrix(1,0,0,1,417.57221370758,673.2) translate(0.0049999999999954525 14.4)"/><use xlink:href="#S" transform="matrix(1,0,0,1,417.57221370758,673.2) translate(34.004999999999995 14.4)"/><use xlink:href="#T" transform="matrix(1,0,0,1,417.57221370758,673.2) translate(109.855 14.4)"/><use xlink:href="#R" transform="matrix(1,0,0,1,417.57221370758,673.2) translate(164.755 14.4)"/><path d="M397.18 957.64l-1.3-1.53 30.86-25.94h3.1zm122.65-103.18l-64.3 54.1h-3.12l66.14-55.63z"/><path d="M519.8 854.48l-1.2-1.43h2.9zM404.2 938.24l-6.05 17.28 18.06-3 .34 1.96-21.4 3.57 7.18-20.47z"/><use xlink:href="#U" transform="matrix(1,0,0,1,368.60222013236864,908.5645950197849) translate(0.0049999999999954525 14.4)"/><path d="M315.15 958.55h160v40h-160z" stroke="#000" fill="#fff"/><use xlink:href="#c" transform="matrix(1,0,0,1,320.14650511590605,963.5500731008533) translate(21.4 18.6)"/><path d="M563.15 958.55h160v40h-160z" stroke="#000" fill="#fff"/><use xlink:href="#c" transform="matrix(1,0,0,1,568.1465051159059,963.5500731008533) translate(21.4 18.6)"/><path d="M642.4 956.1l-1.3 1.53-32.33-27.57h3.08zm-55.9-47.64h-3.08l-63.36-54 1.3-1.52z"/><path d="M520.08 854.48l-1.67-1.43h2.9zM643.15 958.05l-21.38-3.7.35-1.98 18.04 3.13-5.95-17.3 1.9-.66z"/><use xlink:href="#V" transform="matrix(1,0,0,1,528.0858819148219,908.4623870558721) translate(0.0049999999999954525 14.4)"/><path d="M341.84 730.33l-1.5-1.3 68.37-79h2.66zm178.2-205.87l-89.98 103.96h-2.65l91.14-105.27z"/><path d="M520.03 524.48l-1.5-1.3.1-.13h2.64zM345.73 710.06l-3.26 18.02 17.36-5.82.63 1.9-20.57 6.9 3.87-21.35z"/><use xlink:href="#W" transform="matrix(1,0,0,1,350.4596263266275,628.4216614776151) translate(0.0049999999999954525 14.4)"/><use xlink:href="#p" transform="matrix(1,0,0,1,350.4596263266275,628.4216614776151) translate(117.855 14.4)"/><path d="M259.9 737.05c0-2.76 2.23-5 5-5h150c2.76 0 5 2.24 5 5v110c0 2.76-2.24 5-5 5h-150c-2.77 0-5-2.24-5-5z" stroke="#000" stroke-width="2" fill="#fff"/><use xlink:href="#X" transform="matrix(1,0,0,1,267.89442741515995,740.0500731009308) translate(23.525 55.6)"/><path d="M439.95 737.05c0-2.76 2.24-5 5-5h150c2.76 0 5 2.24 5 5v110c0 2.76-2.24 5-5 5h-150c-2.76 0-5-2.24-5-5z" stroke="#000" stroke-width="2" fill="#fff"/><use xlink:href="#Y" transform="matrix(1,0,0,1,447.94721370758,740.0500731009308) translate(52.55 44.8)"/><use xlink:href="#Z" transform="matrix(1,0,0,1,447.94721370758,740.0500731009308) translate(15.599999999999994 66.4)"/><path d="M699.57 729.02l-1.52 1.3-69.24-79.98h2.65zm-86.8-100.28h-2.66l-90.25-104.28 1.5-1.3z"/><path d="M521.37 523.17l-1.5 1.3-1.25-1.42h2.65zM700 731.05l-20.57-6.9.64-1.9 17.36 5.83-3.27-18.02 1.97-.35z"/><use xlink:href="#aa" transform="matrix(1,0,0,1,548.8316400069716,628.7356943576369) translate(0.009999999999990905 14.4)"/><use xlink:href="#R" transform="matrix(1,0,0,1,548.8316400069716,628.7356943576369) translate(103.91 14.4)"/><path d="M620 737.05c0-2.76 2.24-5 5-5h150c2.76 0 5 2.24 5 5v110c0 2.76-2.24 5-5 5H625c-2.76 0-5-2.24-5-5z" stroke="#000" stroke-width="2" fill="#fff"/><use xlink:href="#ab" transform="matrix(1,0,0,1,628,740.0500731009308) translate(13.549999999999997 55.6)"/><path d="M438.16 460.87l-.4 1.96L334 442h10.17zm-201.7-40.46H226.3l-38.97-7.8.4-1.96z"/><path d="M438.95 461.03v2.04l-1.2-.24.4-1.96zM206.88 406l-17.28 6.03 13.62 12.24-1.34 1.5-16.13-14.5 20.47-7.16z"/><use xlink:href="#ac" transform="matrix(1,0,0,1,219.74847569167483,420.4143340105845) translate(0.0049999999999954525 14.4)"/><use xlink:href="#ad" transform="matrix(1,0,0,1,219.74847569167483,420.4143340105845) translate(93.955 14.4)"/><path d="M24.75 356.26c0-2.76 2.24-5 5-5h150c2.76 0 5 2.24 5 5v110c0 2.76-2.24 5-5 5h-150c-2.76 0-5-2.24-5-5z" stroke="#000" stroke-width="2" fill="#b2b2b2"/><use xlink:href="#ae" transform="matrix(1,0,0,1,32.747213707580016,359.260200056939) translate(18.525 44.8)"/><use xlink:href="#af" transform="matrix(1,0,0,1,32.747213707580016,359.260200056939) translate(63.525 44.8)"/><use xlink:href="#ag" transform="matrix(1,0,0,1,32.747213707580016,359.260200056939) translate(44.05 66.4)"/><path d="M800.05 737.05c0-2.76 2.24-5 5-5h150c2.76 0 5 2.24 5 5v110c0 2.76-2.24 5-5 5h-150c-2.76 0-5-2.24-5-5z" stroke="#000" stroke-width="2" fill="#fff"/><use xlink:href="#ah" transform="matrix(1,0,0,1,808.0527862924199,740.0500731009308) translate(7.625 55.6)"/><path d="M878.98 729.27l-1 1.74-47.3-27.3h4zm-81.7-47.18h-4L520.3 524.4l1-1.74z"/><path d="M520.34 524.43l-2.4-1.38h3.2zM880.05 731.05h-21.7v-1.78l18.3-.2-8.98-15.94 1.74-.98z"/><use xlink:href="#ai" transform="matrix(1,0,0,1,751.079576872642,682.0856329878139) translate(0.005000000000002558 14.4)"/><path d="M800.05 920.94h160v40h-160z" stroke="#000" fill="#fff"/><use xlink:href="#aj" transform="matrix(1,0,0,1,805.0527862924199,925.942898610232) translate(26.049999999999997 18.6)"/><path d="M881.05 918.62h-2v-25.45h2zm0-47.05h-2v-17.52h2z"/><path d="M881.05 854.08h-2v-1.03h2zM891.1 901.77l-11.05 18.67L869 901.77l1.73-1.02 9.32 15.76 9.32-15.75z"/><use xlink:href="#ak" transform="matrix(1,0,0,1,804.1527862924199,871.5689859148553) translate(0 14.4)"/><path d="M24.75 225c0-2.76 2.24-5 5-5h150c2.76 0 5 2.24 5 5v110c0 2.76-2.24 5-5 5h-150c-2.76 0-5-2.24-5-5z" stroke="#000" stroke-width="2" fill="#fff"/><use xlink:href="#al" transform="matrix(1,0,0,1,32.747213707580045,228) translate(21.525 55.6)"/><path d="M438.72 460.65l-1.17 1.63L200.2 291.6l1.15-1.6z"/><path d="M438.95 460.82v2.46l-1.42-1.02 1.17-1.62z"/><path d="M202.66 286.45l-5.4 7.53-8.9-12.1z" fill="#fff"/><path d="M204.28 285.92l-7.02 9.76-11.5-15.68zm-7.04 6.36l3.8-5.3-10.04-3.2z"/><path d="M259.9 29.75c0-2.76 2.23-5 5-5h150c2.76 0 5 2.24 5 5v110c0 2.76-2.24 5-5 5h-150c-2.77 0-5-2.24-5-5z" stroke="#000" stroke-width="2" fill="#b2b2b2"/><use xlink:href="#am" transform="matrix(1,0,0,1,267.89442741515995,32.747213707580016) translate(16.049999999999997 44.8)"/><use xlink:href="#an" transform="matrix(1,0,0,1,267.89442741515995,32.747213707580016) translate(64 44.8)"/><use xlink:href="#ao" transform="matrix(1,0,0,1,267.89442741515995,32.747213707580016) translate(14.074999999999996 66.4)"/><use xlink:href="#ap" transform="matrix(1,0,0,1,267.89442741515995,32.747213707580016) translate(57.025 66.4)"/><path d="M520.2 399.66l-1.65 1.15L418 258.23h2.44zm-115-163.04h-2.44l-62.63-88.8 1.63-1.16z"/><path d="M521.17 401.05h-2.45l-.18-.26 1.63-1.16zM359.68 154.64l-.82 1.83-16.7-7.5 1.47 18.24-2 .17-1.74-21.62z"/><g><use xlink:href="#j" transform="matrix(1,0,0,1,320.1524218784863,236.62437408274542) translate(0 14.4)"/><use xlink:href="#aq" transform="matrix(1,0,0,1,320.1524218784863,236.62437408274542) translate(34 14.4)"/><use xlink:href="#ar" transform="matrix(1,0,0,1,320.1524218784863,236.62437408274542) translate(79.95 14.4)"/><use xlink:href="#r" transform="matrix(1,0,0,1,320.1524218784863,236.62437408274542) translate(145.9 14.4)"/></g><path d="M1115.7 785.3h100.5M1115.72 785.3h-1.02" stroke="#000" stroke-width="2" fill="none"/><path d="M1231.46 785.3l-14.27 4.64v-9.27z" stroke="#000" stroke-width="2" fill="#fff"/><path d="M1100 385c0-2.76 2.24-5 5-5h150c2.76 0 5 2.24 5 5v110c0 2.76-2.24 5-5 5h-150c-2.76 0-5-2.24-5-5z" stroke="#000" stroke-width="2" fill="#b2b2b2"/><g><use xlink:href="#as" transform="matrix(1,0,0,1,1108,388) translate(51 44.8)"/><use xlink:href="#at" transform="matrix(1,0,0,1,1108,388) translate(38.525 66.4)"/></g><path d="M1100 245c0-2.76 2.24-5 5-5h150c2.76 0 5 2.24 5 5v110c0 2.76-2.24 5-5 5h-150c-2.76 0-5-2.24-5-5z" stroke="#000" stroke-width="2" fill="#666"/><g><use xlink:href="#au" transform="matrix(1,0,0,1,1108,248) translate(27.049999999999997 55.6)"/><use xlink:href="#av" transform="matrix(1,0,0,1,1108,248) translate(72.05 55.6)"/></g><path d="M1100 45c0-2.76 2.24-5 5-5h190c2.76 0 5 2.24 5 5v50c0 2.76-2.24 5-5 5h-190c-2.76 0-5-2.24-5-5z" stroke="#000" stroke-opacity="0" stroke-width="2" fill="#fff" fill-opacity="0"/><g><use xlink:href="#aw" transform="matrix(1,0,0,1,1105,45) translate(0 28.6)"/><use xlink:href="#ax" transform="matrix(1,0,0,1,1105,45) translate(72.80000000000001 28.6)"/><use xlink:href="#ay" transform="matrix(1,0,0,1,1105,45) translate(143.70000000000002 28.6)"/></g><path d="M1100 102.33c0-2.76 2.24-5 5-5h150c2.76 0 5 2.24 5 5v110c0 2.76-2.24 5-5 5h-150c-2.76 0-5-2.24-5-5z" stroke="#000" stroke-width="2" fill="#fff"/><g><use xlink:href="#az" transform="matrix(1,0,0,1,1108,105.33333333333337) translate(56.05 44.8)"/><use xlink:href="#aA" transform="matrix(1,0,0,1,1108,105.33333333333337) translate(49.55 66.4)"/></g><path d="M1114.7 730.3c0-2.76 2.24-5 5-5h110c2.76 0 5 2.24 5 5v30c0 2.76-2.24 5-5 5h-110c-2.76 0-5-2.24-5-5z" stroke="#000" stroke-opacity="0" stroke-width="2" fill="#fff" fill-opacity="0"/><g><use xlink:href="#aB" transform="matrix(1,0,0,1,1119.69643029295,730.3035697070496) translate(0 22.799999999999997)"/></g><path d="M1100 520h160v40h-160z" stroke="#000" fill="#fff"/><g><use xlink:href="#aC" transform="matrix(1,0,0,1,1105,525) translate(50.575 18.6)"/></g><path d="M1115.7 725.3h107.18M1115.72 725.3h-1.02M1205.52 735.48l17.2-10.18-17.2-10.18" stroke="#000" stroke-width="2" fill="none"/><path d="M1114.7 790.3c0-2.76 2.24-5 5-5h150c2.76 0 5 2.24 5 5v30c0 2.76-2.24 5-5 5h-150c-2.76 0-5-2.24-5-5z" stroke="#000" stroke-opacity="0" stroke-width="2" fill="#fff" fill-opacity="0"/><g><use xlink:href="#aD" transform="matrix(1,0,0,1,1119.69643029295,790.3035697070496) translate(0 22.799999999999997)"/></g><path d="M439.95 29.75c0-2.76 2.24-5 5-5h150c2.76 0 5 2.24 5 5v110c0 2.76-2.24 5-5 5h-150c-2.76 0-5-2.24-5-5z" stroke="#000" stroke-width="2" fill="#b2b2b2"/><g><use xlink:href="#aE" transform="matrix(1,0,0,1,447.94721370758,32.747213707580016) translate(0.07499999999998863 55.6)"/><use xlink:href="#aF" transform="matrix(1,0,0,1,447.94721370758,32.747213707580016) translate(87.975 55.6)"/></g><path d="M520.95 400.05h-2V220.27h2zm0-222.98h-2v-29.5h2z"/><path d="M520.95 401.05h-2v-1.03h2zM531 164.42l-1.73 1.02-9.32-15.76-9.32 15.76-1.72-1.02 11.05-18.67z"/><g><use xlink:href="#aG" transform="matrix(1,0,0,1,428.02221370757997,177.0666666666667) translate(77.43 14.4)"/><use xlink:href="#aH" transform="matrix(1,0,0,1,428.02221370757997,177.0666666666667) translate(0.0049999999999954525 36)"/><use xlink:href="#aI" transform="matrix(1,0,0,1,428.02221370757997,177.0666666666667) translate(85.905 36)"/><use xlink:href="#r" transform="matrix(1,0,0,1,428.02221370757997,177.0666666666667) translate(146.85500000000002 36)"/></g><path d="M1100 585c0-2.76 2.24-5 5-5h150c2.76 0 5 2.24 5 5v110c0 2.76-2.24 5-5 5h-150c-2.76 0-5-2.24-5-5z" stroke="#000" fill="url(#aJ)"/><g><use xlink:href="#aK" transform="matrix(1,0,0,1,1108,588) translate(13.574999999999996 23.19999999999999)"/><use xlink:href="#aL" transform="matrix(1,0,0,1,1108,588) translate(46.525 23.19999999999999)"/><use xlink:href="#aM" transform="matrix(1,0,0,1,1108,588) translate(82.475 23.19999999999999)"/><use xlink:href="#aN" transform="matrix(1,0,0,1,1108,588) translate(102.475 23.19999999999999)"/><use xlink:href="#aO" transform="matrix(1,0,0,1,1108,588) translate(3.625 44.79999999999999)"/><use xlink:href="#aP" transform="matrix(1,0,0,1,1108,588) translate(62.475 44.79999999999999)"/><use xlink:href="#aQ" transform="matrix(1,0,0,1,1108,588) translate(119.42500000000001 44.79999999999999)"/><use xlink:href="#aR" transform="matrix(1,0,0,1,1108,588) translate(6.549999999999997 66.39999999999999)"/><use xlink:href="#aS" transform="matrix(1,0,0,1,1108,588) translate(122.45 66.39999999999999)"/><use xlink:href="#aT" transform="matrix(1,0,0,1,1108,588) translate(28.574999999999996 88)"/><use xlink:href="#aU" transform="matrix(1,0,0,1,1108,588) translate(82.475 88)"/></g><path d="M79.84 29.75c0-2.76 2.24-5 5-5h150c2.76 0 5 2.24 5 5v110c0 2.76-2.24 5-5 5h-150c-2.76 0-5-2.24-5-5z" stroke="#000" stroke-width="2" fill="#b2b2b2"/><g><use xlink:href="#aV" transform="matrix(1,0,0,1,87.84164112273993,32.747213707580016) translate(26.599999999999994 55.6)"/></g><path d="M320.15 258.18v.04h.07l199.5 141.44-1.17 1.63-278.57-197.5h3.45zm-107.18-76h-3.46l-48.75-34.57 1.15-1.62z"/><path d="M521.68 401.05h-3l1-1.4zM181.46 147.54l-.17 2-18.25-1.52 7.46 16.72-1.8.8-8.86-19.8z"/><g><use xlink:href="#j" transform="matrix(1,0,0,1,145.0471635698729,182.18603531625743) translate(0 14.4)"/><use xlink:href="#aW" transform="matrix(1,0,0,1,145.0471635698729,182.18603531625743) translate(34 14.4)"/><use xlink:href="#r" transform="matrix(1,0,0,1,145.0471635698729,182.18603531625743) translate(125.85000000000001 14.4)"/></g><defs><path d="M85-194c31 0 48 13 60 33l-1-100h32l1 261h-30c-2-10 0-23-3-31C134-8 116 4 85 4 32 4 16-35 15-94c0-66 23-100 70-100zm9 24c-40 0-46 34-46 75 0 40 6 74 45 74 42 0 51-32 51-76 0-42-9-74-50-73" id="aX"/><path d="M96-169c-40 0-48 33-48 73s9 75 48 75c24 0 41-14 43-38l32 2c-6 37-31 61-74 61-59 0-76-41-82-99-10-93 101-131 147-64 4 7 5 14 7 22l-32 3c-4-21-16-35-41-35" id="aY"/><path d="M59-47c-2 24 18 29 38 22v24C64 9 27 4 27-40v-127H5v-23h24l9-43h21v43h35v23H59v120" id="aZ"/><path d="M33-154v-36h34v36H33zM33 0v-36h34V0H33" id="ba"/><path d="M205 0l-28-72H64L36 0H1l101-248h38L239 0h-34zm-38-99l-47-123c-12 45-31 82-46 123h93" id="bb"/><path d="M177-190C167-65 218 103 67 71c-23-6-38-20-44-43l32-5c15 47 100 32 89-28v-30C133-14 115 1 83 1 29 1 15-40 15-95c0-56 16-97 71-98 29-1 48 16 59 35 1-10 0-23 2-32h30zM94-22c36 0 50-32 50-73 0-42-14-75-50-75-39 0-46 34-46 75s6 73 46 73" id="bc"/><path d="M100-194c63 0 86 42 84 106H49c0 40 14 67 53 68 26 1 43-12 49-29l28 8c-11 28-37 45-77 45C44 4 14-33 15-96c1-61 26-98 85-98zm52 81c6-60-76-77-97-28-3 7-6 17-6 28h103" id="bd"/><path d="M117-194c89-4 53 116 60 194h-32v-121c0-31-8-49-39-48C34-167 62-67 57 0H25l-1-190h30c1 10-1 24 2 32 11-22 29-35 61-36" id="be"/><g id="a"><use transform="matrix(0.05,0,0,0.05,0,0)" xlink:href="#aX"/><use transform="matrix(0.05,0,0,0.05,10,0)" xlink:href="#aY"/><use transform="matrix(0.05,0,0,0.05,19,0)" xlink:href="#aZ"/><use transform="matrix(0.05,0,0,0.05,24,0)" xlink:href="#ba"/><use transform="matrix(0.05,0,0,0.05,29,0)" xlink:href="#bb"/><use transform="matrix(0.05,0,0,0.05,41,0)" xlink:href="#bc"/><use transform="matrix(0.05,0,0,0.05,51,0)" xlink:href="#bd"/><use transform="matrix(0.05,0,0,0.05,61,0)" xlink:href="#be"/><use transform="matrix(0.05,0,0,0.05,71,0)" xlink:href="#aZ"/></g><path d="M141 0L90-78 38 0H4l68-98-65-92h35l48 74 47-74h35l-64 92 68 98h-35" id="bf"/><path d="M135-143c-3-34-86-38-87 0 15 53 115 12 119 90S17 21 10-45l28-5c4 36 97 45 98 0-10-56-113-15-118-90-4-57 82-63 122-42 12 7 21 19 24 35" id="bg"/><path d="M114-163C36-179 61-72 57 0H25l-1-190h30c1 12-1 29 2 39 6-27 23-49 58-41v29" id="bh"/><path d="M24-231v-30h32v30H24zM24 0v-190h32V0H24" id="bi"/><g id="b"><use transform="matrix(0.05,0,0,0.05,0,0)" xlink:href="#bf"/><use transform="matrix(0.05,0,0,0.05,9,0)" xlink:href="#bg"/><use transform="matrix(0.05,0,0,0.05,18,0)" xlink:href="#aX"/><use transform="matrix(0.05,0,0,0.05,28,0)" xlink:href="#ba"/><use transform="matrix(0.05,0,0,0.05,33,0)" xlink:href="#bg"/><use transform="matrix(0.05,0,0,0.05,42,0)" xlink:href="#aZ"/><use transform="matrix(0.05,0,0,0.05,47,0)" xlink:href="#bh"/><use transform="matrix(0.05,0,0,0.05,52.95,0)" xlink:href="#bi"/><use transform="matrix(0.05,0,0,0.05,56.900000000000006,0)" xlink:href="#be"/><use transform="matrix(0.05,0,0,0.05,66.9,0)" xlink:href="#bc"/></g><path d="M141-36C126-15 110 5 73 4 37 3 15-17 15-53c-1-64 63-63 125-63 3-35-9-54-41-54-24 1-41 7-42 31l-33-3c5-37 33-52 76-52 45 0 72 20 72 64v82c-1 20 7 32 28 27v20c-31 9-61-2-59-35zM48-53c0 20 12 33 32 33 41-3 63-29 60-74-43 2-92-5-92 41" id="bj"/><path d="M127-220V0H93v-220H8v-28h204v28h-85" id="bk"/><path d="M210-169c-67 3-38 105-44 169h-31v-121c0-29-5-50-35-48C34-165 62-65 56 0H25l-1-190h30c1 10-1 24 2 32 10-44 99-50 107 0 11-21 27-35 58-36 85-2 47 119 55 194h-31v-121c0-29-5-49-35-48" id="bl"/><g id="c"><use transform="matrix(0.05,0,0,0.05,0,0)" xlink:href="#bf"/><use transform="matrix(0.05,0,0,0.05,9,0)" xlink:href="#bg"/><use transform="matrix(0.05,0,0,0.05,18,0)" xlink:href="#aX"/><use transform="matrix(0.05,0,0,0.05,28,0)" xlink:href="#ba"/><use transform="matrix(0.05,0,0,0.05,33,0)" xlink:href="#aX"/><use transform="matrix(0.05,0,0,0.05,43,0)" xlink:href="#bj"/><use transform="matrix(0.05,0,0,0.05,53,0)" xlink:href="#aZ"/><use transform="matrix(0.05,0,0,0.05,58,0)" xlink:href="#bd"/><use transform="matrix(0.05,0,0,0.05,68,0)" xlink:href="#bk"/><use transform="matrix(0.05,0,0,0.05,78.3,0)" xlink:href="#bi"/><use transform="matrix(0.05,0,0,0.05,82.25,0)" xlink:href="#bl"/><use transform="matrix(0.05,0,0,0.05,97.2,0)" xlink:href="#bd"/></g><path d="M115-194c55 1 70 41 70 98S169 2 115 4C84 4 66-9 55-30l1 105H24l-1-265h31l2 30c10-21 28-34 59-34zm-8 174c40 0 45-34 45-75s-6-73-45-74c-42 0-51 32-51 76 0 43 10 73 51 73" id="bm"/><path d="M84 4C-5 8 30-112 23-190h32v120c0 31 7 50 39 49 72-2 45-101 50-169h31l1 190h-30c-1-10 1-25-2-33-11 22-28 36-60 37" id="bn"/><path d="M115-194c53 0 69 39 70 98 0 66-23 100-70 100C84 3 66-7 56-30L54 0H23l1-261h32v101c10-23 28-34 59-34zm-8 174c40 0 45-34 45-75 0-40-5-75-45-74-42 0-51 32-51 76 0 43 10 73 51 73" id="bo"/><path d="M24 0v-261h32V0H24" id="bp"/><path d="M106-169C34-169 62-67 57 0H25v-261h32l-1 103c12-21 28-36 61-36 89 0 53 116 60 194h-32v-121c2-32-8-49-39-48" id="bq"/><g id="d"><use transform="matrix(0.05,0,0,0.05,0,0)" xlink:href="#aX"/><use transform="matrix(0.05,0,0,0.05,10,0)" xlink:href="#aY"/><use transform="matrix(0.05,0,0,0.05,19,0)" xlink:href="#aZ"/><use transform="matrix(0.05,0,0,0.05,24,0)" xlink:href="#ba"/><use transform="matrix(0.05,0,0,0.05,29,0)" xlink:href="#bm"/><use transform="matrix(0.05,0,0,0.05,39,0)" xlink:href="#bn"/><use transform="matrix(0.05,0,0,0.05,49,0)" xlink:href="#bo"/><use transform="matrix(0.05,0,0,0.05,59,0)" xlink:href="#bp"/><use transform="matrix(0.05,0,0,0.05,62.95,0)" xlink:href="#bi"/><use transform="matrix(0.05,0,0,0.05,66.9,0)" xlink:href="#bg"/><use transform="matrix(0.05,0,0,0.05,75.9,0)" xlink:href="#bq"/><use transform="matrix(0.05,0,0,0.05,85.9,0)" xlink:href="#bd"/><use transform="matrix(0.05,0,0,0.05,95.9,0)" xlink:href="#bh"/></g><path d="M100-194c62-1 85 37 85 99 1 63-27 99-86 99S16-35 15-95c0-66 28-99 85-99zM99-20c44 1 53-31 53-75 0-43-8-75-51-75s-53 32-53 75 10 74 51 75" id="br"/><g id="e"><use transform="matrix(0.05,0,0,0.05,0,0)" xlink:href="#aX"/><use transform="matrix(0.05,0,0,0.05,10,0)" xlink:href="#aY"/><use transform="matrix(0.05,0,0,0.05,19,0)" xlink:href="#aZ"/><use transform="matrix(0.05,0,0,0.05,24,0)" xlink:href="#ba"/><use transform="matrix(0.05,0,0,0.05,29,0)" xlink:href="#aY"/><use transform="matrix(0.05,0,0,0.05,38,0)" xlink:href="#bh"/><use transform="matrix(0.05,0,0,0.05,43.95,0)" xlink:href="#bd"/><use transform="matrix(0.05,0,0,0.05,53.95,0)" xlink:href="#bj"/><use transform="matrix(0.05,0,0,0.05,63.95,0)" xlink:href="#aZ"/><use transform="matrix(0.05,0,0,0.05,68.95,0)" xlink:href="#br"/><use transform="matrix(0.05,0,0,0.05,78.95,0)" xlink:href="#bh"/></g><path d="M30-248c87 1 191-15 191 75 0 78-77 80-158 76V0H30v-248zm33 125c57 0 124 11 124-50 0-59-68-47-124-48v98" id="bs"/><g id="f"><use transform="matrix(0.05,0,0,0.05,0,0)" xlink:href="#aX"/><use transform="matrix(0.05,0,0,0.05,10,0)" xlink:href="#aY"/><use transform="matrix(0.05,0,0,0.05,19,0)" xlink:href="#bj"/><use transform="matrix(0.05,0,0,0.05,29,0)" xlink:href="#aZ"/><use transform="matrix(0.05,0,0,0.05,34,0)" xlink:href="#ba"/><use transform="matrix(0.05,0,0,0.05,39,0)" xlink:href="#aY"/><use transform="matrix(0.05,0,0,0.05,48,0)" xlink:href="#br"/><use transform="matrix(0.05,0,0,0.05,58,0)" xlink:href="#be"/><use transform="matrix(0.05,0,0,0.05,68,0)" xlink:href="#aZ"/><use transform="matrix(0.05,0,0,0.05,73,0)" xlink:href="#bj"/><use transform="matrix(0.05,0,0,0.05,83,0)" xlink:href="#aY"/><use transform="matrix(0.05,0,0,0.05,92,0)" xlink:href="#aZ"/><use transform="matrix(0.05,0,0,0.05,97,0)" xlink:href="#bs"/><use transform="matrix(0.05,0,0,0.05,109,0)" xlink:href="#br"/><use transform="matrix(0.05,0,0,0.05,119,0)" xlink:href="#bi"/><use transform="matrix(0.05,0,0,0.05,122.95,0)" xlink:href="#be"/><use transform="matrix(0.05,0,0,0.05,132.95,0)" xlink:href="#aZ"/></g><path d="M108 0H70L1-190h34L89-25l56-165h34" id="bt"/><path d="M206 0h-36l-40-164L89 0H53L-1-190h32L70-26l43-164h34l41 164 42-164h31" id="bu"/><g id="g"><use transform="matrix(0.05,0,0,0.05,0,0)" xlink:href="#bm"/><use transform="matrix(0.05,0,0,0.05,10,0)" xlink:href="#bh"/><use transform="matrix(0.05,0,0,0.05,15.949999999999998,0)" xlink:href="#br"/><use transform="matrix(0.05,0,0,0.05,25.950000000000003,0)" xlink:href="#bt"/><use transform="matrix(0.05,0,0,0.05,34.95,0)" xlink:href="#ba"/><use transform="matrix(0.05,0,0,0.05,39.95,0)" xlink:href="#bu"/><use transform="matrix(0.05,0,0,0.05,52.900000000000006,0)" xlink:href="#bj"/><use transform="matrix(0.05,0,0,0.05,62.900000000000006,0)" xlink:href="#bg"/><use transform="matrix(0.05,0,0,0.05,71.9,0)" xlink:href="#bb"/><use transform="matrix(0.05,0,0,0.05,83.9,0)" xlink:href="#aZ"/><use transform="matrix(0.05,0,0,0.05,88.9,0)" xlink:href="#aZ"/><use transform="matrix(0.05,0,0,0.05,93.9,0)" xlink:href="#bh"/><use transform="matrix(0.05,0,0,0.05,99.85000000000001,0)" xlink:href="#bi"/><use transform="matrix(0.05,0,0,0.05,103.80000000000001,0)" xlink:href="#bo"/><use transform="matrix(0.05,0,0,0.05,113.80000000000001,0)" xlink:href="#bn"/><use transform="matrix(0.05,0,0,0.05,123.80000000000001,0)" xlink:href="#aZ"/><use transform="matrix(0.05,0,0,0.05,128.8,0)" xlink:href="#bd"/><use transform="matrix(0.05,0,0,0.05,138.8,0)" xlink:href="#aX"/><use transform="matrix(0.05,0,0,0.05,148.8,0)" xlink:href="#bk"/><use transform="matrix(0.05,0,0,0.05,157.75,0)" xlink:href="#br"/></g><g id="h"><use transform="matrix(0.05,0,0,0.05,0,0)" xlink:href="#bq"/><use transform="matrix(0.05,0,0,0.05,10,0)" xlink:href="#bj"/><use transform="matrix(0.05,0,0,0.05,20,0)" xlink:href="#bg"/></g><g id="i"><use transform="matrix(0.05,0,0,0.05,0,0)" xlink:href="#bp"/><use transform="matrix(0.05,0,0,0.05,3.95,0)" xlink:href="#br"/><use transform="matrix(0.05,0,0,0.05,13.949999999999998,0)" xlink:href="#aX"/><use transform="matrix(0.05,0,0,0.05,23.95,0)" xlink:href="#bc"/><use transform="matrix(0.05,0,0,0.05,33.95,0)" xlink:href="#bd"/><use transform="matrix(0.05,0,0,0.05,43.95,0)" xlink:href="#bh"/></g><g id="j"><use transform="matrix(0.05,0,0,0.05,0,0)" xlink:href="#bq"/><use transform="matrix(0.05,0,0,0.05,10,0)" xlink:href="#bj"/><use transform="matrix(0.05,0,0,0.05,20,0)" xlink:href="#bg"/></g><g id="k"><use transform="matrix(0.05,0,0,0.05,0,0)" xlink:href="#bj"/><use transform="matrix(0.05,0,0,0.05,10,0)" xlink:href="#aY"/><use transform="matrix(0.05,0,0,0.05,19,0)" xlink:href="#aY"/><use transform="matrix(0.05,0,0,0.05,28,0)" xlink:href="#bd"/><use transform="matrix(0.05,0,0,0.05,38,0)" xlink:href="#bg"/><use transform="matrix(0.05,0,0,0.05,47,0)" xlink:href="#bg"/></g><g id="l"><use transform="matrix(0.05,0,0,0.05,0,0)" xlink:href="#bh"/><use transform="matrix(0.05,0,0,0.05,5.95,0)" xlink:href="#bi"/><use transform="matrix(0.05,0,0,0.05,9.9,0)" xlink:href="#bc"/><use transform="matrix(0.05,0,0,0.05,19.9,0)" xlink:href="#bq"/><use transform="matrix(0.05,0,0,0.05,29.899999999999995,0)" xlink:href="#aZ"/><use transform="matrix(0.05,0,0,0.05,34.9,0)" xlink:href="#bg"/></g><g id="m"><use transform="matrix(0.05,0,0,0.05,0,0)" xlink:href="#bi"/><use transform="matrix(0.05,0,0,0.05,3.95,0)" xlink:href="#bg"/></g><g id="n"><use transform="matrix(0.05,0,0,0.05,0,0)" xlink:href="#bh"/><use transform="matrix(0.05,0,0,0.05,5.95,0)" xlink:href="#bd"/><use transform="matrix(0.05,0,0,0.05,15.949999999999998,0)" xlink:href="#bm"/><use transform="matrix(0.05,0,0,0.05,25.950000000000003,0)" xlink:href="#br"/><use transform="matrix(0.05,0,0,0.05,35.95,0)" xlink:href="#bh"/><use transform="matrix(0.05,0,0,0.05,41.900000000000006,0)" xlink:href="#aZ"/></g><path d="M179-190L93 31C79 59 56 82 12 73V49c39 6 53-20 64-50L1-190h34L92-34l54-156h33" id="bv"/><g id="o"><use transform="matrix(0.05,0,0,0.05,0,0)" xlink:href="#aZ"/><use transform="matrix(0.05,0,0,0.05,5,0)" xlink:href="#bv"/><use transform="matrix(0.05,0,0,0.05,14,0)" xlink:href="#bm"/><use transform="matrix(0.05,0,0,0.05,24,0)" xlink:href="#bd"/></g><path d="M26 75v-336h71v23H56V52h41v23H26" id="bw"/><path d="M27 0v-27h64v-190l-56 39v-29l58-41h29v221h61V0H27" id="bx"/><path d="M3 75V52h41v-290H3v-23h71V75H3" id="by"/><g id="p"><use transform="matrix(0.05,0,0,0.05,0,0)" xlink:href="#bw"/><use transform="matrix(0.05,0,0,0.05,5,0)" xlink:href="#bx"/><use transform="matrix(0.05,0,0,0.05,15,0)" xlink:href="#by"/></g><g id="q"><use transform="matrix(0.05,0,0,0.05,0,0)" xlink:href="#bm"/><use transform="matrix(0.05,0,0,0.05,10,0)" xlink:href="#bd"/><use transform="matrix(0.05,0,0,0.05,20,0)" xlink:href="#bh"/><use transform="matrix(0.05,0,0,0.05,25.950000000000003,0)" xlink:href="#bl"/><use transform="matrix(0.05,0,0,0.05,40.9,0)" xlink:href="#bi"/><use transform="matrix(0.05,0,0,0.05,44.85,0)" xlink:href="#aZ"/></g><path d="M101-251c68 0 85 55 85 127S166 4 100 4C33 4 14-52 14-124c0-73 17-127 87-127zm-1 229c47 0 54-49 54-102s-4-102-53-102c-51 0-55 48-55 102 0 53 5 102 54 102" id="bz"/><path d="M33 0v-38h34V0H33" id="bA"/><path d="M80-196l47-18 7 23-49 13 32 44-20 13-27-46-27 45-21-12 33-44-49-13 8-23 47 19-2-53h23" id="bB"/><g id="r"><use transform="matrix(0.05,0,0,0.05,0,0)" xlink:href="#bw"/><use transform="matrix(0.05,0,0,0.05,5,0)" xlink:href="#bz"/><use transform="matrix(0.05,0,0,0.05,15,0)" xlink:href="#bA"/><use transform="matrix(0.05,0,0,0.05,20,0)" xlink:href="#bA"/><use transform="matrix(0.05,0,0,0.05,25,0)" xlink:href="#bB"/><use transform="matrix(0.05,0,0,0.05,32,0)" xlink:href="#by"/></g><g id="s"><use transform="matrix(0.05,0,0,0.05,0,0)" xlink:href="#aX"/><use transform="matrix(0.05,0,0,0.05,10,0)" xlink:href="#aY"/><use transform="matrix(0.05,0,0,0.05,19,0)" xlink:href="#aZ"/><use transform="matrix(0.05,0,0,0.05,24,0)" xlink:href="#ba"/><use transform="matrix(0.05,0,0,0.05,29,0)" xlink:href="#aZ"/><use transform="matrix(0.05,0,0,0.05,34,0)" xlink:href="#bi"/><use transform="matrix(0.05,0,0,0.05,37.95,0)" xlink:href="#aZ"/><use transform="matrix(0.05,0,0,0.05,42.95,0)" xlink:href="#bp"/><use transform="matrix(0.05,0,0,0.05,46.900000000000006,0)" xlink:href="#bd"/></g><g id="t"><use transform="matrix(0.05,0,0,0.05,0,0)" xlink:href="#aX"/><use transform="matrix(0.05,0,0,0.05,10,0)" xlink:href="#aY"/><use transform="matrix(0.05,0,0,0.05,19,0)" xlink:href="#aZ"/><use transform="matrix(0.05,0,0,0.05,24,0)" xlink:href="#ba"/><use transform="matrix(0.05,0,0,0.05,29,0)" xlink:href="#aX"/><use transform="matrix(0.05,0,0,0.05,39,0)" xlink:href="#bd"/><use transform="matrix(0.05,0,0,0.05,49,0)" xlink:href="#bg"/><use transform="matrix(0.05,0,0,0.05,58,0)" xlink:href="#aY"/><use transform="matrix(0.05,0,0,0.05,67,0)" xlink:href="#bh"/><use transform="matrix(0.05,0,0,0.05,72.95,0)" xlink:href="#bi"/><use transform="matrix(0.05,0,0,0.05,76.9,0)" xlink:href="#bm"/><use transform="matrix(0.05,0,0,0.05,86.9,0)" xlink:href="#aZ"/><use transform="matrix(0.05,0,0,0.05,91.9,0)" xlink:href="#bi"/><use transform="matrix(0.05,0,0,0.05,95.85000000000001,0)" xlink:href="#br"/><use transform="matrix(0.05,0,0,0.05,105.85000000000001,0)" xlink:href="#be"/></g><path d="M101-234c-31-9-42 10-38 44h38v23H63V0H32v-167H5v-23h27c-7-52 17-82 69-68v24" id="bC"/><g id="u"><use transform="matrix(0.05,0,0,0.05,0,0)" xlink:href="#aX"/><use transform="matrix(0.05,0,0,0.05,10,0)" xlink:href="#aY"/><use transform="matrix(0.05,0,0,0.05,19,0)" xlink:href="#aZ"/><use transform="matrix(0.05,0,0,0.05,24,0)" xlink:href="#ba"/><use transform="matrix(0.05,0,0,0.05,29,0)" xlink:href="#bi"/><use transform="matrix(0.05,0,0,0.05,32.95,0)" xlink:href="#aX"/><use transform="matrix(0.05,0,0,0.05,42.95,0)" xlink:href="#bd"/><use transform="matrix(0.05,0,0,0.05,52.95,0)" xlink:href="#be"/><use transform="matrix(0.05,0,0,0.05,62.95,0)" xlink:href="#aZ"/><use transform="matrix(0.05,0,0,0.05,67.95,0)" xlink:href="#bi"/><use transform="matrix(0.05,0,0,0.05,71.9,0)" xlink:href="#bC"/><use transform="matrix(0.05,0,0,0.05,76.9,0)" xlink:href="#bi"/><use transform="matrix(0.05,0,0,0.05,80.85000000000001,0)" xlink:href="#bd"/><use transform="matrix(0.05,0,0,0.05,90.85000000000001,0)" xlink:href="#bh"/></g><g id="v"><use transform="matrix(0.05,0,0,0.05,0,0)" xlink:href="#aX"/><use transform="matrix(0.05,0,0,0.05,10,0)" xlink:href="#aY"/><use transform="matrix(0.05,0,0,0.05,19,0)" xlink:href="#aZ"/><use transform="matrix(0.05,0,0,0.05,24,0)" xlink:href="#ba"/><use transform="matrix(0.05,0,0,0.05,29,0)" xlink:href="#aY"/><use transform="matrix(0.05,0,0,0.05,38,0)" xlink:href="#bh"/><use transform="matrix(0.05,0,0,0.05,43.95,0)" xlink:href="#bd"/><use transform="matrix(0.05,0,0,0.05,53.95,0)" xlink:href="#bj"/><use transform="matrix(0.05,0,0,0.05,63.95,0)" xlink:href="#aZ"/><use transform="matrix(0.05,0,0,0.05,68.95,0)" xlink:href="#bd"/><use transform="matrix(0.05,0,0,0.05,78.95,0)" xlink:href="#aX"/></g><g id="w"><use transform="matrix(0.05,0,0,0.05,0,0)" xlink:href="#aX"/><use transform="matrix(0.05,0,0,0.05,10,0)" xlink:href="#aY"/><use transform="matrix(0.05,0,0,0.05,19,0)" xlink:href="#aZ"/><use transform="matrix(0.05,0,0,0.05,24,0)" xlink:href="#ba"/><use transform="matrix(0.05,0,0,0.05,29,0)" xlink:href="#bi"/><use transform="matrix(0.05,0,0,0.05,32.95,0)" xlink:href="#bg"/><use transform="matrix(0.05,0,0,0.05,41.95,0)" xlink:href="#bg"/><use transform="matrix(0.05,0,0,0.05,50.95,0)" xlink:href="#bn"/><use transform="matrix(0.05,0,0,0.05,60.95,0)" xlink:href="#bd"/><use transform="matrix(0.05,0,0,0.05,70.95,0)" xlink:href="#aX"/></g><g id="x"><use transform="matrix(0.05,0,0,0.05,0,0)" xlink:href="#aX"/><use transform="matrix(0.05,0,0,0.05,10,0)" xlink:href="#aY"/><use transform="matrix(0.05,0,0,0.05,19,0)" xlink:href="#aZ"/><use transform="matrix(0.05,0,0,0.05,24,0)" xlink:href="#ba"/><use transform="matrix(0.05,0,0,0.05,29,0)" xlink:href="#bl"/><use transform="matrix(0.05,0,0,0.05,43.95,0)" xlink:href="#br"/><use transform="matrix(0.05,0,0,0.05,53.95,0)" xlink:href="#aX"/><use transform="matrix(0.05,0,0,0.05,63.95,0)" xlink:href="#bi"/><use transform="matrix(0.05,0,0,0.05,67.9,0)" xlink:href="#bC"/><use transform="matrix(0.05,0,0,0.05,72.9,0)" xlink:href="#bi"/><use transform="matrix(0.05,0,0,0.05,76.85000000000001,0)" xlink:href="#bd"/><use transform="matrix(0.05,0,0,0.05,86.85000000000001,0)" xlink:href="#aX"/></g><g id="y"><use transform="matrix(0.05,0,0,0.05,0,0)" xlink:href="#bq"/><use transform="matrix(0.05,0,0,0.05,10,0)" xlink:href="#bj"/><use transform="matrix(0.05,0,0,0.05,20,0)" xlink:href="#bg"/></g><path d="M197 0v-115H63V0H30v-248h33v105h134v-105h34V0h-34" id="bD"/><g id="z"><use transform="matrix(0.05,0,0,0.05,0,0)" xlink:href="#bj"/><use transform="matrix(0.05,0,0,0.05,10,0)" xlink:href="#bn"/><use transform="matrix(0.05,0,0,0.05,20,0)" xlink:href="#aZ"/><use transform="matrix(0.05,0,0,0.05,25,0)" xlink:href="#bq"/><use transform="matrix(0.05,0,0,0.05,35,0)" xlink:href="#br"/><use transform="matrix(0.05,0,0,0.05,45,0)" xlink:href="#bh"/><use transform="matrix(0.05,0,0,0.05,50.95,0)" xlink:href="#bi"/><use transform="matrix(0.05,0,0,0.05,54.900000000000006,0)" xlink:href="#bg"/><use transform="matrix(0.05,0,0,0.05,63.900000000000006,0)" xlink:href="#bd"/><use transform="matrix(0.05,0,0,0.05,73.9,0)" xlink:href="#aX"/><use transform="matrix(0.05,0,0,0.05,83.9,0)" xlink:href="#bD"/><use transform="matrix(0.05,0,0,0.05,96.85000000000001,0)" xlink:href="#br"/><use transform="matrix(0.05,0,0,0.05,106.85000000000001,0)" xlink:href="#bp"/><use transform="matrix(0.05,0,0,0.05,110.80000000000001,0)" xlink:href="#aX"/><use transform="matrix(0.05,0,0,0.05,120.80000000000001,0)" xlink:href="#bd"/><use transform="matrix(0.05,0,0,0.05,130.8,0)" xlink:href="#bh"/></g><path fill="#fff" d="M30-248c87 1 191-15 191 75 0 78-77 80-158 76V0H30v-248zm33 125c57 0 124 11 124-50 0-59-68-47-124-48v98" id="bE"/><path fill="#fff" d="M100-194c63 0 86 42 84 106H49c0 40 14 67 53 68 26 1 43-12 49-29l28 8c-11 28-37 45-77 45C44 4 14-33 15-96c1-61 26-98 85-98zm52 81c6-60-76-77-97-28-3 7-6 17-6 28h103" id="bF"/><path fill="#fff" d="M114-163C36-179 61-72 57 0H25l-1-190h30c1 12-1 29 2 39 6-27 23-49 58-41v29" id="bG"/><path fill="#fff" d="M210-169c-67 3-38 105-44 169h-31v-121c0-29-5-50-35-48C34-165 62-65 56 0H25l-1-190h30c1 10-1 24 2 32 10-44 99-50 107 0 11-21 27-35 58-36 85-2 47 119 55 194h-31v-121c0-29-5-49-35-48" id="bH"/><path fill="#fff" d="M24-231v-30h32v30H24zM24 0v-190h32V0H24" id="bI"/><path fill="#fff" d="M59-47c-2 24 18 29 38 22v24C64 9 27 4 27-40v-127H5v-23h24l9-43h21v43h35v23H59v120" id="bJ"/><g id="A"><use transform="matrix(0.05,0,0,0.05,0,0)" xlink:href="#bE"/><use transform="matrix(0.05,0,0,0.05,12,0)" xlink:href="#bF"/><use transform="matrix(0.05,0,0,0.05,22,0)" xlink:href="#bG"/><use transform="matrix(0.05,0,0,0.05,27.950000000000003,0)" xlink:href="#bH"/><use transform="matrix(0.05,0,0,0.05,42.9,0)" xlink:href="#bI"/><use transform="matrix(0.05,0,0,0.05,46.85,0)" xlink:href="#bJ"/></g><linearGradient gradientUnits="userSpaceOnUse" id="B" x1="24.75" y1="840.94" x2="24.75" y2="960.94"><stop offset="0%" stop-color="#fff"/><stop offset="20%" stop-color="#fff"/><stop offset="100%" stop-color="#dbdbdb"/></linearGradient><g id="C"><use transform="matrix(0.05,0,0,0.05,0,0)" xlink:href="#bm"/><use transform="matrix(0.05,0,0,0.05,10,0)" xlink:href="#bh"/><use transform="matrix(0.05,0,0,0.05,15.949999999999998,0)" xlink:href="#br"/><use transform="matrix(0.05,0,0,0.05,25.950000000000003,0)" xlink:href="#bt"/><use transform="matrix(0.05,0,0,0.05,34.95,0)" xlink:href="#ba"/></g><g id="D"><use transform="matrix(0.05,0,0,0.05,0,0)" xlink:href="#bb"/><use transform="matrix(0.05,0,0,0.05,12,0)" xlink:href="#bc"/><use transform="matrix(0.05,0,0,0.05,22,0)" xlink:href="#bd"/><use transform="matrix(0.05,0,0,0.05,32,0)" xlink:href="#be"/><use transform="matrix(0.05,0,0,0.05,42,0)" xlink:href="#aZ"/></g><path d="M233-177c-1 41-23 64-60 70L243 0h-38l-65-103H63V0H30v-248c88 3 205-21 203 71zM63-129c60-2 137 13 137-47 0-61-80-42-137-45v92" id="bK"/><g id="E"><use transform="matrix(0.05,0,0,0.05,0,0)" xlink:href="#bK"/><use transform="matrix(0.05,0,0,0.05,12.950000000000001,0)" xlink:href="#bd"/><use transform="matrix(0.05,0,0,0.05,22.950000000000003,0)" xlink:href="#bg"/><use transform="matrix(0.05,0,0,0.05,31.950000000000003,0)" xlink:href="#br"/><use transform="matrix(0.05,0,0,0.05,41.95,0)" xlink:href="#bn"/><use transform="matrix(0.05,0,0,0.05,51.95,0)" xlink:href="#bh"/><use transform="matrix(0.05,0,0,0.05,57.900000000000006,0)" xlink:href="#aY"/><use transform="matrix(0.05,0,0,0.05,66.9,0)" xlink:href="#bd"/><use transform="matrix(0.05,0,0,0.05,76.9,0)" xlink:href="#bg"/></g><path d="M33 0v-248h34V0H33" id="bL"/><g id="F"><use transform="matrix(0.05,0,0,0.05,0,0)" xlink:href="#bL"/><use transform="matrix(0.05,0,0,0.05,5,0)" xlink:href="#be"/><use transform="matrix(0.05,0,0,0.05,15,0)" xlink:href="#aX"/><use transform="matrix(0.05,0,0,0.05,25,0)" xlink:href="#bn"/><use transform="matrix(0.05,0,0,0.05,35,0)" xlink:href="#bg"/><use transform="matrix(0.05,0,0,0.05,44,0)" xlink:href="#aZ"/><use transform="matrix(0.05,0,0,0.05,49,0)" xlink:href="#bh"/><use transform="matrix(0.05,0,0,0.05,54.95,0)" xlink:href="#bv"/></g><g id="G"><use transform="matrix(0.05,0,0,0.05,0,0)" xlink:href="#bK"/><use transform="matrix(0.05,0,0,0.05,12.950000000000001,0)" xlink:href="#bd"/><use transform="matrix(0.05,0,0,0.05,22.950000000000003,0)" xlink:href="#bm"/><use transform="matrix(0.05,0,0,0.05,32.95,0)" xlink:href="#br"/><use transform="matrix(0.05,0,0,0.05,42.95,0)" xlink:href="#bh"/><use transform="matrix(0.05,0,0,0.05,48.900000000000006,0)" xlink:href="#aZ"/></g><g id="H"><use transform="matrix(0.05,0,0,0.05,0,0)" xlink:href="#bk"/><use transform="matrix(0.05,0,0,0.05,9.950000000000001,0)" xlink:href="#bv"/><use transform="matrix(0.05,0,0,0.05,18.950000000000003,0)" xlink:href="#bm"/><use transform="matrix(0.05,0,0,0.05,28.950000000000003,0)" xlink:href="#bd"/></g><path fill="#fff" d="M233-177c-1 41-23 64-60 70L243 0h-38l-65-103H63V0H30v-248c88 3 205-21 203 71zM63-129c60-2 137 13 137-47 0-61-80-42-137-45v92" id="bM"/><path fill="#fff" d="M135-143c-3-34-86-38-87 0 15 53 115 12 119 90S17 21 10-45l28-5c4 36 97 45 98 0-10-56-113-15-118-90-4-57 82-63 122-42 12 7 21 19 24 35" id="bN"/><path fill="#fff" d="M100-194c62-1 85 37 85 99 1 63-27 99-86 99S16-35 15-95c0-66 28-99 85-99zM99-20c44 1 53-31 53-75 0-43-8-75-51-75s-53 32-53 75 10 74 51 75" id="bO"/><path fill="#fff" d="M84 4C-5 8 30-112 23-190h32v120c0 31 7 50 39 49 72-2 45-101 50-169h31l1 190h-30c-1-10 1-25-2-33-11 22-28 36-60 37" id="bP"/><path fill="#fff" d="M96-169c-40 0-48 33-48 73s9 75 48 75c24 0 41-14 43-38l32 2c-6 37-31 61-74 61-59 0-76-41-82-99-10-93 101-131 147-64 4 7 5 14 7 22l-32 3c-4-21-16-35-41-35" id="bQ"/><g id="I"><use transform="matrix(0.05,0,0,0.05,0,0)" xlink:href="#bM"/><use transform="matrix(0.05,0,0,0.05,12.950000000000001,0)" xlink:href="#bF"/><use transform="matrix(0.05,0,0,0.05,22.950000000000003,0)" xlink:href="#bN"/><use transform="matrix(0.05,0,0,0.05,31.950000000000003,0)" xlink:href="#bO"/><use transform="matrix(0.05,0,0,0.05,41.95,0)" xlink:href="#bP"/><use transform="matrix(0.05,0,0,0.05,51.95,0)" xlink:href="#bG"/><use transform="matrix(0.05,0,0,0.05,57.900000000000006,0)" xlink:href="#bQ"/><use transform="matrix(0.05,0,0,0.05,66.9,0)" xlink:href="#bF"/><use transform="matrix(0.05,0,0,0.05,76.9,0)" xlink:href="#bN"/></g><path fill="#fff" d="M33 0v-248h34V0H33" id="bR"/><path fill="#fff" d="M117-194c89-4 53 116 60 194h-32v-121c0-31-8-49-39-48C34-167 62-67 57 0H25l-1-190h30c1 10-1 24 2 32 11-22 29-35 61-36" id="bS"/><path fill="#fff" d="M85-194c31 0 48 13 60 33l-1-100h32l1 261h-30c-2-10 0-23-3-31C134-8 116 4 85 4 32 4 16-35 15-94c0-66 23-100 70-100zm9 24c-40 0-46 34-46 75 0 40 6 74 45 74 42 0 51-32 51-76 0-42-9-74-50-73" id="bT"/><path fill="#fff" d="M179-190L93 31C79 59 56 82 12 73V49c39 6 53-20 64-50L1-190h34L92-34l54-156h33" id="bU"/><g id="J"><use transform="matrix(0.05,0,0,0.05,0,0)" xlink:href="#bR"/><use transform="matrix(0.05,0,0,0.05,5,0)" xlink:href="#bS"/><use transform="matrix(0.05,0,0,0.05,15,0)" xlink:href="#bT"/><use transform="matrix(0.05,0,0,0.05,25,0)" xlink:href="#bP"/><use transform="matrix(0.05,0,0,0.05,35,0)" xlink:href="#bN"/><use transform="matrix(0.05,0,0,0.05,44,0)" xlink:href="#bJ"/><use transform="matrix(0.05,0,0,0.05,49,0)" xlink:href="#bG"/><use transform="matrix(0.05,0,0,0.05,54.95,0)" xlink:href="#bU"/></g><path fill="#fff" d="M115-194c55 1 70 41 70 98S169 2 115 4C84 4 66-9 55-30l1 105H24l-1-265h31l2 30c10-21 28-34 59-34zm-8 174c40 0 45-34 45-75s-6-73-45-74c-42 0-51 32-51 76 0 43 10 73 51 73" id="bV"/><g id="K"><use transform="matrix(0.05,0,0,0.05,0,0)" xlink:href="#bM"/><use transform="matrix(0.05,0,0,0.05,12.950000000000001,0)" xlink:href="#bF"/><use transform="matrix(0.05,0,0,0.05,22.950000000000003,0)" xlink:href="#bV"/><use transform="matrix(0.05,0,0,0.05,32.95,0)" xlink:href="#bO"/><use transform="matrix(0.05,0,0,0.05,42.95,0)" xlink:href="#bG"/><use transform="matrix(0.05,0,0,0.05,48.900000000000006,0)" xlink:href="#bJ"/></g><g id="L"><use transform="matrix(0.05,0,0,0.05,0,0)" xlink:href="#bb"/><use transform="matrix(0.05,0,0,0.05,12,0)" xlink:href="#aY"/><use transform="matrix(0.05,0,0,0.05,21,0)" xlink:href="#aY"/><use transform="matrix(0.05,0,0,0.05,30,0)" xlink:href="#bd"/><use transform="matrix(0.05,0,0,0.05,40,0)" xlink:href="#bg"/><use transform="matrix(0.05,0,0,0.05,49,0)" xlink:href="#bg"/></g><g id="M"><use transform="matrix(0.05,0,0,0.05,0,0)" xlink:href="#bK"/><use transform="matrix(0.05,0,0,0.05,12.950000000000001,0)" xlink:href="#bi"/><use transform="matrix(0.05,0,0,0.05,16.900000000000002,0)" xlink:href="#bc"/><use transform="matrix(0.05,0,0,0.05,26.900000000000002,0)" xlink:href="#bq"/><use transform="matrix(0.05,0,0,0.05,36.900000000000006,0)" xlink:href="#aZ"/><use transform="matrix(0.05,0,0,0.05,41.900000000000006,0)" xlink:href="#bg"/></g><path fill="#fff" d="M185-189c-5-48-123-54-124 2 14 75 158 14 163 119 3 78-121 87-175 55-17-10-28-26-33-46l33-7c5 56 141 63 141-1 0-78-155-14-162-118-5-82 145-84 179-34 5 7 8 16 11 25" id="bW"/><path fill="#fff" d="M108 0H70L1-190h34L89-25l56-165h34" id="bX"/><g id="N"><use transform="matrix(0.05,0,0,0.05,0,0)" xlink:href="#bW"/><use transform="matrix(0.05,0,0,0.05,12,0)" xlink:href="#bP"/><use transform="matrix(0.05,0,0,0.05,22,0)" xlink:href="#bG"/><use transform="matrix(0.05,0,0,0.05,27.950000000000003,0)" xlink:href="#bX"/><use transform="matrix(0.05,0,0,0.05,36.95,0)" xlink:href="#bF"/><use transform="matrix(0.05,0,0,0.05,46.95,0)" xlink:href="#bU"/></g><g id="O"><use transform="matrix(0.05,0,0,0.05,0,0)" xlink:href="#bO"/><use transform="matrix(0.05,0,0,0.05,10,0)" xlink:href="#bG"/></g><path fill="#fff" d="M140-251c81 0 123 46 123 126C263-46 219 4 140 4 59 4 17-45 17-125s42-126 123-126zm0 227c63 0 89-41 89-101s-29-99-89-99c-61 0-89 39-89 99S79-25 140-24" id="bY"/><path fill="#fff" d="M115-194c53 0 69 39 70 98 0 66-23 100-70 100C84 3 66-7 56-30L54 0H23l1-261h32v101c10-23 28-34 59-34zm-8 174c40 0 45-34 45-75 0-40-5-75-45-74-42 0-51 32-51 76 0 43 10 73 51 73" id="bZ"/><path fill="#fff" d="M141-36C126-15 110 5 73 4 37 3 15-17 15-53c-1-64 63-63 125-63 3-35-9-54-41-54-24 1-41 7-42 31l-33-3c5-37 33-52 76-52 45 0 72 20 72 64v82c-1 20 7 32 28 27v20c-31 9-61-2-59-35zM48-53c0 20 12 33 32 33 41-3 63-29 60-74-43 2-92-5-92 41" id="ca"/><g id="P"><use transform="matrix(0.05,0,0,0.05,0,0)" xlink:href="#bY"/><use transform="matrix(0.05,0,0,0.05,14,0)" xlink:href="#bZ"/><use transform="matrix(0.05,0,0,0.05,24,0)" xlink:href="#bN"/><use transform="matrix(0.05,0,0,0.05,33,0)" xlink:href="#bF"/><use transform="matrix(0.05,0,0,0.05,43,0)" xlink:href="#bG"/><use transform="matrix(0.05,0,0,0.05,48.95,0)" xlink:href="#bX"/><use transform="matrix(0.05,0,0,0.05,57.95,0)" xlink:href="#ca"/><use transform="matrix(0.05,0,0,0.05,67.95,0)" xlink:href="#bJ"/><use transform="matrix(0.05,0,0,0.05,72.95,0)" xlink:href="#bI"/><use transform="matrix(0.05,0,0,0.05,76.9,0)" xlink:href="#bO"/><use transform="matrix(0.05,0,0,0.05,86.9,0)" xlink:href="#bS"/></g><path d="M143 4C61 4 22-44 18-125c-5-107 100-154 193-111 17 8 29 25 37 43l-32 9c-13-25-37-40-76-40-61 0-88 39-88 99 0 61 29 100 91 101 35 0 62-11 79-27v-45h-74v-28h105v86C228-13 192 4 143 4" id="cb"/><path d="M160-131c35 5 61 23 61 61C221 17 115-2 30 0v-248c76 3 177-17 177 60 0 33-19 50-47 57zm-97-11c50-1 110 9 110-42 0-47-63-36-110-37v79zm0 115c55-2 124 14 124-45 0-56-70-42-124-44v89" id="cc"/><g id="Q"><use transform="matrix(0.05,0,0,0.05,0,0)" xlink:href="#bm"/><use transform="matrix(0.05,0,0,0.05,10,0)" xlink:href="#bh"/><use transform="matrix(0.05,0,0,0.05,15.949999999999998,0)" xlink:href="#br"/><use transform="matrix(0.05,0,0,0.05,25.950000000000003,0)" xlink:href="#bt"/><use transform="matrix(0.05,0,0,0.05,34.95,0)" xlink:href="#ba"/><use transform="matrix(0.05,0,0,0.05,39.95,0)" xlink:href="#bu"/><use transform="matrix(0.05,0,0,0.05,52.900000000000006,0)" xlink:href="#bj"/><use transform="matrix(0.05,0,0,0.05,62.900000000000006,0)" xlink:href="#bg"/><use transform="matrix(0.05,0,0,0.05,71.9,0)" xlink:href="#cb"/><use transform="matrix(0.05,0,0,0.05,85.9,0)" xlink:href="#bd"/><use transform="matrix(0.05,0,0,0.05,95.9,0)" xlink:href="#be"/><use transform="matrix(0.05,0,0,0.05,105.9,0)" xlink:href="#bd"/><use transform="matrix(0.05,0,0,0.05,115.9,0)" xlink:href="#bh"/><use transform="matrix(0.05,0,0,0.05,121.85000000000001,0)" xlink:href="#bj"/><use transform="matrix(0.05,0,0,0.05,131.85000000000002,0)" xlink:href="#aZ"/><use transform="matrix(0.05,0,0,0.05,136.85000000000002,0)" xlink:href="#bd"/><use transform="matrix(0.05,0,0,0.05,146.85000000000002,0)" xlink:href="#aX"/><use transform="matrix(0.05,0,0,0.05,156.85000000000002,0)" xlink:href="#cc"/><use transform="matrix(0.05,0,0,0.05,168.85000000000002,0)" xlink:href="#bv"/></g><g id="R"><use transform="matrix(0.05,0,0,0.05,0,0)" xlink:href="#bw"/><use transform="matrix(0.05,0,0,0.05,5,0)" xlink:href="#bz"/><use transform="matrix(0.05,0,0,0.05,15,0)" xlink:href="#bA"/><use transform="matrix(0.05,0,0,0.05,20,0)" xlink:href="#bA"/><use transform="matrix(0.05,0,0,0.05,25,0)" xlink:href="#bx"/><use transform="matrix(0.05,0,0,0.05,35,0)" xlink:href="#by"/></g><g id="S"><use transform="matrix(0.05,0,0,0.05,0,0)" xlink:href="#bh"/><use transform="matrix(0.05,0,0,0.05,5.95,0)" xlink:href="#bd"/><use transform="matrix(0.05,0,0,0.05,15.949999999999998,0)" xlink:href="#bm"/><use transform="matrix(0.05,0,0,0.05,25.950000000000003,0)" xlink:href="#br"/><use transform="matrix(0.05,0,0,0.05,35.95,0)" xlink:href="#bh"/><use transform="matrix(0.05,0,0,0.05,41.900000000000006,0)" xlink:href="#aZ"/><use transform="matrix(0.05,0,0,0.05,46.900000000000006,0)" xlink:href="#bi"/><use transform="matrix(0.05,0,0,0.05,50.85000000000001,0)" xlink:href="#be"/><use transform="matrix(0.05,0,0,0.05,60.85,0)" xlink:href="#bc"/></g><g id="T"><use transform="matrix(0.05,0,0,0.05,0,0)" xlink:href="#bm"/><use transform="matrix(0.05,0,0,0.05,10,0)" xlink:href="#bd"/><use transform="matrix(0.05,0,0,0.05,20,0)" xlink:href="#bh"/><use transform="matrix(0.05,0,0,0.05,25.950000000000003,0)" xlink:href="#bi"/><use transform="matrix(0.05,0,0,0.05,29.899999999999995,0)" xlink:href="#br"/><use transform="matrix(0.05,0,0,0.05,39.9,0)" xlink:href="#aX"/></g><path d="M185-189c-5-48-123-54-124 2 14 75 158 14 163 119 3 78-121 87-175 55-17-10-28-26-33-46l33-7c5 56 141 63 141-1 0-78-155-14-162-118-5-82 145-84 179-34 5 7 8 16 11 25" id="cd"/><g id="U"><use transform="matrix(0.05,0,0,0.05,0,0)" xlink:href="#aZ"/><use transform="matrix(0.05,0,0,0.05,5,0)" xlink:href="#bi"/><use transform="matrix(0.05,0,0,0.05,8.95,0)" xlink:href="#bl"/><use transform="matrix(0.05,0,0,0.05,23.9,0)" xlink:href="#bd"/><use transform="matrix(0.05,0,0,0.05,33.9,0)" xlink:href="#ba"/><use transform="matrix(0.05,0,0,0.05,38.9,0)" xlink:href="#bq"/><use transform="matrix(0.05,0,0,0.05,48.9,0)" xlink:href="#bj"/><use transform="matrix(0.05,0,0,0.05,58.900000000000006,0)" xlink:href="#bg"/><use transform="matrix(0.05,0,0,0.05,67.9,0)" xlink:href="#cd"/><use transform="matrix(0.05,0,0,0.05,79.9,0)" xlink:href="#aZ"/><use transform="matrix(0.05,0,0,0.05,84.9,0)" xlink:href="#bj"/><use transform="matrix(0.05,0,0,0.05,94.9,0)" xlink:href="#bh"/><use transform="matrix(0.05,0,0,0.05,100.85000000000001,0)" xlink:href="#aZ"/><use transform="matrix(0.05,0,0,0.05,105.85000000000001,0)" xlink:href="#bk"/><use transform="matrix(0.05,0,0,0.05,116.15,0)" xlink:href="#bi"/><use transform="matrix(0.05,0,0,0.05,120.10000000000001,0)" xlink:href="#bl"/><use transform="matrix(0.05,0,0,0.05,135.05,0)" xlink:href="#bd"/></g><path d="M30 0v-248h187v28H63v79h144v27H63v87h162V0H30" id="ce"/><g id="V"><use transform="matrix(0.05,0,0,0.05,0,0)" xlink:href="#aZ"/><use transform="matrix(0.05,0,0,0.05,5,0)" xlink:href="#bi"/><use transform="matrix(0.05,0,0,0.05,8.95,0)" xlink:href="#bl"/><use transform="matrix(0.05,0,0,0.05,23.9,0)" xlink:href="#bd"/><use transform="matrix(0.05,0,0,0.05,33.9,0)" xlink:href="#ba"/><use transform="matrix(0.05,0,0,0.05,38.9,0)" xlink:href="#bq"/><use transform="matrix(0.05,0,0,0.05,48.9,0)" xlink:href="#bj"/><use transform="matrix(0.05,0,0,0.05,58.900000000000006,0)" xlink:href="#bg"/><use transform="matrix(0.05,0,0,0.05,67.9,0)" xlink:href="#ce"/><use transform="matrix(0.05,0,0,0.05,79.9,0)" xlink:href="#be"/><use transform="matrix(0.05,0,0,0.05,89.9,0)" xlink:href="#aX"/><use transform="matrix(0.05,0,0,0.05,99.9,0)" xlink:href="#bk"/><use transform="matrix(0.05,0,0,0.05,110.2,0)" xlink:href="#bi"/><use transform="matrix(0.05,0,0,0.05,114.15,0)" xlink:href="#bl"/><use transform="matrix(0.05,0,0,0.05,129.1,0)" xlink:href="#bd"/></g><g id="W"><use transform="matrix(0.05,0,0,0.05,0,0)" xlink:href="#bp"/><use transform="matrix(0.05,0,0,0.05,3.95,0)" xlink:href="#br"/><use transform="matrix(0.05,0,0,0.05,13.949999999999998,0)" xlink:href="#aY"/><use transform="matrix(0.05,0,0,0.05,22.95,0)" xlink:href="#be"/><use transform="matrix(0.05,0,0,0.05,32.95,0)" xlink:href="#ba"/><use transform="matrix(0.05,0,0,0.05,37.95,0)" xlink:href="#bc"/><use transform="matrix(0.05,0,0,0.05,47.95,0)" xlink:href="#bd"/><use transform="matrix(0.05,0,0,0.05,57.95,0)" xlink:href="#br"/><use transform="matrix(0.05,0,0,0.05,67.95,0)" xlink:href="#bl"/><use transform="matrix(0.05,0,0,0.05,82.9,0)" xlink:href="#bd"/><use transform="matrix(0.05,0,0,0.05,92.9,0)" xlink:href="#aZ"/><use transform="matrix(0.05,0,0,0.05,97.9,0)" xlink:href="#bh"/><use transform="matrix(0.05,0,0,0.05,103.85000000000001,0)" xlink:href="#bv"/></g><path d="M30 0v-248h33v221h125V0H30" id="cf"/><g id="X"><use transform="matrix(0.05,0,0,0.05,0,0)" xlink:href="#aX"/><use transform="matrix(0.05,0,0,0.05,10,0)" xlink:href="#aY"/><use transform="matrix(0.05,0,0,0.05,19,0)" xlink:href="#aZ"/><use transform="matrix(0.05,0,0,0.05,24,0)" xlink:href="#ba"/><use transform="matrix(0.05,0,0,0.05,29,0)" xlink:href="#cf"/><use transform="matrix(0.05,0,0,0.05,39,0)" xlink:href="#br"/><use transform="matrix(0.05,0,0,0.05,49,0)" xlink:href="#aY"/><use transform="matrix(0.05,0,0,0.05,58,0)" xlink:href="#bj"/><use transform="matrix(0.05,0,0,0.05,68,0)" xlink:href="#aZ"/><use transform="matrix(0.05,0,0,0.05,73,0)" xlink:href="#bi"/><use transform="matrix(0.05,0,0,0.05,76.95,0)" xlink:href="#br"/><use transform="matrix(0.05,0,0,0.05,86.95,0)" xlink:href="#be"/></g><g id="Y"><use transform="matrix(0.05,0,0,0.05,0,0)" xlink:href="#aZ"/><use transform="matrix(0.05,0,0,0.05,5,0)" xlink:href="#bi"/><use transform="matrix(0.05,0,0,0.05,8.95,0)" xlink:href="#bl"/><use transform="matrix(0.05,0,0,0.05,23.9,0)" xlink:href="#bd"/><use transform="matrix(0.05,0,0,0.05,33.9,0)" xlink:href="#ba"/></g><g id="Z"><use transform="matrix(0.05,0,0,0.05,0,0)" xlink:href="#bs"/><use transform="matrix(0.05,0,0,0.05,12,0)" xlink:href="#bh"/><use transform="matrix(0.05,0,0,0.05,17.95,0)" xlink:href="#br"/><use transform="matrix(0.05,0,0,0.05,27.950000000000003,0)" xlink:href="#bm"/><use transform="matrix(0.05,0,0,0.05,37.95,0)" xlink:href="#bd"/><use transform="matrix(0.05,0,0,0.05,47.95,0)" xlink:href="#bh"/><use transform="matrix(0.05,0,0,0.05,53.900000000000006,0)" xlink:href="#bL"/><use transform="matrix(0.05,0,0,0.05,58.900000000000006,0)" xlink:href="#be"/><use transform="matrix(0.05,0,0,0.05,68.9,0)" xlink:href="#aZ"/><use transform="matrix(0.05,0,0,0.05,73.9,0)" xlink:href="#bd"/><use transform="matrix(0.05,0,0,0.05,83.9,0)" xlink:href="#bh"/><use transform="matrix(0.05,0,0,0.05,89.85000000000001,0)" xlink:href="#bt"/><use transform="matrix(0.05,0,0,0.05,98.85000000000001,0)" xlink:href="#bj"/><use transform="matrix(0.05,0,0,0.05,108.85000000000001,0)" xlink:href="#bp"/></g><g id="aa"><use transform="matrix(0.05,0,0,0.05,0,0)" xlink:href="#bh"/><use transform="matrix(0.05,0,0,0.05,5.95,0)" xlink:href="#aX"/><use transform="matrix(0.05,0,0,0.05,15.949999999999998,0)" xlink:href="#bC"/><use transform="matrix(0.05,0,0,0.05,20.95,0)" xlink:href="#bg"/><use transform="matrix(0.05,0,0,0.05,29.950000000000003,0)" xlink:href="#ba"/><use transform="matrix(0.05,0,0,0.05,34.95,0)" xlink:href="#bg"/><use transform="matrix(0.05,0,0,0.05,43.95,0)" xlink:href="#bd"/><use transform="matrix(0.05,0,0,0.05,53.95,0)" xlink:href="#bd"/><use transform="matrix(0.05,0,0,0.05,63.95,0)" xlink:href="#bb"/><use transform="matrix(0.05,0,0,0.05,75.95,0)" xlink:href="#bp"/><use transform="matrix(0.05,0,0,0.05,79.9,0)" xlink:href="#bg"/><use transform="matrix(0.05,0,0,0.05,88.9,0)" xlink:href="#br"/></g><path d="M30-248c118-7 216 8 213 122C240-48 200 0 122 0H30v-248zM63-27c89 8 146-16 146-99s-60-101-146-95v194" id="cg"/><g id="ab"><use transform="matrix(0.05,0,0,0.05,0,0)" xlink:href="#bC"/><use transform="matrix(0.05,0,0,0.05,5,0)" xlink:href="#br"/><use transform="matrix(0.05,0,0,0.05,15,0)" xlink:href="#bj"/><use transform="matrix(0.05,0,0,0.05,25,0)" xlink:href="#bC"/><use transform="matrix(0.05,0,0,0.05,30,0)" xlink:href="#ba"/><use transform="matrix(0.05,0,0,0.05,35,0)" xlink:href="#cg"/><use transform="matrix(0.05,0,0,0.05,47.95,0)" xlink:href="#br"/><use transform="matrix(0.05,0,0,0.05,57.95,0)" xlink:href="#aY"/><use transform="matrix(0.05,0,0,0.05,66.95,0)" xlink:href="#bn"/><use transform="matrix(0.05,0,0,0.05,76.95,0)" xlink:href="#bl"/><use transform="matrix(0.05,0,0,0.05,91.9,0)" xlink:href="#bd"/><use transform="matrix(0.05,0,0,0.05,101.9,0)" xlink:href="#be"/><use transform="matrix(0.05,0,0,0.05,111.9,0)" xlink:href="#aZ"/></g><g id="ac"><use transform="matrix(0.05,0,0,0.05,0,0)" xlink:href="#aX"/><use transform="matrix(0.05,0,0,0.05,10,0)" xlink:href="#aY"/><use transform="matrix(0.05,0,0,0.05,19,0)" xlink:href="#bj"/><use transform="matrix(0.05,0,0,0.05,29,0)" xlink:href="#aZ"/><use transform="matrix(0.05,0,0,0.05,34,0)" xlink:href="#ba"/><use transform="matrix(0.05,0,0,0.05,39,0)" xlink:href="#aZ"/><use transform="matrix(0.05,0,0,0.05,44,0)" xlink:href="#bq"/><use transform="matrix(0.05,0,0,0.05,54,0)" xlink:href="#bd"/><use transform="matrix(0.05,0,0,0.05,64,0)" xlink:href="#bl"/><use transform="matrix(0.05,0,0,0.05,78.95,0)" xlink:href="#bd"/></g><g id="ad"><use transform="matrix(0.05,0,0,0.05,0,0)" xlink:href="#bw"/><use transform="matrix(0.05,0,0,0.05,5,0)" xlink:href="#bx"/><use transform="matrix(0.05,0,0,0.05,15,0)" xlink:href="#bA"/><use transform="matrix(0.05,0,0,0.05,20,0)" xlink:href="#bA"/><use transform="matrix(0.05,0,0,0.05,25,0)" xlink:href="#bB"/><use transform="matrix(0.05,0,0,0.05,32,0)" xlink:href="#by"/></g><path d="M140-251c81 0 123 46 123 126C263-53 228-8 163 1c7 30 30 48 69 40v23c-55 16-95-15-103-61C56-3 17-48 17-125c0-80 42-126 123-126zm0 227c63 0 89-41 89-101s-29-99-89-99c-61 0-89 39-89 99S79-25 140-24" id="ch"/><g id="ae"><use transform="matrix(0.05,0,0,0.05,0,0)" xlink:href="#cb"/><use transform="matrix(0.05,0,0,0.05,14,0)" xlink:href="#cd"/><use transform="matrix(0.05,0,0,0.05,26,0)" xlink:href="#ch"/></g><g id="af"><use transform="matrix(0.05,0,0,0.05,0,0)" xlink:href="#cg"/><use transform="matrix(0.05,0,0,0.05,12.950000000000001,0)" xlink:href="#bj"/><use transform="matrix(0.05,0,0,0.05,22.950000000000003,0)" xlink:href="#aZ"/><use transform="matrix(0.05,0,0,0.05,27.950000000000003,0)" xlink:href="#bj"/><use transform="matrix(0.05,0,0,0.05,37.95,0)" xlink:href="#bg"/><use transform="matrix(0.05,0,0,0.05,46.95,0)" xlink:href="#bd"/><use transform="matrix(0.05,0,0,0.05,56.95,0)" xlink:href="#aZ"/></g><g id="ag"><use transform="matrix(0.05,0,0,0.05,0,0)" xlink:href="#bk"/><use transform="matrix(0.05,0,0,0.05,10.950000000000001,0)" xlink:href="#bq"/><use transform="matrix(0.05,0,0,0.05,20.950000000000003,0)" xlink:href="#bd"/><use transform="matrix(0.05,0,0,0.05,30.950000000000003,0)" xlink:href="#bl"/><use transform="matrix(0.05,0,0,0.05,45.900000000000006,0)" xlink:href="#bd"/></g><g id="ah"><use transform="matrix(0.05,0,0,0.05,0,0)" xlink:href="#aX"/><use transform="matrix(0.05,0,0,0.05,10,0)" xlink:href="#aY"/><use transform="matrix(0.05,0,0,0.05,19,0)" xlink:href="#bj"/><use transform="matrix(0.05,0,0,0.05,29,0)" xlink:href="#aZ"/><use transform="matrix(0.05,0,0,0.05,34,0)" xlink:href="#ba"/><use transform="matrix(0.05,0,0,0.05,39,0)" xlink:href="#cg"/><use transform="matrix(0.05,0,0,0.05,51.95,0)" xlink:href="#bi"/><use transform="matrix(0.05,0,0,0.05,55.900000000000006,0)" xlink:href="#bg"/><use transform="matrix(0.05,0,0,0.05,64.9,0)" xlink:href="#aZ"/><use transform="matrix(0.05,0,0,0.05,69.9,0)" xlink:href="#bh"/><use transform="matrix(0.05,0,0,0.05,75.85000000000001,0)" xlink:href="#bi"/><use transform="matrix(0.05,0,0,0.05,79.80000000000001,0)" xlink:href="#bo"/><use transform="matrix(0.05,0,0,0.05,89.80000000000001,0)" xlink:href="#bn"/><use transform="matrix(0.05,0,0,0.05,99.80000000000001,0)" xlink:href="#aZ"/><use transform="matrix(0.05,0,0,0.05,104.80000000000001,0)" xlink:href="#bi"/><use transform="matrix(0.05,0,0,0.05,108.75,0)" xlink:href="#br"/><use transform="matrix(0.05,0,0,0.05,118.75,0)" xlink:href="#be"/></g><g id="ai"><use transform="matrix(0.05,0,0,0.05,0,0)" xlink:href="#aX"/><use transform="matrix(0.05,0,0,0.05,10,0)" xlink:href="#aY"/><use transform="matrix(0.05,0,0,0.05,19,0)" xlink:href="#bj"/><use transform="matrix(0.05,0,0,0.05,29,0)" xlink:href="#aZ"/><use transform="matrix(0.05,0,0,0.05,34,0)" xlink:href="#ba"/><use transform="matrix(0.05,0,0,0.05,39,0)" xlink:href="#aX"/><use transform="matrix(0.05,0,0,0.05,49,0)" xlink:href="#bi"/><use transform="matrix(0.05,0,0,0.05,52.95,0)" xlink:href="#bg"/><use transform="matrix(0.05,0,0,0.05,61.95,0)" xlink:href="#aZ"/><use transform="matrix(0.05,0,0,0.05,66.95,0)" xlink:href="#bh"/><use transform="matrix(0.05,0,0,0.05,72.9,0)" xlink:href="#bi"/><use transform="matrix(0.05,0,0,0.05,76.85000000000001,0)" xlink:href="#bo"/><use transform="matrix(0.05,0,0,0.05,86.85000000000001,0)" xlink:href="#bn"/><use transform="matrix(0.05,0,0,0.05,96.85000000000001,0)" xlink:href="#aZ"/><use transform="matrix(0.05,0,0,0.05,101.85000000000001,0)" xlink:href="#bi"/><use transform="matrix(0.05,0,0,0.05,105.80000000000001,0)" xlink:href="#br"/><use transform="matrix(0.05,0,0,0.05,115.80000000000001,0)" xlink:href="#be"/></g><path d="M232-93c-1 65-40 97-104 97C67 4 28-28 28-90v-158h33c8 89-33 224 67 224 102 0 64-133 71-224h33v155" id="ci"/><g id="aj"><use transform="matrix(0.05,0,0,0.05,0,0)" xlink:href="#bf"/><use transform="matrix(0.05,0,0,0.05,9,0)" xlink:href="#bg"/><use transform="matrix(0.05,0,0,0.05,18,0)" xlink:href="#aX"/><use transform="matrix(0.05,0,0,0.05,28,0)" xlink:href="#ba"/><use transform="matrix(0.05,0,0,0.05,33,0)" xlink:href="#bj"/><use transform="matrix(0.05,0,0,0.05,43,0)" xlink:href="#be"/><use transform="matrix(0.05,0,0,0.05,53,0)" xlink:href="#bv"/><use transform="matrix(0.05,0,0,0.05,62,0)" xlink:href="#ci"/><use transform="matrix(0.05,0,0,0.05,74.95,0)" xlink:href="#bK"/><use transform="matrix(0.05,0,0,0.05,87.9,0)" xlink:href="#cf"/></g><g id="ak"><use transform="matrix(0.05,0,0,0.05,0,0)" xlink:href="#aX"/><use transform="matrix(0.05,0,0,0.05,10,0)" xlink:href="#aY"/><use transform="matrix(0.05,0,0,0.05,19,0)" xlink:href="#bj"/><use transform="matrix(0.05,0,0,0.05,29,0)" xlink:href="#aZ"/><use transform="matrix(0.05,0,0,0.05,34,0)" xlink:href="#ba"/><use transform="matrix(0.05,0,0,0.05,39,0)" xlink:href="#aX"/><use transform="matrix(0.05,0,0,0.05,49,0)" xlink:href="#br"/><use transform="matrix(0.05,0,0,0.05,59,0)" xlink:href="#bu"/><use transform="matrix(0.05,0,0,0.05,71.95,0)" xlink:href="#be"/><use transform="matrix(0.05,0,0,0.05,81.95,0)" xlink:href="#bp"/><use transform="matrix(0.05,0,0,0.05,85.9,0)" xlink:href="#br"/><use transform="matrix(0.05,0,0,0.05,95.9,0)" xlink:href="#bj"/><use transform="matrix(0.05,0,0,0.05,105.9,0)" xlink:href="#aX"/><use transform="matrix(0.05,0,0,0.05,115.9,0)" xlink:href="#ci"/><use transform="matrix(0.05,0,0,0.05,128.85,0)" xlink:href="#bK"/><use transform="matrix(0.05,0,0,0.05,141.79999999999998,0)" xlink:href="#cf"/></g><g id="al"><use transform="matrix(0.05,0,0,0.05,0,0)" xlink:href="#aX"/><use transform="matrix(0.05,0,0,0.05,10,0)" xlink:href="#aY"/><use transform="matrix(0.05,0,0,0.05,19,0)" xlink:href="#bj"/><use transform="matrix(0.05,0,0,0.05,29,0)" xlink:href="#aZ"/><use transform="matrix(0.05,0,0,0.05,34,0)" xlink:href="#ba"/><use transform="matrix(0.05,0,0,0.05,39,0)" xlink:href="#cg"/><use transform="matrix(0.05,0,0,0.05,51.95,0)" xlink:href="#bj"/><use transform="matrix(0.05,0,0,0.05,61.95,0)" xlink:href="#aZ"/><use transform="matrix(0.05,0,0,0.05,66.95,0)" xlink:href="#bj"/><use transform="matrix(0.05,0,0,0.05,76.95,0)" xlink:href="#bg"/><use transform="matrix(0.05,0,0,0.05,85.95,0)" xlink:href="#bd"/><use transform="matrix(0.05,0,0,0.05,95.95,0)" xlink:href="#aZ"/></g><g id="am"><use transform="matrix(0.05,0,0,0.05,0,0)" xlink:href="#ce"/><use transform="matrix(0.05,0,0,0.05,12,0)" xlink:href="#bj"/><use transform="matrix(0.05,0,0,0.05,22,0)" xlink:href="#bh"/><use transform="matrix(0.05,0,0,0.05,27.950000000000003,0)" xlink:href="#aZ"/><use transform="matrix(0.05,0,0,0.05,32.95,0)" xlink:href="#bq"/></g><g id="an"><use transform="matrix(0.05,0,0,0.05,0,0)" xlink:href="#cd"/><use transform="matrix(0.05,0,0,0.05,12,0)" xlink:href="#aY"/><use transform="matrix(0.05,0,0,0.05,21,0)" xlink:href="#bi"/><use transform="matrix(0.05,0,0,0.05,24.95,0)" xlink:href="#bd"/><use transform="matrix(0.05,0,0,0.05,34.95,0)" xlink:href="#be"/><use transform="matrix(0.05,0,0,0.05,44.95,0)" xlink:href="#aY"/><use transform="matrix(0.05,0,0,0.05,53.95,0)" xlink:href="#bd"/></g><g id="ao"><use transform="matrix(0.05,0,0,0.05,0,0)" xlink:href="#cg"/><use transform="matrix(0.05,0,0,0.05,12.950000000000001,0)" xlink:href="#bj"/><use transform="matrix(0.05,0,0,0.05,22.950000000000003,0)" xlink:href="#aZ"/><use transform="matrix(0.05,0,0,0.05,27.950000000000003,0)" xlink:href="#bj"/></g><path d="M212-179c-10-28-35-45-73-45-59 0-87 40-87 99 0 60 29 101 89 101 43 0 62-24 78-52l27 14C228-24 195 4 139 4 59 4 22-46 18-125c-6-104 99-153 187-111 19 9 31 26 39 46" id="cj"/><g id="ap"><use transform="matrix(0.05,0,0,0.05,0,0)" xlink:href="#cj"/><use transform="matrix(0.05,0,0,0.05,12.950000000000001,0)" xlink:href="#bj"/><use transform="matrix(0.05,0,0,0.05,22.950000000000003,0)" xlink:href="#aZ"/><use transform="matrix(0.05,0,0,0.05,27.950000000000003,0)" xlink:href="#bd"/><use transform="matrix(0.05,0,0,0.05,37.95,0)" xlink:href="#bc"/><use transform="matrix(0.05,0,0,0.05,47.95,0)" xlink:href="#br"/><use transform="matrix(0.05,0,0,0.05,57.95,0)" xlink:href="#bh"/><use transform="matrix(0.05,0,0,0.05,63.900000000000006,0)" xlink:href="#bv"/></g><g id="aq"><use transform="matrix(0.05,0,0,0.05,0,0)" xlink:href="#bd"/><use transform="matrix(0.05,0,0,0.05,10,0)" xlink:href="#bj"/><use transform="matrix(0.05,0,0,0.05,20,0)" xlink:href="#bh"/><use transform="matrix(0.05,0,0,0.05,25.950000000000003,0)" xlink:href="#aZ"/><use transform="matrix(0.05,0,0,0.05,30.950000000000003,0)" xlink:href="#bq"/></g><g id="ar"><use transform="matrix(0.05,0,0,0.05,0,0)" xlink:href="#bg"/><use transform="matrix(0.05,0,0,0.05,9,0)" xlink:href="#aY"/><use transform="matrix(0.05,0,0,0.05,18,0)" xlink:href="#bi"/><use transform="matrix(0.05,0,0,0.05,21.95,0)" xlink:href="#bd"/><use transform="matrix(0.05,0,0,0.05,31.950000000000003,0)" xlink:href="#be"/><use transform="matrix(0.05,0,0,0.05,41.95,0)" xlink:href="#aY"/><use transform="matrix(0.05,0,0,0.05,50.95,0)" xlink:href="#bd"/></g><path d="M143 0L79-87 56-68V0H24v-261h32v163l83-92h37l-77 82L181 0h-38" id="ck"/><g id="as"><use transform="matrix(0.05,0,0,0.05,0,0)" xlink:href="#bg"/><use transform="matrix(0.05,0,0,0.05,9,0)" xlink:href="#ck"/><use transform="matrix(0.05,0,0,0.05,18,0)" xlink:href="#br"/><use transform="matrix(0.05,0,0,0.05,28,0)" xlink:href="#bg"/><use transform="matrix(0.05,0,0,0.05,37,0)" xlink:href="#ba"/></g><g id="at"><use transform="matrix(0.05,0,0,0.05,0,0)" xlink:href="#cj"/><use transform="matrix(0.05,0,0,0.05,12.950000000000001,0)" xlink:href="#br"/><use transform="matrix(0.05,0,0,0.05,22.950000000000003,0)" xlink:href="#be"/><use transform="matrix(0.05,0,0,0.05,32.95,0)" xlink:href="#aY"/><use transform="matrix(0.05,0,0,0.05,41.95,0)" xlink:href="#bd"/><use transform="matrix(0.05,0,0,0.05,51.95,0)" xlink:href="#bm"/><use transform="matrix(0.05,0,0,0.05,61.95,0)" xlink:href="#aZ"/></g><path fill="#fff" d="M143 4C61 4 22-44 18-125c-5-107 100-154 193-111 17 8 29 25 37 43l-32 9c-13-25-37-40-76-40-61 0-88 39-88 99 0 61 29 100 91 101 35 0 62-11 79-27v-45h-74v-28h105v86C228-13 192 4 143 4" id="cl"/><path fill="#fff" d="M140-251c81 0 123 46 123 126C263-53 228-8 163 1c7 30 30 48 69 40v23c-55 16-95-15-103-61C56-3 17-48 17-125c0-80 42-126 123-126zm0 227c63 0 89-41 89-101s-29-99-89-99c-61 0-89 39-89 99S79-25 140-24" id="cm"/><g id="au"><use transform="matrix(0.05,0,0,0.05,0,0)" xlink:href="#cl"/><use transform="matrix(0.05,0,0,0.05,14,0)" xlink:href="#bW"/><use transform="matrix(0.05,0,0,0.05,26,0)" xlink:href="#cm"/></g><path fill="#fff" d="M212-179c-10-28-35-45-73-45-59 0-87 40-87 99 0 60 29 101 89 101 43 0 62-24 78-52l27 14C228-24 195 4 139 4 59 4 22-46 18-125c-6-104 99-153 187-111 19 9 31 26 39 46" id="cn"/><path fill="#fff" d="M24 0v-261h32V0H24" id="co"/><g id="av"><use transform="matrix(0.05,0,0,0.05,0,0)" xlink:href="#cn"/><use transform="matrix(0.05,0,0,0.05,12.950000000000001,0)" xlink:href="#co"/><use transform="matrix(0.05,0,0,0.05,16.900000000000002,0)" xlink:href="#ca"/><use transform="matrix(0.05,0,0,0.05,26.900000000000002,0)" xlink:href="#bN"/><use transform="matrix(0.05,0,0,0.05,35.900000000000006,0)" xlink:href="#bN"/></g><g id="aw"><use transform="matrix(0.05,0,0,0.05,0,0)" xlink:href="#cg"/><use transform="matrix(0.05,0,0,0.05,12.950000000000001,0)" xlink:href="#bi"/><use transform="matrix(0.05,0,0,0.05,16.900000000000002,0)" xlink:href="#bj"/><use transform="matrix(0.05,0,0,0.05,26.900000000000002,0)" xlink:href="#bc"/><use transform="matrix(0.05,0,0,0.05,36.900000000000006,0)" xlink:href="#bh"/><use transform="matrix(0.05,0,0,0.05,42.85000000000001,0)" xlink:href="#bj"/><use transform="matrix(0.05,0,0,0.05,52.85,0)" xlink:href="#bl"/><path d="M-.9 1.25h74.6v1.32H-.9z"/></g><g id="ax"><use transform="matrix(0.05,0,0,0.05,0,0)" xlink:href="#ce"/><use transform="matrix(0.05,0,0,0.05,12,0)" xlink:href="#bp"/><use transform="matrix(0.05,0,0,0.05,15.949999999999998,0)" xlink:href="#bd"/><use transform="matrix(0.05,0,0,0.05,25.950000000000003,0)" xlink:href="#bl"/><use transform="matrix(0.05,0,0,0.05,40.9,0)" xlink:href="#bd"/><use transform="matrix(0.05,0,0,0.05,50.9,0)" xlink:href="#be"/><use transform="matrix(0.05,0,0,0.05,60.900000000000006,0)" xlink:href="#aZ"/><path d="M-.9 1.25h72.7v1.32H-.9z"/></g><path d="M194 0L95-120 63-95V0H30v-248h33v124l119-124h40L117-140 236 0h-42" id="cp"/><g id="ay"><use transform="matrix(0.05,0,0,0.05,0,0)" xlink:href="#cp"/><use transform="matrix(0.05,0,0,0.05,12,0)" xlink:href="#bd"/><use transform="matrix(0.05,0,0,0.05,22,0)" xlink:href="#bv"/><path d="M-.9 1.25h32.8v1.32H-.9z"/></g><g id="az"><use transform="matrix(0.05,0,0,0.05,0,0)" xlink:href="#br"/><use transform="matrix(0.05,0,0,0.05,10,0)" xlink:href="#bu"/><use transform="matrix(0.05,0,0,0.05,22.950000000000003,0)" xlink:href="#bp"/><use transform="matrix(0.05,0,0,0.05,26.900000000000002,0)" xlink:href="#ba"/></g><g id="aA"><use transform="matrix(0.05,0,0,0.05,0,0)" xlink:href="#cj"/><use transform="matrix(0.05,0,0,0.05,12.950000000000001,0)" xlink:href="#bp"/><use transform="matrix(0.05,0,0,0.05,16.900000000000002,0)" xlink:href="#bj"/><use transform="matrix(0.05,0,0,0.05,26.900000000000002,0)" xlink:href="#bg"/><use transform="matrix(0.05,0,0,0.05,35.900000000000006,0)" xlink:href="#bg"/></g><g id="aB"><use transform="matrix(0.05,0,0,0.05,0,0)" xlink:href="#bh"/><use transform="matrix(0.05,0,0,0.05,5.95,0)" xlink:href="#aX"/><use transform="matrix(0.05,0,0,0.05,15.949999999999998,0)" xlink:href="#bC"/><use transform="matrix(0.05,0,0,0.05,20.95,0)" xlink:href="#ba"/><use transform="matrix(0.05,0,0,0.05,25.950000000000003,0)" xlink:href="#bm"/><use transform="matrix(0.05,0,0,0.05,35.95,0)" xlink:href="#bh"/><use transform="matrix(0.05,0,0,0.05,41.900000000000006,0)" xlink:href="#br"/><use transform="matrix(0.05,0,0,0.05,51.900000000000006,0)" xlink:href="#bm"/><use transform="matrix(0.05,0,0,0.05,61.900000000000006,0)" xlink:href="#bd"/><use transform="matrix(0.05,0,0,0.05,71.9,0)" xlink:href="#bh"/><use transform="matrix(0.05,0,0,0.05,77.85000000000001,0)" xlink:href="#aZ"/><use transform="matrix(0.05,0,0,0.05,82.85000000000001,0)" xlink:href="#bv"/></g><g id="aC"><use transform="matrix(0.05,0,0,0.05,0,0)" xlink:href="#cf"/><use transform="matrix(0.05,0,0,0.05,10,0)" xlink:href="#bi"/><use transform="matrix(0.05,0,0,0.05,13.949999999999998,0)" xlink:href="#aZ"/><use transform="matrix(0.05,0,0,0.05,18.95,0)" xlink:href="#bd"/><use transform="matrix(0.05,0,0,0.05,28.950000000000003,0)" xlink:href="#bh"/><use transform="matrix(0.05,0,0,0.05,34.9,0)" xlink:href="#bj"/><use transform="matrix(0.05,0,0,0.05,44.9,0)" xlink:href="#bp"/></g><path d="M140-251c81 0 123 46 123 126C263-46 219 4 140 4 59 4 17-45 17-125s42-126 123-126zm0 227c63 0 89-41 89-101s-29-99-89-99c-61 0-89 39-89 99S79-25 140-24" id="cq"/><g id="aD"><use transform="matrix(0.05,0,0,0.05,0,0)" xlink:href="#bh"/><use transform="matrix(0.05,0,0,0.05,5.95,0)" xlink:href="#aX"/><use transform="matrix(0.05,0,0,0.05,15.949999999999998,0)" xlink:href="#bC"/><use transform="matrix(0.05,0,0,0.05,20.95,0)" xlink:href="#bg"/><use transform="matrix(0.05,0,0,0.05,29.950000000000003,0)" xlink:href="#ba"/><use transform="matrix(0.05,0,0,0.05,34.95,0)" xlink:href="#bg"/><use transform="matrix(0.05,0,0,0.05,43.95,0)" xlink:href="#bn"/><use transform="matrix(0.05,0,0,0.05,53.95,0)" xlink:href="#bo"/><use transform="matrix(0.05,0,0,0.05,63.95,0)" xlink:href="#cj"/><use transform="matrix(0.05,0,0,0.05,76.9,0)" xlink:href="#bp"/><use transform="matrix(0.05,0,0,0.05,80.85000000000001,0)" xlink:href="#bj"/><use transform="matrix(0.05,0,0,0.05,90.85000000000001,0)" xlink:href="#bg"/><use transform="matrix(0.05,0,0,0.05,99.85000000000001,0)" xlink:href="#bg"/><use transform="matrix(0.05,0,0,0.05,108.85000000000001,0)" xlink:href="#cq"/><use transform="matrix(0.05,0,0,0.05,122.85000000000001,0)" xlink:href="#bC"/></g><g id="aE"><use transform="matrix(0.05,0,0,0.05,0,0)" xlink:href="#cb"/><use transform="matrix(0.05,0,0,0.05,14,0)" xlink:href="#bd"/><use transform="matrix(0.05,0,0,0.05,24,0)" xlink:href="#br"/><use transform="matrix(0.05,0,0,0.05,34,0)" xlink:href="#bj"/><use transform="matrix(0.05,0,0,0.05,44,0)" xlink:href="#aX"/><use transform="matrix(0.05,0,0,0.05,54,0)" xlink:href="#bl"/><use transform="matrix(0.05,0,0,0.05,68.95,0)" xlink:href="#bi"/><use transform="matrix(0.05,0,0,0.05,72.9,0)" xlink:href="#be"/></g><g id="aF"><use transform="matrix(0.05,0,0,0.05,0,0)" xlink:href="#bC"/><use transform="matrix(0.05,0,0,0.05,5,0)" xlink:href="#bd"/><use transform="matrix(0.05,0,0,0.05,15,0)" xlink:href="#bj"/><use transform="matrix(0.05,0,0,0.05,25,0)" xlink:href="#aZ"/><use transform="matrix(0.05,0,0,0.05,30,0)" xlink:href="#bn"/><use transform="matrix(0.05,0,0,0.05,40,0)" xlink:href="#bh"/><use transform="matrix(0.05,0,0,0.05,45.95,0)" xlink:href="#bd"/></g><g id="aG"><use transform="matrix(0.05,0,0,0.05,0,0)" xlink:href="#bq"/><use transform="matrix(0.05,0,0,0.05,10,0)" xlink:href="#bj"/><use transform="matrix(0.05,0,0,0.05,20,0)" xlink:href="#bg"/></g><g id="aH"><use transform="matrix(0.05,0,0,0.05,0,0)" xlink:href="#bc"/><use transform="matrix(0.05,0,0,0.05,10,0)" xlink:href="#bd"/><use transform="matrix(0.05,0,0,0.05,20,0)" xlink:href="#br"/><use transform="matrix(0.05,0,0,0.05,30,0)" xlink:href="#bb"/><use transform="matrix(0.05,0,0,0.05,42,0)" xlink:href="#aX"/><use transform="matrix(0.05,0,0,0.05,52,0)" xlink:href="#bl"/><use transform="matrix(0.05,0,0,0.05,66.95,0)" xlink:href="#bi"/><use transform="matrix(0.05,0,0,0.05,70.9,0)" xlink:href="#be"/></g><g id="aI"><use transform="matrix(0.05,0,0,0.05,0,0)" xlink:href="#bC"/><use transform="matrix(0.05,0,0,0.05,5,0)" xlink:href="#bd"/><use transform="matrix(0.05,0,0,0.05,15,0)" xlink:href="#bj"/><use transform="matrix(0.05,0,0,0.05,25,0)" xlink:href="#aZ"/><use transform="matrix(0.05,0,0,0.05,30,0)" xlink:href="#bn"/><use transform="matrix(0.05,0,0,0.05,40,0)" xlink:href="#bh"/><use transform="matrix(0.05,0,0,0.05,45.95,0)" xlink:href="#bd"/></g><linearGradient gradientUnits="userSpaceOnUse" id="aJ" x1="1100" y1="580" x2="1100" y2="700"><stop offset="0%" stop-color="#fff"/><stop offset="20%" stop-color="#fff"/><stop offset="100%" stop-color="#dbdbdb"/></linearGradient><path d="M190 0L58-211 59 0H30v-248h39L202-35l-2-213h31V0h-41" id="cr"/><g id="aK"><use transform="matrix(0.05,0,0,0.05,0,0)" xlink:href="#cr"/><use transform="matrix(0.05,0,0,0.05,12.950000000000001,0)" xlink:href="#br"/><use transform="matrix(0.05,0,0,0.05,22.950000000000003,0)" xlink:href="#aZ"/></g><g id="aL"><use transform="matrix(0.05,0,0,0.05,0,0)" xlink:href="#bm"/><use transform="matrix(0.05,0,0,0.05,10,0)" xlink:href="#bj"/><use transform="matrix(0.05,0,0,0.05,20,0)" xlink:href="#bh"/><use transform="matrix(0.05,0,0,0.05,25.950000000000003,0)" xlink:href="#aZ"/></g><g id="aM"><use transform="matrix(0.05,0,0,0.05,0,0)" xlink:href="#br"/><use transform="matrix(0.05,0,0,0.05,10,0)" xlink:href="#bC"/></g><g id="aN"><use transform="matrix(0.05,0,0,0.05,0,0)" xlink:href="#aZ"/><use transform="matrix(0.05,0,0,0.05,5,0)" xlink:href="#bq"/><use transform="matrix(0.05,0,0,0.05,15,0)" xlink:href="#bi"/><use transform="matrix(0.05,0,0,0.05,18.95,0)" xlink:href="#bg"/></g><g id="aO"><use transform="matrix(0.05,0,0,0.05,0,0)" xlink:href="#bm"/><use transform="matrix(0.05,0,0,0.05,10,0)" xlink:href="#bh"/><use transform="matrix(0.05,0,0,0.05,15.949999999999998,0)" xlink:href="#br"/><use transform="matrix(0.05,0,0,0.05,25.950000000000003,0)" xlink:href="#bC"/><use transform="matrix(0.05,0,0,0.05,30.950000000000003,0)" xlink:href="#bi"/><use transform="matrix(0.05,0,0,0.05,34.9,0)" xlink:href="#bp"/><use transform="matrix(0.05,0,0,0.05,38.85,0)" xlink:href="#bd"/><use transform="matrix(0.05,0,0,0.05,48.85,0)" xlink:href="#ba"/></g><g id="aP"><use transform="matrix(0.05,0,0,0.05,0,0)" xlink:href="#bg"/><use transform="matrix(0.05,0,0,0.05,9,0)" xlink:href="#bq"/><use transform="matrix(0.05,0,0,0.05,19,0)" xlink:href="#br"/><use transform="matrix(0.05,0,0,0.05,29,0)" xlink:href="#bu"/><use transform="matrix(0.05,0,0,0.05,41.95,0)" xlink:href="#be"/></g><g id="aQ"><use transform="matrix(0.05,0,0,0.05,0,0)" xlink:href="#bC"/><use transform="matrix(0.05,0,0,0.05,5,0)" xlink:href="#br"/><use transform="matrix(0.05,0,0,0.05,15,0)" xlink:href="#bh"/></g><g id="aR"><use transform="matrix(0.05,0,0,0.05,0,0)" xlink:href="#aY"/><use transform="matrix(0.05,0,0,0.05,9,0)" xlink:href="#br"/><use transform="matrix(0.05,0,0,0.05,19,0)" xlink:href="#bl"/><use transform="matrix(0.05,0,0,0.05,33.95,0)" xlink:href="#bm"/><use transform="matrix(0.05,0,0,0.05,43.95,0)" xlink:href="#bp"/><use transform="matrix(0.05,0,0,0.05,47.900000000000006,0)" xlink:href="#bd"/><use transform="matrix(0.05,0,0,0.05,57.900000000000006,0)" xlink:href="#aZ"/><use transform="matrix(0.05,0,0,0.05,62.900000000000006,0)" xlink:href="#bd"/><use transform="matrix(0.05,0,0,0.05,72.9,0)" xlink:href="#be"/><use transform="matrix(0.05,0,0,0.05,82.9,0)" xlink:href="#bd"/><use transform="matrix(0.05,0,0,0.05,92.9,0)" xlink:href="#bg"/><use transform="matrix(0.05,0,0,0.05,101.9,0)" xlink:href="#bg"/></g><g id="aS"><use transform="matrix(0.05,0,0,0.05,0,0)" xlink:href="#br"/><use transform="matrix(0.05,0,0,0.05,10,0)" xlink:href="#bC"/></g><g id="aT"><use transform="matrix(0.05,0,0,0.05,0,0)" xlink:href="#bl"/><use transform="matrix(0.05,0,0,0.05,14.950000000000001,0)" xlink:href="#br"/><use transform="matrix(0.05,0,0,0.05,24.950000000000003,0)" xlink:href="#aX"/><use transform="matrix(0.05,0,0,0.05,34.95,0)" xlink:href="#bd"/><use transform="matrix(0.05,0,0,0.05,44.95,0)" xlink:href="#bp"/></g><g id="aU"><use transform="matrix(0.05,0,0,0.05,0,0)" xlink:href="#br"/><use transform="matrix(0.05,0,0,0.05,10,0)" xlink:href="#be"/><use transform="matrix(0.05,0,0,0.05,20,0)" xlink:href="#bp"/><use transform="matrix(0.05,0,0,0.05,23.95,0)" xlink:href="#bv"/></g><g id="aV"><use transform="matrix(0.05,0,0,0.05,0,0)" xlink:href="#cj"/><use transform="matrix(0.05,0,0,0.05,12.950000000000001,0)" xlink:href="#br"/><use transform="matrix(0.05,0,0,0.05,22.950000000000003,0)" xlink:href="#bl"/><use transform="matrix(0.05,0,0,0.05,37.900000000000006,0)" xlink:href="#bl"/><use transform="matrix(0.05,0,0,0.05,52.85,0)" xlink:href="#br"/><use transform="matrix(0.05,0,0,0.05,62.85,0)" xlink:href="#aX"/><use transform="matrix(0.05,0,0,0.05,72.85000000000001,0)" xlink:href="#bi"/><use transform="matrix(0.05,0,0,0.05,76.80000000000001,0)" xlink:href="#aZ"/><use transform="matrix(0.05,0,0,0.05,81.80000000000001,0)" xlink:href="#bv"/></g><g id="aW"><use transform="matrix(0.05,0,0,0.05,0,0)" xlink:href="#aY"/><use transform="matrix(0.05,0,0,0.05,9,0)" xlink:href="#br"/><use transform="matrix(0.05,0,0,0.05,19,0)" xlink:href="#bl"/><use transform="matrix(0.05,0,0,0.05,33.95,0)" xlink:href="#bl"/><use transform="matrix(0.05,0,0,0.05,48.900000000000006,0)" xlink:href="#br"/><use transform="matrix(0.05,0,0,0.05,58.900000000000006,0)" xlink:href="#aX"/><use transform="matrix(0.05,0,0,0.05,68.9,0)" xlink:href="#bi"/><use transform="matrix(0.05,0,0,0.05,72.85000000000001,0)" xlink:href="#aZ"/><use transform="matrix(0.05,0,0,0.05,77.85000000000001,0)" xlink:href="#bv"/></g></defs></g></svg>