<svg xmlns="http://www.w3.org/2000/svg" xmlns:xlink="http://www.w3.org/1999/xlink" xmlns:lucid="lucid" width="1055.03" height="460"><g transform="translate(2.018980875081155 2.018980875081155)" lucid:page-tab-id="ckKp3.A2u-BJ"><path d="M0 0h1051v743.52H0z" fill="#fff"/><path d="M97.98 182.98c0-2.76 2.24-5 5-5h110c2.76 0 5 2.24 5 5v50c0 2.76-2.24 5-5 5h-110c-2.76 0-5-2.24-5-5z" stroke="#000" stroke-width="2" fill="#fff"/><use xlink:href="#a" transform="matrix(1,0,0,1,105.98101912491884,185.98101912491884) translate(25.574999999999996 25.6)"/><path d="M17.98 342.98c0-2.76 2.24-5 5-5h110c2.76 0 5 2.24 5 5v50c0 2.76-2.24 5-5 5h-110c-2.76 0-5-2.24-5-5z" stroke="#000" stroke-width="2" fill="#fff"/><use xlink:href="#b" transform="matrix(1,0,0,1,25.981019124918845,345.9810191249188) translate(1.0749999999999957 25.6)"/><path d="M177.98 342.98c0-2.76 2.24-5 5-5h110c2.76 0 5 2.24 5 5v50c0 2.76-2.24 5-5 5h-110c-2.76 0-5-2.24-5-5z" stroke="#000" stroke-width="2" fill="#fff"/><use xlink:href="#c" transform="matrix(1,0,0,1,185.98101912491884,345.9810191249188) translate(23.525 25.6)"/><path d="M675.65 182.98c0-2.76 2.24-5 5-5h110c2.76 0 5 2.24 5 5v50c0 2.76-2.24 5-5 5h-110c-2.76 0-5-2.24-5-5z" stroke="#000" stroke-width="2" fill="#fff"/><use xlink:href="#d" transform="matrix(1,0,0,1,683.6490527124153,185.98101912491884) translate(9.574999999999996 14.799999999999999)"/><use xlink:href="#e" transform="matrix(1,0,0,1,683.6490527124153,185.98101912491884) translate(17.049999999999997 36.4)"/><path d="M913 182.98c0-2.76 2.25-5 5-5h110c2.77 0 5 2.24 5 5v50c0 2.76-2.23 5-5 5H918c-2.75 0-5-2.24-5-5z" stroke="#000" stroke-width="2" fill="#fff"/><use xlink:href="#f" transform="matrix(1,0,0,1,921.0095487265872,185.98101912491884) translate(24.549999999999997 14.799999999999999)"/><use xlink:href="#g" transform="matrix(1,0,0,1,921.0095487265872,185.98101912491884) translate(21.049999999999997 36.4)"/><path d="M417.98 182.98c0-2.76 2.24-5 5-5h110c2.76 0 5 2.24 5 5v50c0 2.76-2.24 5-5 5h-110c-2.76 0-5-2.24-5-5z" stroke="#000" stroke-width="2" fill="#fff"/><use xlink:href="#h" transform="matrix(1,0,0,1,425.9810191249188,185.98101912491884) translate(23.549999999999997 25.6)"/><path d="M417.98 22.98c0-2.76 2.24-5 5-5h110c2.76 0 5 2.24 5 5v50c0 2.76-2.24 5-5 5h-110c-2.76 0-5-2.24-5-5z" stroke="#000" stroke-width="2" fill="#fff"/><use xlink:href="#i" transform="matrix(1,0,0,1,425.9810191249188,25.981019124918845) translate(26.075 25.6)"/><path d="M337.98 342.98c0-2.76 2.24-5 5-5h110c2.76 0 5 2.24 5 5v50c0 2.76-2.24 5-5 5h-110c-2.76 0-5-2.24-5-5z" stroke="#000" stroke-width="2" fill="#fff"/><use xlink:href="#j" transform="matrix(1,0,0,1,345.9810191249188,345.9810191249188) translate(7.074999999999996 25.6)"/><path d="M497.98 342.98c0-2.76 2.24-5 5-5h110c2.76 0 5 2.24 5 5v50c0 2.76-2.24 5-5 5h-110c-2.76 0-5-2.24-5-5z" stroke="#000" stroke-width="2" fill="#fff"/><use xlink:href="#k" transform="matrix(1,0,0,1,505.9810191249188,345.9810191249188) translate(9.049999999999997 25.6)"/><path d="M88.63 308.68h2.5l-.33.32-1.88 2.05-1.6 1.94-1.36 1.83-1.2 1.8-1.03 1.74-.9 1.73-.8 1.72-.7 1.73-.6 1.74-.52 1.77-.4 1.82-.35 1.88-.26 1.96-.16 2.06L79 336l-2-.05.04-1.25.16-2.16.27-2.07.36-1.98.45-1.94.54-1.87.63-1.85.73-1.82.84-1.82.96-1.8 1.1-1.84 1.24-1.88 1.43-1.93 1.66-2 1.23-1.35zm66.03-51.4l-.68 1.3-1.1 1.82-1.24 1.88-1.43 1.93-1.65 2.02-1.94 2.13-2.32 2.3-2.85 2.54-3.67 2.94-5.2 3.75-15.83 10.02-.15.1v-2.37l14.86-9.42 5.1-3.68 3.6-2.9 2.77-2.46 2.26-2.24 1.88-2.05 1.6-1.92 1.37-1.85 1.2-1.8 1.04-1.74.65-1.25z"/><path d="M79 335.98l-.02 1h-2l.03-1.05zM158.47 257.08l-9.02-2.13 7.8-12.82z"/><path d="M159.58 258.37l-11.7-2.76 10.1-16.62zm-8.56-4.08l6.34 1.5-.87-10.52z"/><use xlink:href="#l" transform="matrix(1,0,0,1,88.63038632003608,287.07781447796) translate(0 14.4)"/><use xlink:href="#m" transform="matrix(1,0,0,1,88.63038632003608,287.07781447796) translate(17.95 14.4)"/><path d="M228.55 309.74l1.66 2 1.44 1.94 1.25 1.88 1.08 1.84.96 1.8.84 1.83.73 1.82.65 1.84.54 1.86.44 1.93.35 1.97.26 2.07.16 2.16.04 1.25-2 .06-.03-1.2-.16-2.06-.25-1.96-.34-1.9-.43-1.8-.5-1.8-.6-1.73-.7-1.73-.8-1.72-.9-1.73-1.05-1.75-1.2-1.8-1.37-1.83-1.6-1.95-1.42-1.57h2.72zm-64.82-52.15l1.04 1.74 1.2 1.8 1.36 1.84 1.6 1.93 1.87 2.06 2.25 2.23 2.77 2.46 3.6 2.9 5.1 3.67 15.8 10 .18.12v2.38l-1.26-.8-15.84-10.04-5.2-3.76-3.67-2.95-2.85-2.55-2.32-2.3-1.95-2.13-1.65-2-1.43-1.94-1.25-1.88-1.1-1.83-.67-1.3 1.77-.92z"/><path d="M238.98 336.98h-2l-.02-1 2-.05zM166.5 254.95l-9 2.13 1.22-14.95z"/><path d="M168.08 255.6l-11.7 2.77 1.6-19.4zm-9.48.2l6.34-1.5-5.47-9.02z"/><use xlink:href="#l" transform="matrix(1,0,0,1,200.4951060748996,287.88152585714147) translate(0 14.4)"/><use xlink:href="#m" transform="matrix(1,0,0,1,200.4951060748996,287.88152585714147) translate(17.95 14.4)"/><path d="M282.56 208.98h-62.58v-2h62.58zm115.92 0H353.4v-2h45.08z"/><path d="M220 208.98H219v-2H220zM413.74 207.98l-14.26 4.64v-9.27z"/><path d="M416.98 207.98l-18.5 6v-12zm-16.5 3.26l10.03-3.26-10.02-3.26z"/><use xlink:href="#n" transform="matrix(1,0,0,1,282.5575041100689,197.18101912491886) translate(0 14.4)"/><path d="M576.2 208.98h-36.22v-2h36.22zm79.95 0H621.2v-2h34.95z"/><path d="M540 208.98H539v-2H540zM671.4 207.98l-14.25 4.64v-9.27z"/><path d="M674.65 207.98l-18.5 6v-12zm-16.5 3.26l10.03-3.26-10.03-3.26z"/><use xlink:href="#o" transform="matrix(1,0,0,1,576.1981450202699,197.18101912491886) translate(0 14.4)"/><use xlink:href="#p" transform="matrix(1,0,0,1,576.1981450202699,197.18101912491886) translate(25 14.4)"/><path d="M839.33 208.98h-41.68v-2h41.68zm54.18 0h-24.17v-2h24.18z"/><path d="M797.68 208.98h-1.03v-2h1.03zM908.77 207.98l-14.26 4.64v-9.27z"/><path d="M912 207.98l-18.5 6v-12zm-16.5 3.26l10.04-3.26-10.03-3.26z"/><use xlink:href="#q" transform="matrix(1,0,0,1,839.3301659145694,197.18101912491886) translate(0 14.4)"/><use xlink:href="#m" transform="matrix(1,0,0,1,839.3301659145694,197.18101912491886) translate(20 14.4)"/><path d="M419 301.75l-3.18 2.55-2.77 2.47-2.25 2.23-1.88 2.05-1.6 1.94-1.36 1.83-1.2 1.8-1.03 1.74-.9 1.73-.8 1.72-.7 1.73-.6 1.74-.52 1.77-.4 1.82-.35 1.88-.26 1.96-.16 2.06-.03 1.2-2-.05.04-1.25.16-2.16.27-2.07.36-1.98.45-1.94.54-1.87.63-1.85.73-1.82.84-1.82.96-1.8 1.1-1.84 1.24-1.88 1.43-1.93 1.66-2 1.96-2.14 2.32-2.28 2.85-2.55 3.67-2.95.8-.57zm55.66-44.47l-.68 1.3-1.1 1.82-1.24 1.88-1.43 1.93-1.65 2.02-1.94 2.13-2.32 2.3-2.85 2.54-3.67 2.94-5.2 3.75-15.83 10.02-4.78 3.06v-2.37l3.7-2.36 15.8-10 5.1-3.7 3.6-2.88 2.76-2.47 2.26-2.24 1.88-2.05 1.6-1.92 1.37-1.85 1.2-1.8 1.04-1.74.65-1.25zM399 335.98l-.02 1h-2l.03-1.05zM478.47 257.08l-9.02-2.13 7.8-12.82z"/><path d="M479.58 258.37l-11.7-2.76 10.1-16.62zm-8.56-4.08l6.34 1.5-.87-10.52z"/><use xlink:href="#r" transform="matrix(1,0,0,1,418.9953143830608,285.1340216598183) translate(0 14.4)"/><path d="M541.43 302.77l2.85 2.55 2.33 2.3 1.95 2.12 1.66 2 1.44 1.94 1.25 1.88 1.08 1.84.96 1.8.84 1.83.73 1.82.65 1.84.54 1.86.44 1.93.35 1.97.26 2.07.16 2.16.04 1.25-2 .06-.03-1.2-.16-2.06-.25-1.96-.34-1.9-.43-1.8-.5-1.8-.6-1.73-.7-1.73-.8-1.72-.9-1.73-1.05-1.75-1.2-1.8-1.37-1.83-1.6-1.95-1.87-2.05-2.25-2.23-2.76-2.47-.6-.48v-2.56zm-57.7-45.18l1.04 1.74 1.2 1.8 1.36 1.84 1.6 1.93 1.87 2.06 2.25 2.23 2.77 2.46 3.6 2.9 5.1 3.67 15.8 10 6.28 4.03v2.37l-7.36-4.7-15.84-10.04-5.2-3.76-3.67-2.95-2.85-2.55-2.32-2.3-1.95-2.13-1.65-2-1.43-1.94-1.25-1.88-1.1-1.83-.67-1.3 1.77-.92z"/><path d="M558.98 336.98h-2l-.02-1 2-.05zM486.5 254.95l-9 2.13 1.22-14.95z"/><path d="M488.08 255.6l-11.7 2.77 1.6-19.4zm-9.48.2l6.34-1.5-5.47-9.02z"/><use xlink:href="#r" transform="matrix(1,0,0,1,526.5961457656159,286.8717309549046) translate(0 14.4)"/><path d="M664.1 325.84l-1.15 1.64-41.7-29.27h3.48zm-70.15-49.23h-3.5l-53.7-37.67 1.16-1.64z"/><path d="M537.93 237.3l-1.14 1.64-1.13-.78 1.7-1.25zM676.02 335.43l-14.34-4.4 5.33-7.6z"/><path d="M678.67 337.3l-18.6-5.72 6.9-9.84zm-15.38-6.82l10.07 3.1-6.33-8.44z"/><use xlink:href="#s" transform="matrix(1,0,0,1,578.1213644811414,276.6106229181517) translate(0 14.4)"/><path d="M407.98 397.98h140v40h-140z" fill="#fff" fill-opacity="0"/><use xlink:href="#t" transform="matrix(1,0,0,1,412.9810191249188,402.9810191249188) translate(18.074999999999996 19.1)"/><use xlink:href="#u" transform="matrix(1,0,0,1,412.9810191249188,402.9810191249188) translate(44.02499999999999 19.1)"/><path d="M675.65 22.98c0-2.76 2.24-5 5-5h110c2.76 0 5 2.24 5 5v50c0 2.76-2.24 5-5 5h-110c-2.76 0-5-2.24-5-5z" stroke="#000" stroke-width="2" fill="#fff"/><use xlink:href="#v" transform="matrix(1,0,0,1,683.6490527124153,25.981019124918845) translate(2.549999999999997 25.6)"/><path d="M599.62 48.98h-42.14v-2h42.14zm74.03 0h-23.08v-2h23.08z"/><path d="M674.65 48.98h-1.03v-2h1.03zM556.48 52.62l-14.26-4.64 14.26-4.63z"/><path d="M557.48 54l-18.5-6.02 18.5-6zm-12.03-6.02l10.03 3.26v-6.52z"/><use xlink:href="#w" transform="matrix(1,0,0,1,599.6157637207394,37.18101912491885) translate(0 14.4)"/><path d="M288.34 48.98H158.98v109.5h-2V46.98h131.36zm127.64 0h-69.7v-2H416z"/><path d="M416.98 48.98h-1.02v-2h1.02zM157.98 173.74l-4.63-14.26h9.27z"/><path d="M157.98 176.98l-6-18.5h12zm-3.26-16.5l3.26 10.03 3.26-10.02z"/><use xlink:href="#x" transform="matrix(1,0,0,1,288.3393524582521,37.18101912491885) translate(0 14.4)"/><use xlink:href="#y" transform="matrix(1,0,0,1,288.3393524582521,37.18101912491885) translate(38.95 14.4)"/><path d="M736.65 158.48h-2v-19.7h2zm0-41.3h-2v-37.2h2z"/><path d="M736.65 80h-2V79h2zM735.65 173.74L731 159.48h9.28z"/><path d="M735.65 176.98l-6-18.5h12zm-3.26-16.5l3.25 10.03 3.26-10.02z"/><use xlink:href="#l" transform="matrix(1,0,0,1,678.1990527124152,117.18101912491885) translate(0 14.4)"/><use xlink:href="#z" transform="matrix(1,0,0,1,678.1990527124152,117.18101912491885) translate(17.95 14.4)"/><use xlink:href="#A" transform="matrix(1,0,0,1,678.1990527124152,117.18101912491885) translate(99.9 14.4)"/><path d="M913 342.98c0-2.76 2.25-5 5-5h110c2.77 0 5 2.24 5 5v50c0 2.76-2.23 5-5 5H918c-2.75 0-5-2.24-5-5z" stroke="#000" stroke-width="2" fill="#fff"/><use xlink:href="#B" transform="matrix(1,0,0,1,921.0095487265872,345.9810191249188) translate(33.025 25.6)"/><path d="M805.56 368.98h-7.9v-2h7.9zm87.95 0h-13.94v-2h13.95z"/><path d="M797.68 368.98h-1.03v-2h1.03zM908.77 367.98l-14.26 4.64v-9.27z"/><path d="M912 367.98l-18.5 6v-12zm-16.5 3.26l10.04-3.26-10.03-3.26z"/><use xlink:href="#C" transform="matrix(1,0,0,1,805.5578215343817,357.18101912491886) translate(0 14.4)"/><use xlink:href="#D" transform="matrix(1,0,0,1,805.5578215343817,357.18101912491886) translate(55 14.4)"/><path d="M675.65 342.98c0-2.76 2.24-5 5-5h110c2.76 0 5 2.24 5 5v50c0 2.76-2.24 5-5 5h-110c-2.76 0-5-2.24-5-5z" stroke="#000" stroke-width="2" fill="#fff"/><use xlink:href="#E" transform="matrix(1,0,0,1,683.6490527124153,345.9810191249188) translate(7.549999999999997 25.6)"/><path d="M478.98 158.48h-2v-19.7h2zm0-41.3h-2v-37.2h2z"/><path d="M478.98 80h-2V79h2zM477.98 173.74l-4.63-14.26h9.27z"/><path d="M477.98 176.98l-6-18.5h12zm-3.26-16.5l3.26 10.03 3.26-10.02z"/><g><use xlink:href="#F" transform="matrix(1,0,0,1,446.0060191249188,117.18101912491885) translate(0 14.4)"/></g><path d="M736.65 335.98h-2v-37.2h2zm0-58.8h-2v-19.7h2z"/><path d="M736.65 336.98h-2v-1.02h2zM740.28 256.48H731l4.65-14.26z"/><path d="M741.66 257.48h-12.02l6-18.5zm-9.27-2h6.5l-3.25-10.03z"/><g><use xlink:href="#G" transform="matrix(1,0,0,1,728.1490527124153,277.1810191249188) translate(0 14.4)"/></g><defs><path d="M197 0v-115H63V0H30v-248h33v105h134v-105h34V0h-34" id="H"/><path d="M100-194c62-1 85 37 85 99 1 63-27 99-86 99S16-35 15-95c0-66 28-99 85-99zM99-20c44 1 53-31 53-75 0-43-8-75-51-75s-53 32-53 75 10 74 51 75" id="I"/><path d="M24 0v-261h32V0H24" id="J"/><path d="M85-194c31 0 48 13 60 33l-1-100h32l1 261h-30c-2-10 0-23-3-31C134-8 116 4 85 4 32 4 16-35 15-94c0-66 23-100 70-100zm9 24c-40 0-46 34-46 75 0 40 6 74 45 74 42 0 51-32 51-76 0-42-9-74-50-73" id="K"/><path d="M100-194c63 0 86 42 84 106H49c0 40 14 67 53 68 26 1 43-12 49-29l28 8c-11 28-37 45-77 45C44 4 14-33 15-96c1-61 26-98 85-98zm52 81c6-60-76-77-97-28-3 7-6 17-6 28h103" id="L"/><path d="M114-163C36-179 61-72 57 0H25l-1-190h30c1 12-1 29 2 39 6-27 23-49 58-41v29" id="M"/><g id="a"><use transform="matrix(0.05,0,0,0.05,0,0)" xlink:href="#H"/><use transform="matrix(0.05,0,0,0.05,12.950000000000001,0)" xlink:href="#I"/><use transform="matrix(0.05,0,0,0.05,22.950000000000003,0)" xlink:href="#J"/><use transform="matrix(0.05,0,0,0.05,26.900000000000002,0)" xlink:href="#K"/><use transform="matrix(0.05,0,0,0.05,36.900000000000006,0)" xlink:href="#L"/><use transform="matrix(0.05,0,0,0.05,46.900000000000006,0)" xlink:href="#M"/></g><path d="M140-251c81 0 123 46 123 126C263-46 219 4 140 4 59 4 17-45 17-125s42-126 123-126zm0 227c63 0 89-41 89-101s-29-99-89-99c-61 0-89 39-89 99S79-25 140-24" id="N"/><path d="M177-190C167-65 218 103 67 71c-23-6-38-20-44-43l32-5c15 47 100 32 89-28v-30C133-14 115 1 83 1 29 1 15-40 15-95c0-56 16-97 71-98 29-1 48 16 59 35 1-10 0-23 2-32h30zM94-22c36 0 50-32 50-73 0-42-14-75-50-75-39 0-46 34-46 75s6 73 46 73" id="O"/><path d="M141-36C126-15 110 5 73 4 37 3 15-17 15-53c-1-64 63-63 125-63 3-35-9-54-41-54-24 1-41 7-42 31l-33-3c5-37 33-52 76-52 45 0 72 20 72 64v82c-1 20 7 32 28 27v20c-31 9-61-2-59-35zM48-53c0 20 12 33 32 33 41-3 63-29 60-74-43 2-92-5-92 41" id="P"/><path d="M117-194c89-4 53 116 60 194h-32v-121c0-31-8-49-39-48C34-167 62-67 57 0H25l-1-190h30c1 10-1 24 2 32 11-22 29-35 61-36" id="Q"/><path d="M24-231v-30h32v30H24zM24 0v-190h32V0H24" id="R"/><path d="M135-143c-3-34-86-38-87 0 15 53 115 12 119 90S17 21 10-45l28-5c4 36 97 45 98 0-10-56-113-15-118-90-4-57 82-63 122-42 12 7 21 19 24 35" id="S"/><path d="M59-47c-2 24 18 29 38 22v24C64 9 27 4 27-40v-127H5v-23h24l9-43h21v43h35v23H59v120" id="T"/><g id="b"><use transform="matrix(0.05,0,0,0.05,0,0)" xlink:href="#N"/><use transform="matrix(0.05,0,0,0.05,14,0)" xlink:href="#M"/><use transform="matrix(0.05,0,0,0.05,19.95,0)" xlink:href="#O"/><use transform="matrix(0.05,0,0,0.05,29.950000000000003,0)" xlink:href="#P"/><use transform="matrix(0.05,0,0,0.05,39.95,0)" xlink:href="#Q"/><use transform="matrix(0.05,0,0,0.05,49.95,0)" xlink:href="#R"/><use transform="matrix(0.05,0,0,0.05,53.900000000000006,0)" xlink:href="#S"/><use transform="matrix(0.05,0,0,0.05,62.900000000000006,0)" xlink:href="#P"/><use transform="matrix(0.05,0,0,0.05,72.9,0)" xlink:href="#T"/><use transform="matrix(0.05,0,0,0.05,77.9,0)" xlink:href="#R"/><use transform="matrix(0.05,0,0,0.05,81.85000000000001,0)" xlink:href="#I"/><use transform="matrix(0.05,0,0,0.05,91.85000000000001,0)" xlink:href="#Q"/></g><path d="M30-248c87 1 191-15 191 75 0 78-77 80-158 76V0H30v-248zm33 125c57 0 124 11 124-50 0-59-68-47-124-48v98" id="U"/><g id="c"><use transform="matrix(0.05,0,0,0.05,0,0)" xlink:href="#U"/><use transform="matrix(0.05,0,0,0.05,12,0)" xlink:href="#L"/><use transform="matrix(0.05,0,0,0.05,22,0)" xlink:href="#M"/><use transform="matrix(0.05,0,0,0.05,27.950000000000003,0)" xlink:href="#S"/><use transform="matrix(0.05,0,0,0.05,36.95,0)" xlink:href="#I"/><use transform="matrix(0.05,0,0,0.05,46.95,0)" xlink:href="#Q"/></g><path d="M143 4C61 4 22-44 18-125c-5-107 100-154 193-111 17 8 29 25 37 43l-32 9c-13-25-37-40-76-40-61 0-88 39-88 99 0 61 29 100 91 101 35 0 62-11 79-27v-45h-74v-28h105v86C228-13 192 4 143 4" id="V"/><path d="M96-169c-40 0-48 33-48 73s9 75 48 75c24 0 41-14 43-38l32 2c-6 37-31 61-74 61-59 0-76-41-82-99-10-93 101-131 147-64 4 7 5 14 7 22l-32 3c-4-21-16-35-41-35" id="W"/><g id="d"><use transform="matrix(0.05,0,0,0.05,0,0)" xlink:href="#V"/><use transform="matrix(0.05,0,0,0.05,14,0)" xlink:href="#L"/><use transform="matrix(0.05,0,0,0.05,24,0)" xlink:href="#I"/><use transform="matrix(0.05,0,0,0.05,34,0)" xlink:href="#J"/><use transform="matrix(0.05,0,0,0.05,37.95,0)" xlink:href="#I"/><use transform="matrix(0.05,0,0,0.05,47.95,0)" xlink:href="#O"/><use transform="matrix(0.05,0,0,0.05,57.95,0)" xlink:href="#R"/><use transform="matrix(0.05,0,0,0.05,61.900000000000006,0)" xlink:href="#W"/><use transform="matrix(0.05,0,0,0.05,70.9,0)" xlink:href="#P"/><use transform="matrix(0.05,0,0,0.05,80.9,0)" xlink:href="#J"/></g><path d="M84 4C-5 8 30-112 23-190h32v120c0 31 7 50 39 49 72-2 45-101 50-169h31l1 190h-30c-1-10 1-25-2-33-11 22-28 36-60 37" id="X"/><g id="e"><use transform="matrix(0.05,0,0,0.05,0,0)" xlink:href="#M"/><use transform="matrix(0.05,0,0,0.05,5.95,0)" xlink:href="#L"/><use transform="matrix(0.05,0,0,0.05,15.949999999999998,0)" xlink:href="#S"/><use transform="matrix(0.05,0,0,0.05,24.95,0)" xlink:href="#I"/><use transform="matrix(0.05,0,0,0.05,34.95,0)" xlink:href="#X"/><use transform="matrix(0.05,0,0,0.05,44.95,0)" xlink:href="#M"/><use transform="matrix(0.05,0,0,0.05,50.900000000000006,0)" xlink:href="#W"/><use transform="matrix(0.05,0,0,0.05,59.900000000000006,0)" xlink:href="#L"/></g><path d="M185-189c-5-48-123-54-124 2 14 75 158 14 163 119 3 78-121 87-175 55-17-10-28-26-33-46l33-7c5 56 141 63 141-1 0-78-155-14-162-118-5-82 145-84 179-34 5 7 8 16 11 25" id="Y"/><path d="M115-194c55 1 70 41 70 98S169 2 115 4C84 4 66-9 55-30l1 105H24l-1-265h31l2 30c10-21 28-34 59-34zm-8 174c40 0 45-34 45-75s-6-73-45-74c-42 0-51 32-51 76 0 43 10 73 51 73" id="Z"/><g id="f"><use transform="matrix(0.05,0,0,0.05,0,0)" xlink:href="#Y"/><use transform="matrix(0.05,0,0,0.05,12,0)" xlink:href="#Z"/><use transform="matrix(0.05,0,0,0.05,22,0)" xlink:href="#P"/><use transform="matrix(0.05,0,0,0.05,32,0)" xlink:href="#T"/><use transform="matrix(0.05,0,0,0.05,37,0)" xlink:href="#R"/><use transform="matrix(0.05,0,0,0.05,40.95,0)" xlink:href="#P"/><use transform="matrix(0.05,0,0,0.05,50.95,0)" xlink:href="#J"/></g><g id="g"><use transform="matrix(0.05,0,0,0.05,0,0)" xlink:href="#J"/><use transform="matrix(0.05,0,0,0.05,3.95,0)" xlink:href="#I"/><use transform="matrix(0.05,0,0,0.05,13.949999999999998,0)" xlink:href="#W"/><use transform="matrix(0.05,0,0,0.05,22.95,0)" xlink:href="#P"/><use transform="matrix(0.05,0,0,0.05,32.95,0)" xlink:href="#T"/><use transform="matrix(0.05,0,0,0.05,37.95,0)" xlink:href="#R"/><use transform="matrix(0.05,0,0,0.05,41.900000000000006,0)" xlink:href="#I"/><use transform="matrix(0.05,0,0,0.05,51.900000000000006,0)" xlink:href="#Q"/></g><path d="M205 0l-28-72H64L36 0H1l101-248h38L239 0h-34zm-38-99l-47-123c-12 45-31 82-46 123h93" id="aa"/><path d="M108 0H70L1-190h34L89-25l56-165h34" id="ab"/><path d="M179-190L93 31C79 59 56 82 12 73V49c39 6 53-20 64-50L1-190h34L92-34l54-156h33" id="ac"/><g id="h"><use transform="matrix(0.05,0,0,0.05,0,0)" xlink:href="#aa"/><use transform="matrix(0.05,0,0,0.05,12,0)" xlink:href="#W"/><use transform="matrix(0.05,0,0,0.05,21,0)" xlink:href="#T"/><use transform="matrix(0.05,0,0,0.05,26,0)" xlink:href="#R"/><use transform="matrix(0.05,0,0,0.05,29.950000000000003,0)" xlink:href="#ab"/><use transform="matrix(0.05,0,0,0.05,38.95,0)" xlink:href="#R"/><use transform="matrix(0.05,0,0,0.05,42.900000000000006,0)" xlink:href="#T"/><use transform="matrix(0.05,0,0,0.05,47.900000000000006,0)" xlink:href="#ac"/></g><path d="M210-169c-67 3-38 105-44 169h-31v-121c0-29-5-50-35-48C34-165 62-65 56 0H25l-1-190h30c1 10-1 24 2 32 10-44 99-50 107 0 11-21 27-35 58-36 85-2 47 119 55 194h-31v-121c0-29-5-49-35-48" id="ad"/><g id="i"><use transform="matrix(0.05,0,0,0.05,0,0)" xlink:href="#U"/><use transform="matrix(0.05,0,0,0.05,12,0)" xlink:href="#L"/><use transform="matrix(0.05,0,0,0.05,22,0)" xlink:href="#M"/><use transform="matrix(0.05,0,0,0.05,27.950000000000003,0)" xlink:href="#ad"/><use transform="matrix(0.05,0,0,0.05,42.9,0)" xlink:href="#R"/><use transform="matrix(0.05,0,0,0.05,46.85,0)" xlink:href="#T"/></g><path d="M30 0v-248h187v28H63v79h144v27H63v87h162V0H30" id="ae"/><path d="M141 0L90-78 38 0H4l68-98-65-92h35l48 74 47-74h35l-64 92 68 98h-35" id="af"/><g id="j"><use transform="matrix(0.05,0,0,0.05,0,0)" xlink:href="#ae"/><use transform="matrix(0.05,0,0,0.05,12,0)" xlink:href="#af"/><use transform="matrix(0.05,0,0,0.05,21,0)" xlink:href="#Z"/><use transform="matrix(0.05,0,0,0.05,31,0)" xlink:href="#J"/><use transform="matrix(0.05,0,0,0.05,34.95,0)" xlink:href="#I"/><use transform="matrix(0.05,0,0,0.05,44.95,0)" xlink:href="#M"/><use transform="matrix(0.05,0,0,0.05,50.900000000000006,0)" xlink:href="#P"/><use transform="matrix(0.05,0,0,0.05,60.900000000000006,0)" xlink:href="#T"/><use transform="matrix(0.05,0,0,0.05,65.9,0)" xlink:href="#R"/><use transform="matrix(0.05,0,0,0.05,69.85000000000001,0)" xlink:href="#I"/><use transform="matrix(0.05,0,0,0.05,79.85000000000001,0)" xlink:href="#Q"/></g><g id="k"><use transform="matrix(0.05,0,0,0.05,0,0)" xlink:href="#U"/><use transform="matrix(0.05,0,0,0.05,12,0)" xlink:href="#M"/><use transform="matrix(0.05,0,0,0.05,17.95,0)" xlink:href="#I"/><use transform="matrix(0.05,0,0,0.05,27.950000000000003,0)" xlink:href="#K"/><use transform="matrix(0.05,0,0,0.05,37.95,0)" xlink:href="#X"/><use transform="matrix(0.05,0,0,0.05,47.95,0)" xlink:href="#W"/><use transform="matrix(0.05,0,0,0.05,56.95,0)" xlink:href="#T"/><use transform="matrix(0.05,0,0,0.05,61.95,0)" xlink:href="#R"/><use transform="matrix(0.05,0,0,0.05,65.9,0)" xlink:href="#I"/><use transform="matrix(0.05,0,0,0.05,75.9,0)" xlink:href="#Q"/></g><g id="l"><use transform="matrix(0.05,0,0,0.05,0,0)" xlink:href="#R"/><use transform="matrix(0.05,0,0,0.05,3.95,0)" xlink:href="#S"/></g><use transform="matrix(0.05,0,0,0.05,0,0)" xlink:href="#P" id="m"/><path d="M101-234c-31-9-42 10-38 44h38v23H63V0H32v-167H5v-23h27c-7-52 17-82 69-68v24" id="ag"/><g id="n"><use transform="matrix(0.05,0,0,0.05,0,0)" xlink:href="#Z"/><use transform="matrix(0.05,0,0,0.05,10,0)" xlink:href="#L"/><use transform="matrix(0.05,0,0,0.05,20,0)" xlink:href="#M"/><use transform="matrix(0.05,0,0,0.05,25.950000000000003,0)" xlink:href="#ag"/><use transform="matrix(0.05,0,0,0.05,30.950000000000003,0)" xlink:href="#I"/><use transform="matrix(0.05,0,0,0.05,40.95,0)" xlink:href="#M"/><use transform="matrix(0.05,0,0,0.05,46.900000000000006,0)" xlink:href="#ad"/><use transform="matrix(0.05,0,0,0.05,61.85,0)" xlink:href="#S"/></g><g id="o"><use transform="matrix(0.05,0,0,0.05,0,0)" xlink:href="#I"/><use transform="matrix(0.05,0,0,0.05,10,0)" xlink:href="#Q"/></g><g id="p"><use transform="matrix(0.05,0,0,0.05,0,0)" xlink:href="#P"/><use transform="matrix(0.05,0,0,0.05,10,0)" xlink:href="#Q"/></g><g id="q"><use transform="matrix(0.05,0,0,0.05,0,0)" xlink:href="#P"/><use transform="matrix(0.05,0,0,0.05,10,0)" xlink:href="#T"/></g><g id="r"><use transform="matrix(0.05,0,0,0.05,0,0)" xlink:href="#R"/><use transform="matrix(0.05,0,0,0.05,3.95,0)" xlink:href="#S"/></g><g id="s"><use transform="matrix(0.05,0,0,0.05,0,0)" xlink:href="#W"/><use transform="matrix(0.05,0,0,0.05,9,0)" xlink:href="#M"/><use transform="matrix(0.05,0,0,0.05,14.949999999999998,0)" xlink:href="#L"/><use transform="matrix(0.05,0,0,0.05,24.95,0)" xlink:href="#P"/><use transform="matrix(0.05,0,0,0.05,34.95,0)" xlink:href="#T"/><use transform="matrix(0.05,0,0,0.05,39.95,0)" xlink:href="#L"/><use transform="matrix(0.05,0,0,0.05,49.95,0)" xlink:href="#S"/></g><path d="M76-167L44 0H12l33-167H18l4-23h27c3-47 25-81 82-69l-4 24c-35-8-44 15-46 45h37l-5 23H76" id="ah"/><path d="M30-147c31-64 166-65 159 27C183-49 158 1 86 4 9 8 1-88 30-147zM88-20c53 0 68-48 68-100 0-31-11-51-44-50-52 1-68 46-68 97 0 32 13 53 44 53" id="ai"/><path d="M66-151c12-25 30-51 66-40l-6 26C45-176 58-65 38 0H6l36-190h30" id="aj"/><g id="t"><use transform="matrix(0.05,0,0,0.05,0,0)" xlink:href="#ah"/><use transform="matrix(0.05,0,0,0.05,5,0)" xlink:href="#ai"/><use transform="matrix(0.05,0,0,0.05,15,0)" xlink:href="#aj"/></g><path d="M111-194c62-3 86 47 72 106H45c-7 38 6 69 45 68 27-1 43-14 53-32l24 11C152-15 129 4 87 4 38 3 12-23 12-71c0-70 32-119 99-123zm44 81c14-66-71-72-95-28-4 8-8 17-11 28h106" id="ak"/><path d="M124 0L87-78 21 0h-35l86-98-46-92h33l34 74 61-74h37l-83 92 50 98h-34" id="al"/><path d="M165-48c-4 18 1 34 23 27l-3 20c-29 8-62 0-52-35h-2C116-14 99 4 63 4 30 4 8-16 8-49c0-68 71-67 138-67 10-26 0-56-31-54-26 1-42 9-47 31l-32-5c8-67 160-71 144 15-5 28-9 54-15 81zM42-50c3 52 80 24 89-6 7-12 7-24 11-38-47 1-103-4-100 44" id="am"/><path d="M248-111c6-24 9-61-24-58-72 9-57 108-77 169h-31l26-142c3-37-50-30-64-10C52-115 50-51 37 0H6l36-190h30c-1 10-6 24-4 32 13-43 101-52 105 5 13-22 29-41 61-41 90 0 28 129 23 194h-31" id="an"/><path d="M67-162c32-53 139-36 121 50C175-51 163 2 97 4 68 4 52-11 42-31 38 6 28 39 22 75H-9l50-265h29c-1 10 0 20-3 28zm89 36c0-26-10-43-35-43-54 0-67 50-69 103-1 29 14 45 42 46 53 0 62-58 62-106" id="ao"/><path d="M6 0l50-261h32L37 0H6" id="ap"/><g id="u"><use transform="matrix(0.05,0,0,0.05,0,0)" xlink:href="#ak"/><use transform="matrix(0.05,0,0,0.05,10,0)" xlink:href="#al"/><use transform="matrix(0.05,0,0,0.05,19,0)" xlink:href="#am"/><use transform="matrix(0.05,0,0,0.05,29,0)" xlink:href="#an"/><use transform="matrix(0.05,0,0,0.05,43.95,0)" xlink:href="#ao"/><use transform="matrix(0.05,0,0,0.05,53.95,0)" xlink:href="#ap"/><use transform="matrix(0.05,0,0,0.05,57.900000000000006,0)" xlink:href="#ak"/></g><g id="v"><use transform="matrix(0.05,0,0,0.05,0,0)" xlink:href="#V"/><use transform="matrix(0.05,0,0,0.05,14,0)" xlink:href="#I"/><use transform="matrix(0.05,0,0,0.05,24,0)" xlink:href="#ab"/><use transform="matrix(0.05,0,0,0.05,33,0)" xlink:href="#L"/><use transform="matrix(0.05,0,0,0.05,43,0)" xlink:href="#M"/><use transform="matrix(0.05,0,0,0.05,48.95,0)" xlink:href="#Q"/><use transform="matrix(0.05,0,0,0.05,58.95,0)" xlink:href="#ad"/><use transform="matrix(0.05,0,0,0.05,73.9,0)" xlink:href="#L"/><use transform="matrix(0.05,0,0,0.05,83.9,0)" xlink:href="#Q"/><use transform="matrix(0.05,0,0,0.05,93.9,0)" xlink:href="#T"/></g><g id="w"><use transform="matrix(0.05,0,0,0.05,0,0)" xlink:href="#R"/><use transform="matrix(0.05,0,0,0.05,3.95,0)" xlink:href="#S"/><use transform="matrix(0.05,0,0,0.05,12.949999999999998,0)" xlink:href="#S"/><use transform="matrix(0.05,0,0,0.05,21.95,0)" xlink:href="#X"/><use transform="matrix(0.05,0,0,0.05,31.950000000000003,0)" xlink:href="#L"/><use transform="matrix(0.05,0,0,0.05,41.95,0)" xlink:href="#S"/></g><path d="M106-169C34-169 62-67 57 0H25v-261h32l-1 103c12-21 28-36 61-36 89 0 53 116 60 194h-32v-121c2-32-8-49-39-48" id="aq"/><g id="x"><use transform="matrix(0.05,0,0,0.05,0,0)" xlink:href="#aq"/><use transform="matrix(0.05,0,0,0.05,10,0)" xlink:href="#L"/><use transform="matrix(0.05,0,0,0.05,20,0)" xlink:href="#J"/><use transform="matrix(0.05,0,0,0.05,23.95,0)" xlink:href="#K"/></g><path d="M115-194c53 0 69 39 70 98 0 66-23 100-70 100C84 3 66-7 56-30L54 0H23l1-261h32v101c10-23 28-34 59-34zm-8 174c40 0 45-34 45-75 0-40-5-75-45-74-42 0-51 32-51 76 0 43 10 73 51 73" id="ar"/><g id="y"><use transform="matrix(0.05,0,0,0.05,0,0)" xlink:href="#ar"/><use transform="matrix(0.05,0,0,0.05,10,0)" xlink:href="#ac"/></g><g id="z"><use transform="matrix(0.05,0,0,0.05,0,0)" xlink:href="#W"/><use transform="matrix(0.05,0,0,0.05,9,0)" xlink:href="#X"/><use transform="matrix(0.05,0,0,0.05,19,0)" xlink:href="#S"/><use transform="matrix(0.05,0,0,0.05,28,0)" xlink:href="#T"/><use transform="matrix(0.05,0,0,0.05,33,0)" xlink:href="#I"/><use transform="matrix(0.05,0,0,0.05,43,0)" xlink:href="#K"/><use transform="matrix(0.05,0,0,0.05,53,0)" xlink:href="#R"/><use transform="matrix(0.05,0,0,0.05,56.95,0)" xlink:href="#P"/><use transform="matrix(0.05,0,0,0.05,66.95,0)" xlink:href="#Q"/></g><g id="A"><use transform="matrix(0.05,0,0,0.05,0,0)" xlink:href="#I"/><use transform="matrix(0.05,0,0,0.05,10,0)" xlink:href="#ag"/></g><path d="M30-248c118-7 216 8 213 122C240-48 200 0 122 0H30v-248zM63-27c89 8 146-16 146-99s-60-101-146-95v194" id="as"/><g id="B"><use transform="matrix(0.05,0,0,0.05,0,0)" xlink:href="#as"/><use transform="matrix(0.05,0,0,0.05,12.950000000000001,0)" xlink:href="#P"/><use transform="matrix(0.05,0,0,0.05,22.950000000000003,0)" xlink:href="#T"/><use transform="matrix(0.05,0,0,0.05,27.950000000000003,0)" xlink:href="#P"/></g><g id="C"><use transform="matrix(0.05,0,0,0.05,0,0)" xlink:href="#I"/><use transform="matrix(0.05,0,0,0.05,10,0)" xlink:href="#X"/><use transform="matrix(0.05,0,0,0.05,20,0)" xlink:href="#Z"/><use transform="matrix(0.05,0,0,0.05,30,0)" xlink:href="#T"/><use transform="matrix(0.05,0,0,0.05,35,0)" xlink:href="#X"/><use transform="matrix(0.05,0,0,0.05,45,0)" xlink:href="#T"/></g><g id="D"><use transform="matrix(0.05,0,0,0.05,0,0)" xlink:href="#P"/><use transform="matrix(0.05,0,0,0.05,10,0)" xlink:href="#S"/></g><path d="M194 0L95-120 63-95V0H30v-248h33v124l119-124h40L117-140 236 0h-42" id="at"/><path d="M206 0h-36l-40-164L89 0H53L-1-190h32L70-26l43-164h34l41 164 42-164h31" id="au"/><g id="E"><use transform="matrix(0.05,0,0,0.05,0,0)" xlink:href="#at"/><use transform="matrix(0.05,0,0,0.05,12,0)" xlink:href="#Q"/><use transform="matrix(0.05,0,0,0.05,22,0)" xlink:href="#I"/><use transform="matrix(0.05,0,0,0.05,32,0)" xlink:href="#au"/><use transform="matrix(0.05,0,0,0.05,44.95,0)" xlink:href="#J"/><use transform="matrix(0.05,0,0,0.05,48.900000000000006,0)" xlink:href="#L"/><use transform="matrix(0.05,0,0,0.05,58.900000000000006,0)" xlink:href="#K"/><use transform="matrix(0.05,0,0,0.05,68.9,0)" xlink:href="#O"/><use transform="matrix(0.05,0,0,0.05,78.9,0)" xlink:href="#L"/></g><g id="F"><use transform="matrix(0.05,0,0,0.05,0,0)" xlink:href="#O"/><use transform="matrix(0.05,0,0,0.05,10,0)" xlink:href="#I"/><use transform="matrix(0.05,0,0,0.05,20,0)" xlink:href="#ab"/><use transform="matrix(0.05,0,0,0.05,29,0)" xlink:href="#L"/><use transform="matrix(0.05,0,0,0.05,39,0)" xlink:href="#M"/><use transform="matrix(0.05,0,0,0.05,44.95,0)" xlink:href="#Q"/><use transform="matrix(0.05,0,0,0.05,54.95,0)" xlink:href="#S"/></g><g id="G"><use transform="matrix(0.05,0,0,0.05,0,0)" xlink:href="#I"/><use transform="matrix(0.05,0,0,0.05,10,0)" xlink:href="#ag"/></g></defs></g></svg>