<svg xmlns="http://www.w3.org/2000/svg" xmlns:xlink="http://www.w3.org/1999/xlink" xmlns:lucid="lucid" width="1581.25" height="966.5"><g transform="translate(-7.302859393350758 -7.302859393350758)" lucid:page-tab-id="0_0"><path d="M0 0h1595.85v1128.97H0z" fill="#fff"/><path d="M1108.55 531.85l80-45.84 80 45.85V606h-160z" stroke="#000" stroke-width="2" fill="#fff"/><use xlink:href="#a" transform="matrix(1,0,0,1,1108.549272148001,486.01298634935904) translate(42 63.6)"/><path d="M1108.55 286.5h160v40h-160z" stroke="#000" fill="#fff"/><use xlink:href="#b" transform="matrix(1,0,0,1,1113.549272148001,291.51298634935904) translate(36.55 18.6)"/><path d="M1108.55 404.72h160v40h-160z" stroke="#000" fill="#fff"/><use xlink:href="#c" transform="matrix(1,0,0,1,1113.549272148001,409.7231133053673) translate(21.4 18.6)"/><path d="M1106.13 544.5l-.62 1.9-27.94-9v-2.1zM939.6 490.88v2.1l-134.2-43.23.6-1.9z"/><path d="M806.03 447.86l-.6 1.9-.68-.22v-2.1zM1107.55 546l-21.16 4.8-.45-1.95 17.86-4.04-12.13-13.7 1.5-1.32z"/><use xlink:href="#d" transform="matrix(1,0,0,1,939.6130906136214,481.74179482152806) translate(18.054999999999986 14.4)"/><use xlink:href="#e" transform="matrix(1,0,0,1,939.6130906136214,481.74179482152806) translate(26.529999999999987 36)"/><use xlink:href="#f" transform="matrix(1,0,0,1,939.6130906136214,481.74179482152806) translate(0.0049999999999954525 57.6)"/><path d="M641.77 414.33l-.04 2-69.1-1.67v-2zm-208.03-5v2l-42.4-1.03.05-2z"/><path d="M642.75 414.35v2l-1.05-.02.05-2zM409.46 400.4l-15.98 8.95 15.53 9.7-1.05 1.7-18.4-11.5 18.93-10.6z"/><use xlink:href="#g" transform="matrix(1,0,0,1,433.7411277752156,401.19076535739737) translate(0.0049999999999954525 14.4)"/><use xlink:href="#h" transform="matrix(1,0,0,1,433.7411277752156,401.19076535739737) translate(34.004999999999995 14.4)"/><use xlink:href="#i" transform="matrix(1,0,0,1,433.7411277752156,401.19076535739737) translate(95.005 14.4)"/><path d="M724.75 355.3h-2v-54.43h2zm0-76.03h-2v-90.15h2z"/><path d="M724.75 356.3h-2v-1.02h2zM734.8 205.97l-1.73 1.02-9.32-15.77-9.32 15.76-1.72-1.03 11.05-18.67z"/><use xlink:href="#j" transform="matrix(1,0,0,1,659.324272148001,279.2712957901329) translate(0 14.4)"/><use xlink:href="#k" transform="matrix(1,0,0,1,659.324272148001,279.2712957901329) translate(17.95 14.4)"/><use xlink:href="#l" transform="matrix(1,0,0,1,659.324272148001,279.2712957901329) translate(69.85000000000001 14.4)"/><use xlink:href="#m" transform="matrix(1,0,0,1,659.324272148001,279.2712957901329) translate(108.85000000000001 14.4)"/><path d="M391.62 567.4l-.88-1.8 82.8-40.5h4.56zM642.3 444.83L522.26 503.5h-4.55l123.7-60.47z"/><path d="M642.75 444.6l-.48.24-.88-1.8 1.35-.67zM403.14 550.28l-10.06 15.3 18.25 1.45-.16 2-21.62-1.73 11.92-18.12z"/><use xlink:href="#g" transform="matrix(1,0,0,1,434.98474445274036,503.5143699639438) translate(0 14.4)"/><use xlink:href="#n" transform="matrix(1,0,0,1,434.98474445274036,503.5143699639438) translate(34 14.4)"/><use xlink:href="#o" transform="matrix(1,0,0,1,434.98474445274036,503.5143699639438) translate(88.85 14.4)"/><path d="M950.96 356.46L806 401.6l-.6-1.92 145.56-45.3zM1106.6 308l-39.8 12.4v-2.1l39.22-12.2z"/><path d="M806.03 401.58l-1.28.4v-2.1l.68-.2zM1108.05 306.5l-14.55 16.1-1.48-1.34 12.28-13.58-17.82-4.2.46-1.96z"/><use xlink:href="#p" transform="matrix(1,0,0,1,950.9601520795334,304.9836494588171) translate(29.480000000000004 14.4)"/><use xlink:href="#q" transform="matrix(1,0,0,1,950.9601520795334,304.9836494588171) translate(0.005000000000002558 36)"/><use xlink:href="#r" transform="matrix(1,0,0,1,950.9601520795334,304.9836494588171) translate(9.530000000000001 57.6)"/><path d="M957.62 425.72H805.75v-2h151.87zm148.6 0h-51.75v-2h51.76z"/><path d="M805.77 425.72h-1.02v-2h1.02zM1108.05 424.72l-18.67 11.04-1.02-1.72 15.76-9.32-15.76-9.32 1.02-1.72z"/><use xlink:href="#s" transform="matrix(1,0,0,1,957.6200881396869,392.3231133053673) translate(3.9550000000000054 14.4)"/><use xlink:href="#t" transform="matrix(1,0,0,1,957.6200881396869,392.3231133053673) translate(7.955000000000005 36)"/><use xlink:href="#u" transform="matrix(1,0,0,1,957.6200881396869,392.3231133053673) translate(0.005000000000002558 57.6)"/><path d="M309.55 684.48h-2v-19.92h2zm0-41.52h-2V629.3h2z"/><path d="M309.55 629.33h-2v-1.03h2zM319.6 667.63l-11.05 18.67-11.04-18.67 1.73-1.02 9.32 15.77 9.32-15.76z"/><use xlink:href="#v" transform="matrix(1,0,0,1,237.09927214800103,642.9573561813593) translate(0 14.4)"/><path d="M109.38 687.85l-.92-1.77 27.66-14.35h4.35zm118.6-61.48l-45.85 23.76h-4.35l49.27-25.54z"/><path d="M227.86 624.28l1.13 1.56-1.05.54-.93-1.78.82-.42zM110.8 686l18.27 1-.1 2-21.67-1.2 10.04-16.07h2.36z"/><use xlink:href="#g" transform="matrix(1,0,0,1,96.17616159812103,650.133955713057) translate(0 14.4)"/><use xlink:href="#w" transform="matrix(1,0,0,1,96.17616159812103,650.133955713057) translate(34 14.4)"/><use xlink:href="#x" transform="matrix(1,0,0,1,96.17616159812103,650.133955713057) translate(88.9 14.4)"/><path d="M228.55 512.3c0-2.76 2.24-5 5-5h150c2.76 0 5 2.24 5 5v110c0 2.76-2.24 5-5 5h-150c-2.76 0-5-2.24-5-5z" stroke="#000" stroke-width="2" fill="#666"/><use xlink:href="#y" transform="matrix(1,0,0,1,236.54927214800102,515.3028593933508) translate(46.075 55.6)"/><path d="M27.3 738.82c0-2.76 1.94-6.12 4.33-7.5l71.35-41.5c2.4-1.4 6.26-1.4 8.65 0l71.35 41.5c2.4 1.38 4.32 4.74 4.32 7.5v63.48c0 2.76-2.24 5-5 5h-150c-2.76 0-5-2.24-5-5z" stroke="#000" stroke-width="2" fill="#fff"/><use xlink:href="#z" transform="matrix(1,0,0,1,27.302859393350758,687.3028593933509) translate(60.025 52.8)"/><use xlink:href="#A" transform="matrix(1,0,0,1,27.302859393350758,687.3028593933509) translate(56.5 74.4)"/><path d="M643.75 71.3c0-2.76 2.24-5 5-5h150c2.76 0 5 2.24 5 5v110c0 2.76-2.24 5-5 5h-150c-2.76 0-5-2.24-5-5z" stroke="#000" stroke-width="2" fill="#b2b2b2"/><use xlink:href="#B" transform="matrix(1,0,0,1,651.749272148001,74.30285939335076) translate(29.049999999999997 34)"/><use xlink:href="#C" transform="matrix(1,0,0,1,651.749272148001,74.30285939335076) translate(10.574999999999996 55.6)"/><use xlink:href="#D" transform="matrix(1,0,0,1,651.749272148001,74.30285939335076) translate(79.525 55.6)"/><use xlink:href="#E" transform="matrix(1,0,0,1,651.749272148001,74.30285939335076) translate(52.525 77.2)"/><path d="M228.55 692.3c0-2.76 2.24-5 5-5h150c2.76 0 5 2.24 5 5v110c0 2.76-2.24 5-5 5h-150c-2.76 0-5-2.24-5-5z" stroke="#000" stroke-width="2" fill="#fff"/><use xlink:href="#F" transform="matrix(1,0,0,1,236.54927214800102,695.3028593933508) translate(54.5 44.8)"/><use xlink:href="#G" transform="matrix(1,0,0,1,236.54927214800102,695.3028593933508) translate(32.55 66.4)"/><path d="M643.75 362.3c0-2.76 2.24-5 5-5h150c2.76 0 5 2.24 5 5v110c0 2.76-2.24 5-5 5h-150c-2.76 0-5-2.24-5-5z" stroke="#000" stroke-width="2" fill="#666"/><use xlink:href="#H" transform="matrix(1,0,0,1,651.749272148001,365.3028593933508) translate(29.049999999999997 44.8)"/><use xlink:href="#I" transform="matrix(1,0,0,1,651.749272148001,365.3028593933508) translate(10.574999999999996 66.4)"/><use xlink:href="#J" transform="matrix(1,0,0,1,651.749272148001,365.3028593933508) translate(79.525 66.4)"/><path d="M228.55 352.3c0-2.76 2.24-5 5-5h150c2.76 0 5 2.24 5 5v110c0 2.76-2.24 5-5 5h-150c-2.76 0-5-2.24-5-5z" stroke="#000" stroke-width="2" fill="#b2b2b2"/><use xlink:href="#K" transform="matrix(1,0,0,1,236.54927214800102,355.3028593933508) translate(15.049999999999997 55.6)"/><use xlink:href="#L" transform="matrix(1,0,0,1,236.54927214800102,355.3028593933508) translate(78.05 55.6)"/><path d="M845.97 71.3c0-2.76 2.24-5 5-5h150c2.76 0 5 2.24 5 5v110c0 2.76-2.24 5-5 5h-150c-2.76 0-5-2.24-5-5z" stroke="#000" stroke-width="2" fill="#666"/><use xlink:href="#M" transform="matrix(1,0,0,1,853.9724785253261,74.30285939335076) translate(44.025 34)"/><use xlink:href="#N" transform="matrix(1,0,0,1,853.9724785253261,74.30285939335076) translate(64.025 55.6)"/><use xlink:href="#O" transform="matrix(1,0,0,1,853.9724785253261,74.30285939335076) translate(23.549999999999997 77.2)"/><path d="M775.37 356.23l-1.5-1.34 94.87-105.47h2.7zm150.13-166.9l-34.64 38.5h-2.7L924.02 188z"/><path d="M775.4 356.2l-2.8.1 1.3-1.43zM921.7 208.57l-1.96-.4 3.6-17.95-17.46 5.5-.6-1.92 20.7-6.5z"/><use xlink:href="#P" transform="matrix(1,0,0,1,794.3743464985416,227.83494268515818) translate(0 14.4)"/><use xlink:href="#Q" transform="matrix(1,0,0,1,794.3743464985416,227.83494268515818) translate(130.85000000000002 14.4)"/><path d="M724.75 684.48h-2V592.6h2zm0-113.48h-2v-92.7h2z"/><path d="M724.75 478.33h-2v-1.03h2zM734.8 667.63l-11.05 18.67-11.04-18.67 1.73-1.02 9.32 15.77 9.32-15.76z"/><use xlink:href="#g" transform="matrix(1,0,0,1,643.874272148001,571.0028593933508) translate(0.0049999999999954525 14.4)"/><use xlink:href="#R" transform="matrix(1,0,0,1,643.874272148001,571.0028593933508) translate(34.004999999999995 14.4)"/><use xlink:href="#S" transform="matrix(1,0,0,1,643.874272148001,571.0028593933508) translate(109.855 14.4)"/><path d="M600.98 912.9l-1.28-1.53 30.84-25.95h3.1zm122.65-103.2l-64.3 54.12h-3.12l66.14-55.64z"/><path d="M723.6 809.73l-1.2-1.43h2.9zM608 893.5l-6.05 17.27 18.06-3 .34 1.96-21.4 3.57 7.2-20.47z"/><use xlink:href="#T" transform="matrix(1,0,0,1,572.4042785727897,863.8173813122048) translate(0.0049999999999954525 14.4)"/><path d="M518.95 913.8h160v40h-160z" stroke="#000" fill="#fff"/><use xlink:href="#c" transform="matrix(1,0,0,1,523.948563556327,918.8028593932733) translate(21.4 18.6)"/><path d="M766.95 913.8h160v40h-160z" stroke="#000" fill="#fff"/><use xlink:href="#c" transform="matrix(1,0,0,1,771.9485635563269,918.8028593932733) translate(21.4 18.6)"/><path d="M846.2 911.36l-1.28 1.52-32.35-27.56h3.08zm-55.9-47.64h-3.08l-63.36-54 1.3-1.53z"/><path d="M723.88 809.73l-1.67-1.43h2.9zM846.95 913.3l-21.37-3.7.34-1.97 18.04 3.12-5.95-17.3 1.9-.66z"/><use xlink:href="#U" transform="matrix(1,0,0,1,731.8879403552429,863.7151733482921) translate(0.0049999999999954525 14.4)"/><path d="M523.45 685.53l-1.55-1.27 35.48-43.53h2.58zM692.03 478.7L577.57 619.14H575l115.48-141.68z"/><path d="M692.66 477.93l-.65.8-1.54-1.26.65-.8zM526.74 665.15l-2.73 18.1 17.2-6.32.68 1.88-20.35 7.5 3.23-21.45z"/><use xlink:href="#V" transform="matrix(1,0,0,1,498.549185203022,619.1320008313062) translate(0.0049999999999954525 14.4)"/><use xlink:href="#m" transform="matrix(1,0,0,1,498.549185203022,619.1320008313062) translate(117.855 14.4)"/><path d="M441.53 692.3c0-2.76 2.23-5 5-5h150c2.76 0 5 2.24 5 5v110c0 2.76-2.24 5-5 5h-150c-2.77 0-5-2.24-5-5z" stroke="#000" stroke-width="2" fill="#fff"/><use xlink:href="#W" transform="matrix(1,0,0,1,449.5260657706759,695.3028593933508) translate(23.525 55.6)"/><path d="M643.75 692.3c0-2.76 2.24-5 5-5h150c2.76 0 5 2.24 5 5v110c0 2.76-2.24 5-5 5h-150c-2.76 0-5-2.24-5-5z" stroke="#000" stroke-width="2" fill="#fff"/><use xlink:href="#X" transform="matrix(1,0,0,1,651.7492721480011,695.3028593933508) translate(52.55 44.8)"/><use xlink:href="#Y" transform="matrix(1,0,0,1,651.7492721480011,695.3028593933508) translate(15.599999999999994 66.4)"/><path d="M925.63 684.26l-1.57 1.24-36.64-46.42h2.55zm-52.7-66.78h-2.56L760.8 478.7l1.58-1.23z"/><path d="M762.4 477.5l-1.57 1.23-.64-.8 1.56-1.25zM925.97 686.3l-20.23-7.8.72-1.88 17.08 6.6-2.45-18.15 1.97-.26z"/><use xlink:href="#Z" transform="matrix(1,0,0,1,808.2180763789133,617.4814701100481) translate(0.009999999999990905 14.4)"/><use xlink:href="#Q" transform="matrix(1,0,0,1,808.2180763789133,617.4814701100481) translate(103.91 14.4)"/><path d="M845.97 692.3c0-2.76 2.24-5 5-5h150c2.76 0 5 2.24 5 5v110c0 2.76-2.24 5-5 5h-150c-2.76 0-5-2.24-5-5z" stroke="#000" stroke-width="2" fill="#fff"/><use xlink:href="#aa" transform="matrix(1,0,0,1,853.9724785253261,695.3028593933508) translate(25.074999999999996 55.6)"/><path d="M642.34 382.06l-.95 1.76-107.27-57.66h4.22zm-144.17-77.5h-4.22l-103.27-55.52.94-1.76z"/><path d="M642.75 382.28v2.27l-1.38-.74.95-1.76zM411.3 248.42l-18.3.74 9.48 15.67-1.7 1.04-11.23-18.57 21.67-.88z"/><use xlink:href="#ab" transform="matrix(1,0,0,1,450.674272148001,304.55666024988176) translate(0.0049999999999954525 14.4)"/><use xlink:href="#x" transform="matrix(1,0,0,1,450.674272148001,304.55666024988176) translate(93.955 14.4)"/><path d="M228.55 192.3c0-2.76 2.24-5 5-5h150c2.76 0 5 2.24 5 5v110c0 2.76-2.24 5-5 5h-150c-2.76 0-5-2.24-5-5z" stroke="#000" stroke-width="2" fill="#b2b2b2"/><use xlink:href="#ac" transform="matrix(1,0,0,1,236.54927214800102,195.30285939335076) translate(18.525 44.8)"/><use xlink:href="#ad" transform="matrix(1,0,0,1,236.54927214800102,195.30285939335076) translate(63.525 44.8)"/><use xlink:href="#ae" transform="matrix(1,0,0,1,236.54927214800102,195.30285939335076) translate(44.05 66.4)"/><path d="M1108.55 652.3c0-2.76 2.24-5 5-5h150c2.76 0 5 2.24 5 5v110c0 2.76-2.24 5-5 5h-150c-2.76 0-5-2.24-5-5z" stroke="#000" stroke-width="2" fill="#fff"/><use xlink:href="#af" transform="matrix(1,0,0,1,1116.549272148001,655.3028593933508) translate(7.625 55.6)"/><path d="M1106.7 705.4l-1.2 1.6-157.42-119.88h3.3zM923.03 565.53h-3.3l-115.9-88.25 1.22-1.6z"/><path d="M805.06 475.7l-1.2 1.6-1.07-.8.83-.63.33-1zM1107.55 707.3l-21.54-2.52.24-2 18.18 2.14-6.9-16.96 1.86-.75z"/><use xlink:href="#ag" transform="matrix(1,0,0,1,872.6479891620709,565.5245035034866) translate(0.005000000000002558 14.4)"/><path d="M1108.55 836.2h160v40h-160z" stroke="#000" fill="#fff"/><use xlink:href="#ah" transform="matrix(1,0,0,1,1113.549272148001,841.1956849026519) translate(26.049999999999997 18.6)"/><path d="M1189.55 833.88h-2v-25.46h2zm0-47.06h-2V769.3h2z"/><path d="M1189.55 769.33h-2v-1.03h2zM1199.6 817.03l-11.05 18.67-11.04-18.67 1.73-1.02 9.32 15.77 9.32-15.76z"/><g><use xlink:href="#ai" transform="matrix(1,0,0,1,1112.6492721480008,786.8217722072752) translate(0 14.4)"/></g><path d="M1108.55 132.3c0-2.76 2.24-5 5-5h150c2.76 0 5 2.24 5 5v110c0 2.76-2.24 5-5 5h-150c-2.76 0-5-2.24-5-5z" stroke="#000" stroke-width="2" fill="#fff"/><g><use xlink:href="#aj" transform="matrix(1,0,0,1,1116.549272148001,135.30285939335076) translate(21.525 55.6)"/></g><path d="M1092.34 197.9l-286.2 177.07-1.07-1.7L1091.3 196.2z"/><path d="M806.15 374.96l-1.4.87v-2.36l.35-.2z"/><path d="M1095.1 200.45l-4.87-7.88 14.57-3.56z" fill="#fff"/><path d="M1094.98 202.15l-6.33-10.22 18.9-4.63zm-3.18-8.94l3.43 5.56 6.82-8.05z"/><path d="M441.53 71.3c0-2.76 2.23-5 5-5h150c2.76 0 5 2.24 5 5v110c0 2.76-2.24 5-5 5h-150c-2.77 0-5-2.24-5-5z" stroke="#000" stroke-width="2" fill="#b2b2b2"/><g><use xlink:href="#ak" transform="matrix(1,0,0,1,449.5260657706759,74.30285939335076) translate(16.049999999999997 44.8)"/><use xlink:href="#al" transform="matrix(1,0,0,1,449.5260657706759,74.30285939335076) translate(64 44.8)"/><use xlink:href="#am" transform="matrix(1,0,0,1,449.5260657706759,74.30285939335076) translate(14.074999999999996 66.4)"/><use xlink:href="#an" transform="matrix(1,0,0,1,449.5260657706759,74.30285939335076) translate(57.025 66.4)"/></g><path d="M680.36 354.9l-1.45 1.36-100.37-106.83h2.75zM560.98 227.82h-2.74l-36.2-38.52 1.46-1.36z"/><path d="M681.7 356.3h-2.75l1.4-1.43zM542.36 193.35l-.56 1.92-17.58-5.1 4 17.86-1.96.44-4.73-21.17z"/><g><use xlink:href="#ao" transform="matrix(1,0,0,1,499.30771502238787,227.83494268515818) translate(0 14.4)"/><use xlink:href="#ap" transform="matrix(1,0,0,1,499.30771502238787,227.83494268515818) translate(34 14.4)"/><use xlink:href="#aq" transform="matrix(1,0,0,1,499.30771502238787,227.83494268515818) translate(79.95 14.4)"/></g><path d="M1384.25 582h100.5M1384.27 582h-1.02" stroke="#000" stroke-width="2" fill="none"/><path d="M1500 582l-14.26 4.63v-9.27z" stroke="#000" stroke-width="2" fill="#fff"/><path d="M1368.55 372.3c0-2.76 2.24-5 5-5h150c2.76 0 5 2.24 5 5v110c0 2.76-2.24 5-5 5h-150c-2.76 0-5-2.24-5-5z" stroke="#000" stroke-width="2" fill="#b2b2b2"/><g><use xlink:href="#ar" transform="matrix(1,0,0,1,1376.549272148001,375.3028593933508) translate(51 44.8)"/><use xlink:href="#as" transform="matrix(1,0,0,1,1376.549272148001,375.3028593933508) translate(38.525 66.4)"/></g><path d="M1368.55 232.3c0-2.76 2.24-5 5-5h150c2.76 0 5 2.24 5 5v110c0 2.76-2.24 5-5 5h-150c-2.76 0-5-2.24-5-5z" stroke="#000" stroke-width="2" fill="#666"/><g><use xlink:href="#at" transform="matrix(1,0,0,1,1376.549272148001,235.3028593933508) translate(27.049999999999997 55.6)"/><use xlink:href="#au" transform="matrix(1,0,0,1,1376.549272148001,235.3028593933508) translate(72.05 55.6)"/></g><path d="M1368.55 32.3c0-2.76 2.24-5 5-5h190c2.76 0 5 2.24 5 5v50c0 2.76-2.24 5-5 5h-190c-2.76 0-5-2.24-5-5z" stroke="#000" stroke-opacity="0" stroke-width="2" fill="#fff" fill-opacity="0"/><g><use xlink:href="#av" transform="matrix(1,0,0,1,1373.549272148001,32.30285939335076) translate(0 28.6)"/><use xlink:href="#aw" transform="matrix(1,0,0,1,1373.549272148001,32.30285939335076) translate(72.80000000000001 28.6)"/><use xlink:href="#ax" transform="matrix(1,0,0,1,1373.549272148001,32.30285939335076) translate(143.70000000000002 28.6)"/></g><path d="M1368.55 89.64c0-2.77 2.24-5 5-5h150c2.76 0 5 2.23 5 5v110c0 2.76-2.24 5-5 5h-150c-2.76 0-5-2.24-5-5z" stroke="#000" stroke-width="2" fill="#fff"/><g><use xlink:href="#ay" transform="matrix(1,0,0,1,1376.549272148001,92.63619272668416) translate(56.05 44.8)"/><use xlink:href="#az" transform="matrix(1,0,0,1,1376.549272148001,92.63619272668416) translate(49.55 66.4)"/></g><path d="M1383.25 527c0-2.76 2.23-5 5-5h110c2.76 0 5 2.24 5 5v30c0 2.76-2.24 5-5 5h-110c-2.77 0-5-2.24-5-5z" stroke="#000" stroke-opacity="0" stroke-width="2" fill="#fff" fill-opacity="0"/><g><use xlink:href="#aA" transform="matrix(1,0,0,1,1388.2457024409512,526.999289686301) translate(0 22.799999999999997)"/></g><path d="M1368.55 642h160v40h-160z" stroke="#000" fill="#fff"/><g><use xlink:href="#aB" transform="matrix(1,0,0,1,1373.549272148001,646.999289686301) translate(50.575 18.6)"/></g><path d="M1384.25 522h107.18M1384.27 522h-1.02M1474.07 532.18l17.2-10.18-17.2-10.18" stroke="#000" stroke-width="2" fill="none"/><path d="M1383.25 587c0-2.76 2.23-5 5-5h150c2.76 0 5 2.24 5 5v30c0 2.76-2.24 5-5 5h-150c-2.77 0-5-2.24-5-5z" stroke="#000" stroke-opacity="0" stroke-width="2" fill="#fff" fill-opacity="0"/><g><use xlink:href="#aC" transform="matrix(1,0,0,1,1388.2457024409512,586.999289686301) translate(0 22.799999999999997)"/></g><defs><path d="M85-194c31 0 48 13 60 33l-1-100h32l1 261h-30c-2-10 0-23-3-31C134-8 116 4 85 4 32 4 16-35 15-94c0-66 23-100 70-100zm9 24c-40 0-46 34-46 75 0 40 6 74 45 74 42 0 51-32 51-76 0-42-9-74-50-73" id="aD"/><path d="M96-169c-40 0-48 33-48 73s9 75 48 75c24 0 41-14 43-38l32 2c-6 37-31 61-74 61-59 0-76-41-82-99-10-93 101-131 147-64 4 7 5 14 7 22l-32 3c-4-21-16-35-41-35" id="aE"/><path d="M59-47c-2 24 18 29 38 22v24C64 9 27 4 27-40v-127H5v-23h24l9-43h21v43h35v23H59v120" id="aF"/><path d="M33-154v-36h34v36H33zM33 0v-36h34V0H33" id="aG"/><path d="M205 0l-28-72H64L36 0H1l101-248h38L239 0h-34zm-38-99l-47-123c-12 45-31 82-46 123h93" id="aH"/><path d="M177-190C167-65 218 103 67 71c-23-6-38-20-44-43l32-5c15 47 100 32 89-28v-30C133-14 115 1 83 1 29 1 15-40 15-95c0-56 16-97 71-98 29-1 48 16 59 35 1-10 0-23 2-32h30zM94-22c36 0 50-32 50-73 0-42-14-75-50-75-39 0-46 34-46 75s6 73 46 73" id="aI"/><path d="M100-194c63 0 86 42 84 106H49c0 40 14 67 53 68 26 1 43-12 49-29l28 8c-11 28-37 45-77 45C44 4 14-33 15-96c1-61 26-98 85-98zm52 81c6-60-76-77-97-28-3 7-6 17-6 28h103" id="aJ"/><path d="M117-194c89-4 53 116 60 194h-32v-121c0-31-8-49-39-48C34-167 62-67 57 0H25l-1-190h30c1 10-1 24 2 32 11-22 29-35 61-36" id="aK"/><g id="a"><use transform="matrix(0.05,0,0,0.05,0,0)" xlink:href="#aD"/><use transform="matrix(0.05,0,0,0.05,10,0)" xlink:href="#aE"/><use transform="matrix(0.05,0,0,0.05,19,0)" xlink:href="#aF"/><use transform="matrix(0.05,0,0,0.05,24,0)" xlink:href="#aG"/><use transform="matrix(0.05,0,0,0.05,29,0)" xlink:href="#aH"/><use transform="matrix(0.05,0,0,0.05,41,0)" xlink:href="#aI"/><use transform="matrix(0.05,0,0,0.05,51,0)" xlink:href="#aJ"/><use transform="matrix(0.05,0,0,0.05,61,0)" xlink:href="#aK"/><use transform="matrix(0.05,0,0,0.05,71,0)" xlink:href="#aF"/></g><path d="M141 0L90-78 38 0H4l68-98-65-92h35l48 74 47-74h35l-64 92 68 98h-35" id="aL"/><path d="M135-143c-3-34-86-38-87 0 15 53 115 12 119 90S17 21 10-45l28-5c4 36 97 45 98 0-10-56-113-15-118-90-4-57 82-63 122-42 12 7 21 19 24 35" id="aM"/><path d="M114-163C36-179 61-72 57 0H25l-1-190h30c1 12-1 29 2 39 6-27 23-49 58-41v29" id="aN"/><path d="M24-231v-30h32v30H24zM24 0v-190h32V0H24" id="aO"/><g id="b"><use transform="matrix(0.05,0,0,0.05,0,0)" xlink:href="#aL"/><use transform="matrix(0.05,0,0,0.05,9,0)" xlink:href="#aM"/><use transform="matrix(0.05,0,0,0.05,18,0)" xlink:href="#aD"/><use transform="matrix(0.05,0,0,0.05,28,0)" xlink:href="#aG"/><use transform="matrix(0.05,0,0,0.05,33,0)" xlink:href="#aM"/><use transform="matrix(0.05,0,0,0.05,42,0)" xlink:href="#aF"/><use transform="matrix(0.05,0,0,0.05,47,0)" xlink:href="#aN"/><use transform="matrix(0.05,0,0,0.05,52.95,0)" xlink:href="#aO"/><use transform="matrix(0.05,0,0,0.05,56.900000000000006,0)" xlink:href="#aK"/><use transform="matrix(0.05,0,0,0.05,66.9,0)" xlink:href="#aI"/></g><path d="M141-36C126-15 110 5 73 4 37 3 15-17 15-53c-1-64 63-63 125-63 3-35-9-54-41-54-24 1-41 7-42 31l-33-3c5-37 33-52 76-52 45 0 72 20 72 64v82c-1 20 7 32 28 27v20c-31 9-61-2-59-35zM48-53c0 20 12 33 32 33 41-3 63-29 60-74-43 2-92-5-92 41" id="aP"/><path d="M127-220V0H93v-220H8v-28h204v28h-85" id="aQ"/><path d="M210-169c-67 3-38 105-44 169h-31v-121c0-29-5-50-35-48C34-165 62-65 56 0H25l-1-190h30c1 10-1 24 2 32 10-44 99-50 107 0 11-21 27-35 58-36 85-2 47 119 55 194h-31v-121c0-29-5-49-35-48" id="aR"/><g id="c"><use transform="matrix(0.05,0,0,0.05,0,0)" xlink:href="#aL"/><use transform="matrix(0.05,0,0,0.05,9,0)" xlink:href="#aM"/><use transform="matrix(0.05,0,0,0.05,18,0)" xlink:href="#aD"/><use transform="matrix(0.05,0,0,0.05,28,0)" xlink:href="#aG"/><use transform="matrix(0.05,0,0,0.05,33,0)" xlink:href="#aD"/><use transform="matrix(0.05,0,0,0.05,43,0)" xlink:href="#aP"/><use transform="matrix(0.05,0,0,0.05,53,0)" xlink:href="#aF"/><use transform="matrix(0.05,0,0,0.05,58,0)" xlink:href="#aJ"/><use transform="matrix(0.05,0,0,0.05,68,0)" xlink:href="#aQ"/><use transform="matrix(0.05,0,0,0.05,78.3,0)" xlink:href="#aO"/><use transform="matrix(0.05,0,0,0.05,82.25,0)" xlink:href="#aR"/><use transform="matrix(0.05,0,0,0.05,97.2,0)" xlink:href="#aJ"/></g><path d="M115-194c55 1 70 41 70 98S169 2 115 4C84 4 66-9 55-30l1 105H24l-1-265h31l2 30c10-21 28-34 59-34zm-8 174c40 0 45-34 45-75s-6-73-45-74c-42 0-51 32-51 76 0 43 10 73 51 73" id="aS"/><path d="M84 4C-5 8 30-112 23-190h32v120c0 31 7 50 39 49 72-2 45-101 50-169h31l1 190h-30c-1-10 1-25-2-33-11 22-28 36-60 37" id="aT"/><path d="M115-194c53 0 69 39 70 98 0 66-23 100-70 100C84 3 66-7 56-30L54 0H23l1-261h32v101c10-23 28-34 59-34zm-8 174c40 0 45-34 45-75 0-40-5-75-45-74-42 0-51 32-51 76 0 43 10 73 51 73" id="aU"/><path d="M24 0v-261h32V0H24" id="aV"/><path d="M106-169C34-169 62-67 57 0H25v-261h32l-1 103c12-21 28-36 61-36 89 0 53 116 60 194h-32v-121c2-32-8-49-39-48" id="aW"/><g id="d"><use transform="matrix(0.05,0,0,0.05,0,0)" xlink:href="#aD"/><use transform="matrix(0.05,0,0,0.05,10,0)" xlink:href="#aE"/><use transform="matrix(0.05,0,0,0.05,19,0)" xlink:href="#aF"/><use transform="matrix(0.05,0,0,0.05,24,0)" xlink:href="#aG"/><use transform="matrix(0.05,0,0,0.05,29,0)" xlink:href="#aS"/><use transform="matrix(0.05,0,0,0.05,39,0)" xlink:href="#aT"/><use transform="matrix(0.05,0,0,0.05,49,0)" xlink:href="#aU"/><use transform="matrix(0.05,0,0,0.05,59,0)" xlink:href="#aV"/><use transform="matrix(0.05,0,0,0.05,62.95,0)" xlink:href="#aO"/><use transform="matrix(0.05,0,0,0.05,66.9,0)" xlink:href="#aM"/><use transform="matrix(0.05,0,0,0.05,75.9,0)" xlink:href="#aW"/><use transform="matrix(0.05,0,0,0.05,85.9,0)" xlink:href="#aJ"/><use transform="matrix(0.05,0,0,0.05,95.9,0)" xlink:href="#aN"/></g><path d="M100-194c62-1 85 37 85 99 1 63-27 99-86 99S16-35 15-95c0-66 28-99 85-99zM99-20c44 1 53-31 53-75 0-43-8-75-51-75s-53 32-53 75 10 74 51 75" id="aX"/><g id="e"><use transform="matrix(0.05,0,0,0.05,0,0)" xlink:href="#aD"/><use transform="matrix(0.05,0,0,0.05,10,0)" xlink:href="#aE"/><use transform="matrix(0.05,0,0,0.05,19,0)" xlink:href="#aF"/><use transform="matrix(0.05,0,0,0.05,24,0)" xlink:href="#aG"/><use transform="matrix(0.05,0,0,0.05,29,0)" xlink:href="#aE"/><use transform="matrix(0.05,0,0,0.05,38,0)" xlink:href="#aN"/><use transform="matrix(0.05,0,0,0.05,43.95,0)" xlink:href="#aJ"/><use transform="matrix(0.05,0,0,0.05,53.95,0)" xlink:href="#aP"/><use transform="matrix(0.05,0,0,0.05,63.95,0)" xlink:href="#aF"/><use transform="matrix(0.05,0,0,0.05,68.95,0)" xlink:href="#aX"/><use transform="matrix(0.05,0,0,0.05,78.95,0)" xlink:href="#aN"/></g><path d="M30-248c87 1 191-15 191 75 0 78-77 80-158 76V0H30v-248zm33 125c57 0 124 11 124-50 0-59-68-47-124-48v98" id="aY"/><g id="f"><use transform="matrix(0.05,0,0,0.05,0,0)" xlink:href="#aD"/><use transform="matrix(0.05,0,0,0.05,10,0)" xlink:href="#aE"/><use transform="matrix(0.05,0,0,0.05,19,0)" xlink:href="#aP"/><use transform="matrix(0.05,0,0,0.05,29,0)" xlink:href="#aF"/><use transform="matrix(0.05,0,0,0.05,34,0)" xlink:href="#aG"/><use transform="matrix(0.05,0,0,0.05,39,0)" xlink:href="#aE"/><use transform="matrix(0.05,0,0,0.05,48,0)" xlink:href="#aX"/><use transform="matrix(0.05,0,0,0.05,58,0)" xlink:href="#aK"/><use transform="matrix(0.05,0,0,0.05,68,0)" xlink:href="#aF"/><use transform="matrix(0.05,0,0,0.05,73,0)" xlink:href="#aP"/><use transform="matrix(0.05,0,0,0.05,83,0)" xlink:href="#aE"/><use transform="matrix(0.05,0,0,0.05,92,0)" xlink:href="#aF"/><use transform="matrix(0.05,0,0,0.05,97,0)" xlink:href="#aY"/><use transform="matrix(0.05,0,0,0.05,109,0)" xlink:href="#aX"/><use transform="matrix(0.05,0,0,0.05,119,0)" xlink:href="#aO"/><use transform="matrix(0.05,0,0,0.05,122.95,0)" xlink:href="#aK"/><use transform="matrix(0.05,0,0,0.05,132.95,0)" xlink:href="#aF"/></g><g id="g"><use transform="matrix(0.05,0,0,0.05,0,0)" xlink:href="#aW"/><use transform="matrix(0.05,0,0,0.05,10,0)" xlink:href="#aP"/><use transform="matrix(0.05,0,0,0.05,20,0)" xlink:href="#aM"/></g><g id="h"><use transform="matrix(0.05,0,0,0.05,0,0)" xlink:href="#aP"/><use transform="matrix(0.05,0,0,0.05,10,0)" xlink:href="#aE"/><use transform="matrix(0.05,0,0,0.05,19,0)" xlink:href="#aE"/><use transform="matrix(0.05,0,0,0.05,28,0)" xlink:href="#aJ"/><use transform="matrix(0.05,0,0,0.05,38,0)" xlink:href="#aM"/><use transform="matrix(0.05,0,0,0.05,47,0)" xlink:href="#aM"/></g><g id="i"><use transform="matrix(0.05,0,0,0.05,0,0)" xlink:href="#aN"/><use transform="matrix(0.05,0,0,0.05,5.95,0)" xlink:href="#aO"/><use transform="matrix(0.05,0,0,0.05,9.9,0)" xlink:href="#aI"/><use transform="matrix(0.05,0,0,0.05,19.9,0)" xlink:href="#aW"/><use transform="matrix(0.05,0,0,0.05,29.899999999999995,0)" xlink:href="#aF"/><use transform="matrix(0.05,0,0,0.05,34.9,0)" xlink:href="#aM"/></g><g id="j"><use transform="matrix(0.05,0,0,0.05,0,0)" xlink:href="#aO"/><use transform="matrix(0.05,0,0,0.05,3.95,0)" xlink:href="#aM"/></g><g id="k"><use transform="matrix(0.05,0,0,0.05,0,0)" xlink:href="#aN"/><use transform="matrix(0.05,0,0,0.05,5.95,0)" xlink:href="#aJ"/><use transform="matrix(0.05,0,0,0.05,15.949999999999998,0)" xlink:href="#aS"/><use transform="matrix(0.05,0,0,0.05,25.950000000000003,0)" xlink:href="#aX"/><use transform="matrix(0.05,0,0,0.05,35.95,0)" xlink:href="#aN"/><use transform="matrix(0.05,0,0,0.05,41.900000000000006,0)" xlink:href="#aF"/></g><path d="M179-190L93 31C79 59 56 82 12 73V49c39 6 53-20 64-50L1-190h34L92-34l54-156h33" id="aZ"/><g id="l"><use transform="matrix(0.05,0,0,0.05,0,0)" xlink:href="#aF"/><use transform="matrix(0.05,0,0,0.05,5,0)" xlink:href="#aZ"/><use transform="matrix(0.05,0,0,0.05,14,0)" xlink:href="#aS"/><use transform="matrix(0.05,0,0,0.05,24,0)" xlink:href="#aJ"/></g><path d="M26 75v-336h71v23H56V52h41v23H26" id="ba"/><path d="M27 0v-27h64v-190l-56 39v-29l58-41h29v221h61V0H27" id="bb"/><path d="M3 75V52h41v-290H3v-23h71V75H3" id="bc"/><g id="m"><use transform="matrix(0.05,0,0,0.05,0,0)" xlink:href="#ba"/><use transform="matrix(0.05,0,0,0.05,5,0)" xlink:href="#bb"/><use transform="matrix(0.05,0,0,0.05,15,0)" xlink:href="#bc"/></g><g id="n"><use transform="matrix(0.05,0,0,0.05,0,0)" xlink:href="#aS"/><use transform="matrix(0.05,0,0,0.05,10,0)" xlink:href="#aJ"/><use transform="matrix(0.05,0,0,0.05,20,0)" xlink:href="#aN"/><use transform="matrix(0.05,0,0,0.05,25.950000000000003,0)" xlink:href="#aR"/><use transform="matrix(0.05,0,0,0.05,40.9,0)" xlink:href="#aO"/><use transform="matrix(0.05,0,0,0.05,44.85,0)" xlink:href="#aF"/></g><path d="M101-251c68 0 85 55 85 127S166 4 100 4C33 4 14-52 14-124c0-73 17-127 87-127zm-1 229c47 0 54-49 54-102s-4-102-53-102c-51 0-55 48-55 102 0 53 5 102 54 102" id="bd"/><path d="M33 0v-38h34V0H33" id="be"/><path d="M80-196l47-18 7 23-49 13 32 44-20 13-27-46-27 45-21-12 33-44-49-13 8-23 47 19-2-53h23" id="bf"/><g id="o"><use transform="matrix(0.05,0,0,0.05,0,0)" xlink:href="#ba"/><use transform="matrix(0.05,0,0,0.05,5,0)" xlink:href="#bd"/><use transform="matrix(0.05,0,0,0.05,15,0)" xlink:href="#be"/><use transform="matrix(0.05,0,0,0.05,20,0)" xlink:href="#be"/><use transform="matrix(0.05,0,0,0.05,25,0)" xlink:href="#bf"/><use transform="matrix(0.05,0,0,0.05,32,0)" xlink:href="#bc"/></g><g id="p"><use transform="matrix(0.05,0,0,0.05,0,0)" xlink:href="#aD"/><use transform="matrix(0.05,0,0,0.05,10,0)" xlink:href="#aE"/><use transform="matrix(0.05,0,0,0.05,19,0)" xlink:href="#aF"/><use transform="matrix(0.05,0,0,0.05,24,0)" xlink:href="#aG"/><use transform="matrix(0.05,0,0,0.05,29,0)" xlink:href="#aF"/><use transform="matrix(0.05,0,0,0.05,34,0)" xlink:href="#aO"/><use transform="matrix(0.05,0,0,0.05,37.95,0)" xlink:href="#aF"/><use transform="matrix(0.05,0,0,0.05,42.95,0)" xlink:href="#aV"/><use transform="matrix(0.05,0,0,0.05,46.900000000000006,0)" xlink:href="#aJ"/></g><g id="q"><use transform="matrix(0.05,0,0,0.05,0,0)" xlink:href="#aD"/><use transform="matrix(0.05,0,0,0.05,10,0)" xlink:href="#aE"/><use transform="matrix(0.05,0,0,0.05,19,0)" xlink:href="#aF"/><use transform="matrix(0.05,0,0,0.05,24,0)" xlink:href="#aG"/><use transform="matrix(0.05,0,0,0.05,29,0)" xlink:href="#aD"/><use transform="matrix(0.05,0,0,0.05,39,0)" xlink:href="#aJ"/><use transform="matrix(0.05,0,0,0.05,49,0)" xlink:href="#aM"/><use transform="matrix(0.05,0,0,0.05,58,0)" xlink:href="#aE"/><use transform="matrix(0.05,0,0,0.05,67,0)" xlink:href="#aN"/><use transform="matrix(0.05,0,0,0.05,72.95,0)" xlink:href="#aO"/><use transform="matrix(0.05,0,0,0.05,76.9,0)" xlink:href="#aS"/><use transform="matrix(0.05,0,0,0.05,86.9,0)" xlink:href="#aF"/><use transform="matrix(0.05,0,0,0.05,91.9,0)" xlink:href="#aO"/><use transform="matrix(0.05,0,0,0.05,95.85000000000001,0)" xlink:href="#aX"/><use transform="matrix(0.05,0,0,0.05,105.85000000000001,0)" xlink:href="#aK"/></g><path d="M101-234c-31-9-42 10-38 44h38v23H63V0H32v-167H5v-23h27c-7-52 17-82 69-68v24" id="bg"/><g id="r"><use transform="matrix(0.05,0,0,0.05,0,0)" xlink:href="#aD"/><use transform="matrix(0.05,0,0,0.05,10,0)" xlink:href="#aE"/><use transform="matrix(0.05,0,0,0.05,19,0)" xlink:href="#aF"/><use transform="matrix(0.05,0,0,0.05,24,0)" xlink:href="#aG"/><use transform="matrix(0.05,0,0,0.05,29,0)" xlink:href="#aO"/><use transform="matrix(0.05,0,0,0.05,32.95,0)" xlink:href="#aD"/><use transform="matrix(0.05,0,0,0.05,42.95,0)" xlink:href="#aJ"/><use transform="matrix(0.05,0,0,0.05,52.95,0)" xlink:href="#aK"/><use transform="matrix(0.05,0,0,0.05,62.95,0)" xlink:href="#aF"/><use transform="matrix(0.05,0,0,0.05,67.95,0)" xlink:href="#aO"/><use transform="matrix(0.05,0,0,0.05,71.9,0)" xlink:href="#bg"/><use transform="matrix(0.05,0,0,0.05,76.9,0)" xlink:href="#aO"/><use transform="matrix(0.05,0,0,0.05,80.85000000000001,0)" xlink:href="#aJ"/><use transform="matrix(0.05,0,0,0.05,90.85000000000001,0)" xlink:href="#aN"/></g><g id="s"><use transform="matrix(0.05,0,0,0.05,0,0)" xlink:href="#aD"/><use transform="matrix(0.05,0,0,0.05,10,0)" xlink:href="#aE"/><use transform="matrix(0.05,0,0,0.05,19,0)" xlink:href="#aF"/><use transform="matrix(0.05,0,0,0.05,24,0)" xlink:href="#aG"/><use transform="matrix(0.05,0,0,0.05,29,0)" xlink:href="#aE"/><use transform="matrix(0.05,0,0,0.05,38,0)" xlink:href="#aN"/><use transform="matrix(0.05,0,0,0.05,43.95,0)" xlink:href="#aJ"/><use transform="matrix(0.05,0,0,0.05,53.95,0)" xlink:href="#aP"/><use transform="matrix(0.05,0,0,0.05,63.95,0)" xlink:href="#aF"/><use transform="matrix(0.05,0,0,0.05,68.95,0)" xlink:href="#aJ"/><use transform="matrix(0.05,0,0,0.05,78.95,0)" xlink:href="#aD"/></g><g id="t"><use transform="matrix(0.05,0,0,0.05,0,0)" xlink:href="#aD"/><use transform="matrix(0.05,0,0,0.05,10,0)" xlink:href="#aE"/><use transform="matrix(0.05,0,0,0.05,19,0)" xlink:href="#aF"/><use transform="matrix(0.05,0,0,0.05,24,0)" xlink:href="#aG"/><use transform="matrix(0.05,0,0,0.05,29,0)" xlink:href="#aO"/><use transform="matrix(0.05,0,0,0.05,32.95,0)" xlink:href="#aM"/><use transform="matrix(0.05,0,0,0.05,41.95,0)" xlink:href="#aM"/><use transform="matrix(0.05,0,0,0.05,50.95,0)" xlink:href="#aT"/><use transform="matrix(0.05,0,0,0.05,60.95,0)" xlink:href="#aJ"/><use transform="matrix(0.05,0,0,0.05,70.95,0)" xlink:href="#aD"/></g><g id="u"><use transform="matrix(0.05,0,0,0.05,0,0)" xlink:href="#aD"/><use transform="matrix(0.05,0,0,0.05,10,0)" xlink:href="#aE"/><use transform="matrix(0.05,0,0,0.05,19,0)" xlink:href="#aF"/><use transform="matrix(0.05,0,0,0.05,24,0)" xlink:href="#aG"/><use transform="matrix(0.05,0,0,0.05,29,0)" xlink:href="#aR"/><use transform="matrix(0.05,0,0,0.05,43.95,0)" xlink:href="#aX"/><use transform="matrix(0.05,0,0,0.05,53.95,0)" xlink:href="#aD"/><use transform="matrix(0.05,0,0,0.05,63.95,0)" xlink:href="#aO"/><use transform="matrix(0.05,0,0,0.05,67.9,0)" xlink:href="#bg"/><use transform="matrix(0.05,0,0,0.05,72.9,0)" xlink:href="#aO"/><use transform="matrix(0.05,0,0,0.05,76.85000000000001,0)" xlink:href="#aJ"/><use transform="matrix(0.05,0,0,0.05,86.85000000000001,0)" xlink:href="#aD"/></g><path d="M143 4C61 4 22-44 18-125c-5-107 100-154 193-111 17 8 29 25 37 43l-32 9c-13-25-37-40-76-40-61 0-88 39-88 99 0 61 29 100 91 101 35 0 62-11 79-27v-45h-74v-28h105v86C228-13 192 4 143 4" id="bh"/><g id="v"><use transform="matrix(0.05,0,0,0.05,0,0)" xlink:href="#aI"/><use transform="matrix(0.05,0,0,0.05,10,0)" xlink:href="#aJ"/><use transform="matrix(0.05,0,0,0.05,20,0)" xlink:href="#aX"/><use transform="matrix(0.05,0,0,0.05,30,0)" xlink:href="#aG"/><use transform="matrix(0.05,0,0,0.05,35,0)" xlink:href="#aW"/><use transform="matrix(0.05,0,0,0.05,45,0)" xlink:href="#aP"/><use transform="matrix(0.05,0,0,0.05,55,0)" xlink:href="#aM"/><use transform="matrix(0.05,0,0,0.05,64,0)" xlink:href="#bh"/><use transform="matrix(0.05,0,0,0.05,78,0)" xlink:href="#aJ"/><use transform="matrix(0.05,0,0,0.05,88,0)" xlink:href="#aX"/><use transform="matrix(0.05,0,0,0.05,98,0)" xlink:href="#aR"/><use transform="matrix(0.05,0,0,0.05,112.95,0)" xlink:href="#aJ"/><use transform="matrix(0.05,0,0,0.05,122.95,0)" xlink:href="#aF"/><use transform="matrix(0.05,0,0,0.05,127.95,0)" xlink:href="#aN"/><use transform="matrix(0.05,0,0,0.05,133.9,0)" xlink:href="#aZ"/></g><g id="w"><use transform="matrix(0.05,0,0,0.05,0,0)" xlink:href="#aW"/><use transform="matrix(0.05,0,0,0.05,10,0)" xlink:href="#aX"/><use transform="matrix(0.05,0,0,0.05,20,0)" xlink:href="#aV"/><use transform="matrix(0.05,0,0,0.05,23.95,0)" xlink:href="#aD"/><use transform="matrix(0.05,0,0,0.05,33.95,0)" xlink:href="#aJ"/><use transform="matrix(0.05,0,0,0.05,43.95,0)" xlink:href="#aN"/></g><g id="x"><use transform="matrix(0.05,0,0,0.05,0,0)" xlink:href="#ba"/><use transform="matrix(0.05,0,0,0.05,5,0)" xlink:href="#bb"/><use transform="matrix(0.05,0,0,0.05,15,0)" xlink:href="#be"/><use transform="matrix(0.05,0,0,0.05,20,0)" xlink:href="#be"/><use transform="matrix(0.05,0,0,0.05,25,0)" xlink:href="#bf"/><use transform="matrix(0.05,0,0,0.05,32,0)" xlink:href="#bc"/></g><path fill="#fff" d="M30-248c87 1 191-15 191 75 0 78-77 80-158 76V0H30v-248zm33 125c57 0 124 11 124-50 0-59-68-47-124-48v98" id="bi"/><path fill="#fff" d="M100-194c63 0 86 42 84 106H49c0 40 14 67 53 68 26 1 43-12 49-29l28 8c-11 28-37 45-77 45C44 4 14-33 15-96c1-61 26-98 85-98zm52 81c6-60-76-77-97-28-3 7-6 17-6 28h103" id="bj"/><path fill="#fff" d="M114-163C36-179 61-72 57 0H25l-1-190h30c1 12-1 29 2 39 6-27 23-49 58-41v29" id="bk"/><path fill="#fff" d="M210-169c-67 3-38 105-44 169h-31v-121c0-29-5-50-35-48C34-165 62-65 56 0H25l-1-190h30c1 10-1 24 2 32 10-44 99-50 107 0 11-21 27-35 58-36 85-2 47 119 55 194h-31v-121c0-29-5-49-35-48" id="bl"/><path fill="#fff" d="M24-231v-30h32v30H24zM24 0v-190h32V0H24" id="bm"/><path fill="#fff" d="M59-47c-2 24 18 29 38 22v24C64 9 27 4 27-40v-127H5v-23h24l9-43h21v43h35v23H59v120" id="bn"/><g id="y"><use transform="matrix(0.05,0,0,0.05,0,0)" xlink:href="#bi"/><use transform="matrix(0.05,0,0,0.05,12,0)" xlink:href="#bj"/><use transform="matrix(0.05,0,0,0.05,22,0)" xlink:href="#bk"/><use transform="matrix(0.05,0,0,0.05,27.950000000000003,0)" xlink:href="#bl"/><use transform="matrix(0.05,0,0,0.05,42.9,0)" xlink:href="#bm"/><use transform="matrix(0.05,0,0,0.05,46.85,0)" xlink:href="#bn"/></g><path d="M108 0H70L1-190h34L89-25l56-165h34" id="bo"/><g id="z"><use transform="matrix(0.05,0,0,0.05,0,0)" xlink:href="#aS"/><use transform="matrix(0.05,0,0,0.05,10,0)" xlink:href="#aN"/><use transform="matrix(0.05,0,0,0.05,15.949999999999998,0)" xlink:href="#aX"/><use transform="matrix(0.05,0,0,0.05,25.950000000000003,0)" xlink:href="#bo"/><use transform="matrix(0.05,0,0,0.05,34.95,0)" xlink:href="#aG"/></g><g id="A"><use transform="matrix(0.05,0,0,0.05,0,0)" xlink:href="#aH"/><use transform="matrix(0.05,0,0,0.05,12,0)" xlink:href="#aI"/><use transform="matrix(0.05,0,0,0.05,22,0)" xlink:href="#aJ"/><use transform="matrix(0.05,0,0,0.05,32,0)" xlink:href="#aK"/><use transform="matrix(0.05,0,0,0.05,42,0)" xlink:href="#aF"/></g><path d="M233-177c-1 41-23 64-60 70L243 0h-38l-65-103H63V0H30v-248c88 3 205-21 203 71zM63-129c60-2 137 13 137-47 0-61-80-42-137-45v92" id="bp"/><g id="B"><use transform="matrix(0.05,0,0,0.05,0,0)" xlink:href="#bp"/><use transform="matrix(0.05,0,0,0.05,12.950000000000001,0)" xlink:href="#aJ"/><use transform="matrix(0.05,0,0,0.05,22.950000000000003,0)" xlink:href="#aM"/><use transform="matrix(0.05,0,0,0.05,31.950000000000003,0)" xlink:href="#aX"/><use transform="matrix(0.05,0,0,0.05,41.95,0)" xlink:href="#aT"/><use transform="matrix(0.05,0,0,0.05,51.95,0)" xlink:href="#aN"/><use transform="matrix(0.05,0,0,0.05,57.900000000000006,0)" xlink:href="#aE"/><use transform="matrix(0.05,0,0,0.05,66.9,0)" xlink:href="#aJ"/><use transform="matrix(0.05,0,0,0.05,76.9,0)" xlink:href="#aM"/></g><path d="M33 0v-248h34V0H33" id="bq"/><g id="C"><use transform="matrix(0.05,0,0,0.05,0,0)" xlink:href="#bq"/><use transform="matrix(0.05,0,0,0.05,5,0)" xlink:href="#aK"/><use transform="matrix(0.05,0,0,0.05,15,0)" xlink:href="#aD"/><use transform="matrix(0.05,0,0,0.05,25,0)" xlink:href="#aT"/><use transform="matrix(0.05,0,0,0.05,35,0)" xlink:href="#aM"/><use transform="matrix(0.05,0,0,0.05,44,0)" xlink:href="#aF"/><use transform="matrix(0.05,0,0,0.05,49,0)" xlink:href="#aN"/><use transform="matrix(0.05,0,0,0.05,54.95,0)" xlink:href="#aZ"/></g><g id="D"><use transform="matrix(0.05,0,0,0.05,0,0)" xlink:href="#bp"/><use transform="matrix(0.05,0,0,0.05,12.950000000000001,0)" xlink:href="#aJ"/><use transform="matrix(0.05,0,0,0.05,22.950000000000003,0)" xlink:href="#aS"/><use transform="matrix(0.05,0,0,0.05,32.95,0)" xlink:href="#aX"/><use transform="matrix(0.05,0,0,0.05,42.95,0)" xlink:href="#aN"/><use transform="matrix(0.05,0,0,0.05,48.900000000000006,0)" xlink:href="#aF"/></g><g id="E"><use transform="matrix(0.05,0,0,0.05,0,0)" xlink:href="#aQ"/><use transform="matrix(0.05,0,0,0.05,9.950000000000001,0)" xlink:href="#aZ"/><use transform="matrix(0.05,0,0,0.05,18.950000000000003,0)" xlink:href="#aS"/><use transform="matrix(0.05,0,0,0.05,28.950000000000003,0)" xlink:href="#aJ"/></g><g id="F"><use transform="matrix(0.05,0,0,0.05,0,0)" xlink:href="#aI"/><use transform="matrix(0.05,0,0,0.05,10,0)" xlink:href="#aJ"/><use transform="matrix(0.05,0,0,0.05,20,0)" xlink:href="#aX"/><use transform="matrix(0.05,0,0,0.05,30,0)" xlink:href="#aG"/></g><g id="G"><use transform="matrix(0.05,0,0,0.05,0,0)" xlink:href="#bh"/><use transform="matrix(0.05,0,0,0.05,14,0)" xlink:href="#aJ"/><use transform="matrix(0.05,0,0,0.05,24,0)" xlink:href="#aX"/><use transform="matrix(0.05,0,0,0.05,34,0)" xlink:href="#aR"/><use transform="matrix(0.05,0,0,0.05,48.95,0)" xlink:href="#aJ"/><use transform="matrix(0.05,0,0,0.05,58.95,0)" xlink:href="#aF"/><use transform="matrix(0.05,0,0,0.05,63.95,0)" xlink:href="#aN"/><use transform="matrix(0.05,0,0,0.05,69.9,0)" xlink:href="#aZ"/></g><path fill="#fff" d="M233-177c-1 41-23 64-60 70L243 0h-38l-65-103H63V0H30v-248c88 3 205-21 203 71zM63-129c60-2 137 13 137-47 0-61-80-42-137-45v92" id="br"/><path fill="#fff" d="M135-143c-3-34-86-38-87 0 15 53 115 12 119 90S17 21 10-45l28-5c4 36 97 45 98 0-10-56-113-15-118-90-4-57 82-63 122-42 12 7 21 19 24 35" id="bs"/><path fill="#fff" d="M100-194c62-1 85 37 85 99 1 63-27 99-86 99S16-35 15-95c0-66 28-99 85-99zM99-20c44 1 53-31 53-75 0-43-8-75-51-75s-53 32-53 75 10 74 51 75" id="bt"/><path fill="#fff" d="M84 4C-5 8 30-112 23-190h32v120c0 31 7 50 39 49 72-2 45-101 50-169h31l1 190h-30c-1-10 1-25-2-33-11 22-28 36-60 37" id="bu"/><path fill="#fff" d="M96-169c-40 0-48 33-48 73s9 75 48 75c24 0 41-14 43-38l32 2c-6 37-31 61-74 61-59 0-76-41-82-99-10-93 101-131 147-64 4 7 5 14 7 22l-32 3c-4-21-16-35-41-35" id="bv"/><g id="H"><use transform="matrix(0.05,0,0,0.05,0,0)" xlink:href="#br"/><use transform="matrix(0.05,0,0,0.05,12.950000000000001,0)" xlink:href="#bj"/><use transform="matrix(0.05,0,0,0.05,22.950000000000003,0)" xlink:href="#bs"/><use transform="matrix(0.05,0,0,0.05,31.950000000000003,0)" xlink:href="#bt"/><use transform="matrix(0.05,0,0,0.05,41.95,0)" xlink:href="#bu"/><use transform="matrix(0.05,0,0,0.05,51.95,0)" xlink:href="#bk"/><use transform="matrix(0.05,0,0,0.05,57.900000000000006,0)" xlink:href="#bv"/><use transform="matrix(0.05,0,0,0.05,66.9,0)" xlink:href="#bj"/><use transform="matrix(0.05,0,0,0.05,76.9,0)" xlink:href="#bs"/></g><path fill="#fff" d="M33 0v-248h34V0H33" id="bw"/><path fill="#fff" d="M117-194c89-4 53 116 60 194h-32v-121c0-31-8-49-39-48C34-167 62-67 57 0H25l-1-190h30c1 10-1 24 2 32 11-22 29-35 61-36" id="bx"/><path fill="#fff" d="M85-194c31 0 48 13 60 33l-1-100h32l1 261h-30c-2-10 0-23-3-31C134-8 116 4 85 4 32 4 16-35 15-94c0-66 23-100 70-100zm9 24c-40 0-46 34-46 75 0 40 6 74 45 74 42 0 51-32 51-76 0-42-9-74-50-73" id="by"/><path fill="#fff" d="M179-190L93 31C79 59 56 82 12 73V49c39 6 53-20 64-50L1-190h34L92-34l54-156h33" id="bz"/><g id="I"><use transform="matrix(0.05,0,0,0.05,0,0)" xlink:href="#bw"/><use transform="matrix(0.05,0,0,0.05,5,0)" xlink:href="#bx"/><use transform="matrix(0.05,0,0,0.05,15,0)" xlink:href="#by"/><use transform="matrix(0.05,0,0,0.05,25,0)" xlink:href="#bu"/><use transform="matrix(0.05,0,0,0.05,35,0)" xlink:href="#bs"/><use transform="matrix(0.05,0,0,0.05,44,0)" xlink:href="#bn"/><use transform="matrix(0.05,0,0,0.05,49,0)" xlink:href="#bk"/><use transform="matrix(0.05,0,0,0.05,54.95,0)" xlink:href="#bz"/></g><path fill="#fff" d="M115-194c55 1 70 41 70 98S169 2 115 4C84 4 66-9 55-30l1 105H24l-1-265h31l2 30c10-21 28-34 59-34zm-8 174c40 0 45-34 45-75s-6-73-45-74c-42 0-51 32-51 76 0 43 10 73 51 73" id="bA"/><g id="J"><use transform="matrix(0.05,0,0,0.05,0,0)" xlink:href="#br"/><use transform="matrix(0.05,0,0,0.05,12.950000000000001,0)" xlink:href="#bj"/><use transform="matrix(0.05,0,0,0.05,22.950000000000003,0)" xlink:href="#bA"/><use transform="matrix(0.05,0,0,0.05,32.95,0)" xlink:href="#bt"/><use transform="matrix(0.05,0,0,0.05,42.95,0)" xlink:href="#bk"/><use transform="matrix(0.05,0,0,0.05,48.900000000000006,0)" xlink:href="#bn"/></g><g id="K"><use transform="matrix(0.05,0,0,0.05,0,0)" xlink:href="#aH"/><use transform="matrix(0.05,0,0,0.05,12,0)" xlink:href="#aE"/><use transform="matrix(0.05,0,0,0.05,21,0)" xlink:href="#aE"/><use transform="matrix(0.05,0,0,0.05,30,0)" xlink:href="#aJ"/><use transform="matrix(0.05,0,0,0.05,40,0)" xlink:href="#aM"/><use transform="matrix(0.05,0,0,0.05,49,0)" xlink:href="#aM"/></g><g id="L"><use transform="matrix(0.05,0,0,0.05,0,0)" xlink:href="#bp"/><use transform="matrix(0.05,0,0,0.05,12.950000000000001,0)" xlink:href="#aO"/><use transform="matrix(0.05,0,0,0.05,16.900000000000002,0)" xlink:href="#aI"/><use transform="matrix(0.05,0,0,0.05,26.900000000000002,0)" xlink:href="#aW"/><use transform="matrix(0.05,0,0,0.05,36.900000000000006,0)" xlink:href="#aF"/><use transform="matrix(0.05,0,0,0.05,41.900000000000006,0)" xlink:href="#aM"/></g><path fill="#fff" d="M185-189c-5-48-123-54-124 2 14 75 158 14 163 119 3 78-121 87-175 55-17-10-28-26-33-46l33-7c5 56 141 63 141-1 0-78-155-14-162-118-5-82 145-84 179-34 5 7 8 16 11 25" id="bB"/><path fill="#fff" d="M108 0H70L1-190h34L89-25l56-165h34" id="bC"/><g id="M"><use transform="matrix(0.05,0,0,0.05,0,0)" xlink:href="#bB"/><use transform="matrix(0.05,0,0,0.05,12,0)" xlink:href="#bu"/><use transform="matrix(0.05,0,0,0.05,22,0)" xlink:href="#bk"/><use transform="matrix(0.05,0,0,0.05,27.950000000000003,0)" xlink:href="#bC"/><use transform="matrix(0.05,0,0,0.05,36.95,0)" xlink:href="#bj"/><use transform="matrix(0.05,0,0,0.05,46.95,0)" xlink:href="#bz"/></g><g id="N"><use transform="matrix(0.05,0,0,0.05,0,0)" xlink:href="#bt"/><use transform="matrix(0.05,0,0,0.05,10,0)" xlink:href="#bk"/></g><path fill="#fff" d="M140-251c81 0 123 46 123 126C263-46 219 4 140 4 59 4 17-45 17-125s42-126 123-126zm0 227c63 0 89-41 89-101s-29-99-89-99c-61 0-89 39-89 99S79-25 140-24" id="bD"/><path fill="#fff" d="M115-194c53 0 69 39 70 98 0 66-23 100-70 100C84 3 66-7 56-30L54 0H23l1-261h32v101c10-23 28-34 59-34zm-8 174c40 0 45-34 45-75 0-40-5-75-45-74-42 0-51 32-51 76 0 43 10 73 51 73" id="bE"/><path fill="#fff" d="M141-36C126-15 110 5 73 4 37 3 15-17 15-53c-1-64 63-63 125-63 3-35-9-54-41-54-24 1-41 7-42 31l-33-3c5-37 33-52 76-52 45 0 72 20 72 64v82c-1 20 7 32 28 27v20c-31 9-61-2-59-35zM48-53c0 20 12 33 32 33 41-3 63-29 60-74-43 2-92-5-92 41" id="bF"/><g id="O"><use transform="matrix(0.05,0,0,0.05,0,0)" xlink:href="#bD"/><use transform="matrix(0.05,0,0,0.05,14,0)" xlink:href="#bE"/><use transform="matrix(0.05,0,0,0.05,24,0)" xlink:href="#bs"/><use transform="matrix(0.05,0,0,0.05,33,0)" xlink:href="#bj"/><use transform="matrix(0.05,0,0,0.05,43,0)" xlink:href="#bk"/><use transform="matrix(0.05,0,0,0.05,48.95,0)" xlink:href="#bC"/><use transform="matrix(0.05,0,0,0.05,57.95,0)" xlink:href="#bF"/><use transform="matrix(0.05,0,0,0.05,67.95,0)" xlink:href="#bn"/><use transform="matrix(0.05,0,0,0.05,72.95,0)" xlink:href="#bm"/><use transform="matrix(0.05,0,0,0.05,76.9,0)" xlink:href="#bt"/><use transform="matrix(0.05,0,0,0.05,86.9,0)" xlink:href="#bx"/></g><path d="M140-251c81 0 123 46 123 126C263-46 219 4 140 4 59 4 17-45 17-125s42-126 123-126zm0 227c63 0 89-41 89-101s-29-99-89-99c-61 0-89 39-89 99S79-25 140-24" id="bG"/><g id="P"><use transform="matrix(0.05,0,0,0.05,0,0)" xlink:href="#aM"/><use transform="matrix(0.05,0,0,0.05,9,0)" xlink:href="#aX"/><use transform="matrix(0.05,0,0,0.05,19,0)" xlink:href="#aM"/><use transform="matrix(0.05,0,0,0.05,28,0)" xlink:href="#aP"/><use transform="matrix(0.05,0,0,0.05,38,0)" xlink:href="#aG"/><use transform="matrix(0.05,0,0,0.05,43,0)" xlink:href="#aO"/><use transform="matrix(0.05,0,0,0.05,46.95,0)" xlink:href="#aM"/><use transform="matrix(0.05,0,0,0.05,55.95,0)" xlink:href="#bp"/><use transform="matrix(0.05,0,0,0.05,68.9,0)" xlink:href="#aJ"/><use transform="matrix(0.05,0,0,0.05,78.9,0)" xlink:href="#aM"/><use transform="matrix(0.05,0,0,0.05,87.9,0)" xlink:href="#aT"/><use transform="matrix(0.05,0,0,0.05,97.9,0)" xlink:href="#aV"/><use transform="matrix(0.05,0,0,0.05,101.85000000000001,0)" xlink:href="#aF"/><use transform="matrix(0.05,0,0,0.05,106.85000000000001,0)" xlink:href="#bG"/><use transform="matrix(0.05,0,0,0.05,120.85000000000001,0)" xlink:href="#bg"/></g><g id="Q"><use transform="matrix(0.05,0,0,0.05,0,0)" xlink:href="#ba"/><use transform="matrix(0.05,0,0,0.05,5,0)" xlink:href="#bd"/><use transform="matrix(0.05,0,0,0.05,15,0)" xlink:href="#be"/><use transform="matrix(0.05,0,0,0.05,20,0)" xlink:href="#be"/><use transform="matrix(0.05,0,0,0.05,25,0)" xlink:href="#bb"/><use transform="matrix(0.05,0,0,0.05,35,0)" xlink:href="#bc"/></g><g id="R"><use transform="matrix(0.05,0,0,0.05,0,0)" xlink:href="#aN"/><use transform="matrix(0.05,0,0,0.05,5.95,0)" xlink:href="#aJ"/><use transform="matrix(0.05,0,0,0.05,15.949999999999998,0)" xlink:href="#aS"/><use transform="matrix(0.05,0,0,0.05,25.950000000000003,0)" xlink:href="#aX"/><use transform="matrix(0.05,0,0,0.05,35.95,0)" xlink:href="#aN"/><use transform="matrix(0.05,0,0,0.05,41.900000000000006,0)" xlink:href="#aF"/><use transform="matrix(0.05,0,0,0.05,46.900000000000006,0)" xlink:href="#aO"/><use transform="matrix(0.05,0,0,0.05,50.85000000000001,0)" xlink:href="#aK"/><use transform="matrix(0.05,0,0,0.05,60.85,0)" xlink:href="#aI"/></g><g id="S"><use transform="matrix(0.05,0,0,0.05,0,0)" xlink:href="#aS"/><use transform="matrix(0.05,0,0,0.05,10,0)" xlink:href="#aJ"/><use transform="matrix(0.05,0,0,0.05,20,0)" xlink:href="#aN"/><use transform="matrix(0.05,0,0,0.05,25.950000000000003,0)" xlink:href="#aO"/><use transform="matrix(0.05,0,0,0.05,29.899999999999995,0)" xlink:href="#aX"/><use transform="matrix(0.05,0,0,0.05,39.9,0)" xlink:href="#aD"/></g><path d="M185-189c-5-48-123-54-124 2 14 75 158 14 163 119 3 78-121 87-175 55-17-10-28-26-33-46l33-7c5 56 141 63 141-1 0-78-155-14-162-118-5-82 145-84 179-34 5 7 8 16 11 25" id="bH"/><g id="T"><use transform="matrix(0.05,0,0,0.05,0,0)" xlink:href="#aF"/><use transform="matrix(0.05,0,0,0.05,5,0)" xlink:href="#aO"/><use transform="matrix(0.05,0,0,0.05,8.95,0)" xlink:href="#aR"/><use transform="matrix(0.05,0,0,0.05,23.9,0)" xlink:href="#aJ"/><use transform="matrix(0.05,0,0,0.05,33.9,0)" xlink:href="#aG"/><use transform="matrix(0.05,0,0,0.05,38.9,0)" xlink:href="#aW"/><use transform="matrix(0.05,0,0,0.05,48.9,0)" xlink:href="#aP"/><use transform="matrix(0.05,0,0,0.05,58.900000000000006,0)" xlink:href="#aM"/><use transform="matrix(0.05,0,0,0.05,67.9,0)" xlink:href="#bH"/><use transform="matrix(0.05,0,0,0.05,79.9,0)" xlink:href="#aF"/><use transform="matrix(0.05,0,0,0.05,84.9,0)" xlink:href="#aP"/><use transform="matrix(0.05,0,0,0.05,94.9,0)" xlink:href="#aN"/><use transform="matrix(0.05,0,0,0.05,100.85000000000001,0)" xlink:href="#aF"/><use transform="matrix(0.05,0,0,0.05,105.85000000000001,0)" xlink:href="#aQ"/><use transform="matrix(0.05,0,0,0.05,116.15,0)" xlink:href="#aO"/><use transform="matrix(0.05,0,0,0.05,120.10000000000001,0)" xlink:href="#aR"/><use transform="matrix(0.05,0,0,0.05,135.05,0)" xlink:href="#aJ"/></g><path d="M30 0v-248h187v28H63v79h144v27H63v87h162V0H30" id="bI"/><g id="U"><use transform="matrix(0.05,0,0,0.05,0,0)" xlink:href="#aF"/><use transform="matrix(0.05,0,0,0.05,5,0)" xlink:href="#aO"/><use transform="matrix(0.05,0,0,0.05,8.95,0)" xlink:href="#aR"/><use transform="matrix(0.05,0,0,0.05,23.9,0)" xlink:href="#aJ"/><use transform="matrix(0.05,0,0,0.05,33.9,0)" xlink:href="#aG"/><use transform="matrix(0.05,0,0,0.05,38.9,0)" xlink:href="#aW"/><use transform="matrix(0.05,0,0,0.05,48.9,0)" xlink:href="#aP"/><use transform="matrix(0.05,0,0,0.05,58.900000000000006,0)" xlink:href="#aM"/><use transform="matrix(0.05,0,0,0.05,67.9,0)" xlink:href="#bI"/><use transform="matrix(0.05,0,0,0.05,79.9,0)" xlink:href="#aK"/><use transform="matrix(0.05,0,0,0.05,89.9,0)" xlink:href="#aD"/><use transform="matrix(0.05,0,0,0.05,99.9,0)" xlink:href="#aQ"/><use transform="matrix(0.05,0,0,0.05,110.2,0)" xlink:href="#aO"/><use transform="matrix(0.05,0,0,0.05,114.15,0)" xlink:href="#aR"/><use transform="matrix(0.05,0,0,0.05,129.1,0)" xlink:href="#aJ"/></g><g id="V"><use transform="matrix(0.05,0,0,0.05,0,0)" xlink:href="#aV"/><use transform="matrix(0.05,0,0,0.05,3.95,0)" xlink:href="#aX"/><use transform="matrix(0.05,0,0,0.05,13.949999999999998,0)" xlink:href="#aE"/><use transform="matrix(0.05,0,0,0.05,22.95,0)" xlink:href="#aK"/><use transform="matrix(0.05,0,0,0.05,32.95,0)" xlink:href="#aG"/><use transform="matrix(0.05,0,0,0.05,37.95,0)" xlink:href="#aI"/><use transform="matrix(0.05,0,0,0.05,47.95,0)" xlink:href="#aJ"/><use transform="matrix(0.05,0,0,0.05,57.95,0)" xlink:href="#aX"/><use transform="matrix(0.05,0,0,0.05,67.95,0)" xlink:href="#aR"/><use transform="matrix(0.05,0,0,0.05,82.9,0)" xlink:href="#aJ"/><use transform="matrix(0.05,0,0,0.05,92.9,0)" xlink:href="#aF"/><use transform="matrix(0.05,0,0,0.05,97.9,0)" xlink:href="#aN"/><use transform="matrix(0.05,0,0,0.05,103.85000000000001,0)" xlink:href="#aZ"/></g><path d="M30 0v-248h33v221h125V0H30" id="bJ"/><g id="W"><use transform="matrix(0.05,0,0,0.05,0,0)" xlink:href="#aD"/><use transform="matrix(0.05,0,0,0.05,10,0)" xlink:href="#aE"/><use transform="matrix(0.05,0,0,0.05,19,0)" xlink:href="#aF"/><use transform="matrix(0.05,0,0,0.05,24,0)" xlink:href="#aG"/><use transform="matrix(0.05,0,0,0.05,29,0)" xlink:href="#bJ"/><use transform="matrix(0.05,0,0,0.05,39,0)" xlink:href="#aX"/><use transform="matrix(0.05,0,0,0.05,49,0)" xlink:href="#aE"/><use transform="matrix(0.05,0,0,0.05,58,0)" xlink:href="#aP"/><use transform="matrix(0.05,0,0,0.05,68,0)" xlink:href="#aF"/><use transform="matrix(0.05,0,0,0.05,73,0)" xlink:href="#aO"/><use transform="matrix(0.05,0,0,0.05,76.95,0)" xlink:href="#aX"/><use transform="matrix(0.05,0,0,0.05,86.95,0)" xlink:href="#aK"/></g><g id="X"><use transform="matrix(0.05,0,0,0.05,0,0)" xlink:href="#aF"/><use transform="matrix(0.05,0,0,0.05,5,0)" xlink:href="#aO"/><use transform="matrix(0.05,0,0,0.05,8.95,0)" xlink:href="#aR"/><use transform="matrix(0.05,0,0,0.05,23.9,0)" xlink:href="#aJ"/><use transform="matrix(0.05,0,0,0.05,33.9,0)" xlink:href="#aG"/></g><g id="Y"><use transform="matrix(0.05,0,0,0.05,0,0)" xlink:href="#aY"/><use transform="matrix(0.05,0,0,0.05,12,0)" xlink:href="#aN"/><use transform="matrix(0.05,0,0,0.05,17.95,0)" xlink:href="#aX"/><use transform="matrix(0.05,0,0,0.05,27.950000000000003,0)" xlink:href="#aS"/><use transform="matrix(0.05,0,0,0.05,37.95,0)" xlink:href="#aJ"/><use transform="matrix(0.05,0,0,0.05,47.95,0)" xlink:href="#aN"/><use transform="matrix(0.05,0,0,0.05,53.900000000000006,0)" xlink:href="#bq"/><use transform="matrix(0.05,0,0,0.05,58.900000000000006,0)" xlink:href="#aK"/><use transform="matrix(0.05,0,0,0.05,68.9,0)" xlink:href="#aF"/><use transform="matrix(0.05,0,0,0.05,73.9,0)" xlink:href="#aJ"/><use transform="matrix(0.05,0,0,0.05,83.9,0)" xlink:href="#aN"/><use transform="matrix(0.05,0,0,0.05,89.85000000000001,0)" xlink:href="#bo"/><use transform="matrix(0.05,0,0,0.05,98.85000000000001,0)" xlink:href="#aP"/><use transform="matrix(0.05,0,0,0.05,108.85000000000001,0)" xlink:href="#aV"/></g><g id="Z"><use transform="matrix(0.05,0,0,0.05,0,0)" xlink:href="#aN"/><use transform="matrix(0.05,0,0,0.05,5.95,0)" xlink:href="#aD"/><use transform="matrix(0.05,0,0,0.05,15.949999999999998,0)" xlink:href="#bg"/><use transform="matrix(0.05,0,0,0.05,20.95,0)" xlink:href="#aM"/><use transform="matrix(0.05,0,0,0.05,29.950000000000003,0)" xlink:href="#aG"/><use transform="matrix(0.05,0,0,0.05,34.95,0)" xlink:href="#aM"/><use transform="matrix(0.05,0,0,0.05,43.95,0)" xlink:href="#aJ"/><use transform="matrix(0.05,0,0,0.05,53.95,0)" xlink:href="#aJ"/><use transform="matrix(0.05,0,0,0.05,63.95,0)" xlink:href="#aH"/><use transform="matrix(0.05,0,0,0.05,75.95,0)" xlink:href="#aV"/><use transform="matrix(0.05,0,0,0.05,79.9,0)" xlink:href="#aM"/><use transform="matrix(0.05,0,0,0.05,88.9,0)" xlink:href="#aX"/></g><g id="aa"><use transform="matrix(0.05,0,0,0.05,0,0)" xlink:href="#aN"/><use transform="matrix(0.05,0,0,0.05,5.95,0)" xlink:href="#aD"/><use transform="matrix(0.05,0,0,0.05,15.949999999999998,0)" xlink:href="#bg"/><use transform="matrix(0.05,0,0,0.05,20.95,0)" xlink:href="#aG"/><use transform="matrix(0.05,0,0,0.05,25.950000000000003,0)" xlink:href="#aY"/><use transform="matrix(0.05,0,0,0.05,37.95,0)" xlink:href="#aN"/><use transform="matrix(0.05,0,0,0.05,43.900000000000006,0)" xlink:href="#aX"/><use transform="matrix(0.05,0,0,0.05,53.900000000000006,0)" xlink:href="#aS"/><use transform="matrix(0.05,0,0,0.05,63.900000000000006,0)" xlink:href="#aJ"/><use transform="matrix(0.05,0,0,0.05,73.9,0)" xlink:href="#aN"/><use transform="matrix(0.05,0,0,0.05,79.85000000000001,0)" xlink:href="#aF"/><use transform="matrix(0.05,0,0,0.05,84.85000000000001,0)" xlink:href="#aZ"/></g><g id="ab"><use transform="matrix(0.05,0,0,0.05,0,0)" xlink:href="#aD"/><use transform="matrix(0.05,0,0,0.05,10,0)" xlink:href="#aE"/><use transform="matrix(0.05,0,0,0.05,19,0)" xlink:href="#aP"/><use transform="matrix(0.05,0,0,0.05,29,0)" xlink:href="#aF"/><use transform="matrix(0.05,0,0,0.05,34,0)" xlink:href="#aG"/><use transform="matrix(0.05,0,0,0.05,39,0)" xlink:href="#aF"/><use transform="matrix(0.05,0,0,0.05,44,0)" xlink:href="#aW"/><use transform="matrix(0.05,0,0,0.05,54,0)" xlink:href="#aJ"/><use transform="matrix(0.05,0,0,0.05,64,0)" xlink:href="#aR"/><use transform="matrix(0.05,0,0,0.05,78.95,0)" xlink:href="#aJ"/></g><path d="M140-251c81 0 123 46 123 126C263-53 228-8 163 1c7 30 30 48 69 40v23c-55 16-95-15-103-61C56-3 17-48 17-125c0-80 42-126 123-126zm0 227c63 0 89-41 89-101s-29-99-89-99c-61 0-89 39-89 99S79-25 140-24" id="bK"/><g id="ac"><use transform="matrix(0.05,0,0,0.05,0,0)" xlink:href="#bh"/><use transform="matrix(0.05,0,0,0.05,14,0)" xlink:href="#bH"/><use transform="matrix(0.05,0,0,0.05,26,0)" xlink:href="#bK"/></g><path d="M30-248c118-7 216 8 213 122C240-48 200 0 122 0H30v-248zM63-27c89 8 146-16 146-99s-60-101-146-95v194" id="bL"/><g id="ad"><use transform="matrix(0.05,0,0,0.05,0,0)" xlink:href="#bL"/><use transform="matrix(0.05,0,0,0.05,12.950000000000001,0)" xlink:href="#aP"/><use transform="matrix(0.05,0,0,0.05,22.950000000000003,0)" xlink:href="#aF"/><use transform="matrix(0.05,0,0,0.05,27.950000000000003,0)" xlink:href="#aP"/><use transform="matrix(0.05,0,0,0.05,37.95,0)" xlink:href="#aM"/><use transform="matrix(0.05,0,0,0.05,46.95,0)" xlink:href="#aJ"/><use transform="matrix(0.05,0,0,0.05,56.95,0)" xlink:href="#aF"/></g><g id="ae"><use transform="matrix(0.05,0,0,0.05,0,0)" xlink:href="#aQ"/><use transform="matrix(0.05,0,0,0.05,10.950000000000001,0)" xlink:href="#aW"/><use transform="matrix(0.05,0,0,0.05,20.950000000000003,0)" xlink:href="#aJ"/><use transform="matrix(0.05,0,0,0.05,30.950000000000003,0)" xlink:href="#aR"/><use transform="matrix(0.05,0,0,0.05,45.900000000000006,0)" xlink:href="#aJ"/></g><g id="af"><use transform="matrix(0.05,0,0,0.05,0,0)" xlink:href="#aD"/><use transform="matrix(0.05,0,0,0.05,10,0)" xlink:href="#aE"/><use transform="matrix(0.05,0,0,0.05,19,0)" xlink:href="#aP"/><use transform="matrix(0.05,0,0,0.05,29,0)" xlink:href="#aF"/><use transform="matrix(0.05,0,0,0.05,34,0)" xlink:href="#aG"/><use transform="matrix(0.05,0,0,0.05,39,0)" xlink:href="#bL"/><use transform="matrix(0.05,0,0,0.05,51.95,0)" xlink:href="#aO"/><use transform="matrix(0.05,0,0,0.05,55.900000000000006,0)" xlink:href="#aM"/><use transform="matrix(0.05,0,0,0.05,64.9,0)" xlink:href="#aF"/><use transform="matrix(0.05,0,0,0.05,69.9,0)" xlink:href="#aN"/><use transform="matrix(0.05,0,0,0.05,75.85000000000001,0)" xlink:href="#aO"/><use transform="matrix(0.05,0,0,0.05,79.80000000000001,0)" xlink:href="#aU"/><use transform="matrix(0.05,0,0,0.05,89.80000000000001,0)" xlink:href="#aT"/><use transform="matrix(0.05,0,0,0.05,99.80000000000001,0)" xlink:href="#aF"/><use transform="matrix(0.05,0,0,0.05,104.80000000000001,0)" xlink:href="#aO"/><use transform="matrix(0.05,0,0,0.05,108.75,0)" xlink:href="#aX"/><use transform="matrix(0.05,0,0,0.05,118.75,0)" xlink:href="#aK"/></g><g id="ag"><use transform="matrix(0.05,0,0,0.05,0,0)" xlink:href="#aD"/><use transform="matrix(0.05,0,0,0.05,10,0)" xlink:href="#aE"/><use transform="matrix(0.05,0,0,0.05,19,0)" xlink:href="#aP"/><use transform="matrix(0.05,0,0,0.05,29,0)" xlink:href="#aF"/><use transform="matrix(0.05,0,0,0.05,34,0)" xlink:href="#aG"/><use transform="matrix(0.05,0,0,0.05,39,0)" xlink:href="#aD"/><use transform="matrix(0.05,0,0,0.05,49,0)" xlink:href="#aO"/><use transform="matrix(0.05,0,0,0.05,52.95,0)" xlink:href="#aM"/><use transform="matrix(0.05,0,0,0.05,61.95,0)" xlink:href="#aF"/><use transform="matrix(0.05,0,0,0.05,66.95,0)" xlink:href="#aN"/><use transform="matrix(0.05,0,0,0.05,72.9,0)" xlink:href="#aO"/><use transform="matrix(0.05,0,0,0.05,76.85000000000001,0)" xlink:href="#aU"/><use transform="matrix(0.05,0,0,0.05,86.85000000000001,0)" xlink:href="#aT"/><use transform="matrix(0.05,0,0,0.05,96.85000000000001,0)" xlink:href="#aF"/><use transform="matrix(0.05,0,0,0.05,101.85000000000001,0)" xlink:href="#aO"/><use transform="matrix(0.05,0,0,0.05,105.80000000000001,0)" xlink:href="#aX"/><use transform="matrix(0.05,0,0,0.05,115.80000000000001,0)" xlink:href="#aK"/></g><path d="M232-93c-1 65-40 97-104 97C67 4 28-28 28-90v-158h33c8 89-33 224 67 224 102 0 64-133 71-224h33v155" id="bM"/><g id="ah"><use transform="matrix(0.05,0,0,0.05,0,0)" xlink:href="#aL"/><use transform="matrix(0.05,0,0,0.05,9,0)" xlink:href="#aM"/><use transform="matrix(0.05,0,0,0.05,18,0)" xlink:href="#aD"/><use transform="matrix(0.05,0,0,0.05,28,0)" xlink:href="#aG"/><use transform="matrix(0.05,0,0,0.05,33,0)" xlink:href="#aP"/><use transform="matrix(0.05,0,0,0.05,43,0)" xlink:href="#aK"/><use transform="matrix(0.05,0,0,0.05,53,0)" xlink:href="#aZ"/><use transform="matrix(0.05,0,0,0.05,62,0)" xlink:href="#bM"/><use transform="matrix(0.05,0,0,0.05,74.95,0)" xlink:href="#bp"/><use transform="matrix(0.05,0,0,0.05,87.9,0)" xlink:href="#bJ"/></g><path d="M206 0h-36l-40-164L89 0H53L-1-190h32L70-26l43-164h34l41 164 42-164h31" id="bN"/><g id="ai"><use transform="matrix(0.05,0,0,0.05,0,0)" xlink:href="#aD"/><use transform="matrix(0.05,0,0,0.05,10,0)" xlink:href="#aE"/><use transform="matrix(0.05,0,0,0.05,19,0)" xlink:href="#aP"/><use transform="matrix(0.05,0,0,0.05,29,0)" xlink:href="#aF"/><use transform="matrix(0.05,0,0,0.05,34,0)" xlink:href="#aG"/><use transform="matrix(0.05,0,0,0.05,39,0)" xlink:href="#aD"/><use transform="matrix(0.05,0,0,0.05,49,0)" xlink:href="#aX"/><use transform="matrix(0.05,0,0,0.05,59,0)" xlink:href="#bN"/><use transform="matrix(0.05,0,0,0.05,71.95,0)" xlink:href="#aK"/><use transform="matrix(0.05,0,0,0.05,81.95,0)" xlink:href="#aV"/><use transform="matrix(0.05,0,0,0.05,85.9,0)" xlink:href="#aX"/><use transform="matrix(0.05,0,0,0.05,95.9,0)" xlink:href="#aP"/><use transform="matrix(0.05,0,0,0.05,105.9,0)" xlink:href="#aD"/><use transform="matrix(0.05,0,0,0.05,115.9,0)" xlink:href="#bM"/><use transform="matrix(0.05,0,0,0.05,128.85,0)" xlink:href="#bp"/><use transform="matrix(0.05,0,0,0.05,141.79999999999998,0)" xlink:href="#bJ"/></g><g id="aj"><use transform="matrix(0.05,0,0,0.05,0,0)" xlink:href="#aD"/><use transform="matrix(0.05,0,0,0.05,10,0)" xlink:href="#aE"/><use transform="matrix(0.05,0,0,0.05,19,0)" xlink:href="#aP"/><use transform="matrix(0.05,0,0,0.05,29,0)" xlink:href="#aF"/><use transform="matrix(0.05,0,0,0.05,34,0)" xlink:href="#aG"/><use transform="matrix(0.05,0,0,0.05,39,0)" xlink:href="#bL"/><use transform="matrix(0.05,0,0,0.05,51.95,0)" xlink:href="#aP"/><use transform="matrix(0.05,0,0,0.05,61.95,0)" xlink:href="#aF"/><use transform="matrix(0.05,0,0,0.05,66.95,0)" xlink:href="#aP"/><use transform="matrix(0.05,0,0,0.05,76.95,0)" xlink:href="#aM"/><use transform="matrix(0.05,0,0,0.05,85.95,0)" xlink:href="#aJ"/><use transform="matrix(0.05,0,0,0.05,95.95,0)" xlink:href="#aF"/></g><g id="ak"><use transform="matrix(0.05,0,0,0.05,0,0)" xlink:href="#bI"/><use transform="matrix(0.05,0,0,0.05,12,0)" xlink:href="#aP"/><use transform="matrix(0.05,0,0,0.05,22,0)" xlink:href="#aN"/><use transform="matrix(0.05,0,0,0.05,27.950000000000003,0)" xlink:href="#aF"/><use transform="matrix(0.05,0,0,0.05,32.95,0)" xlink:href="#aW"/></g><g id="al"><use transform="matrix(0.05,0,0,0.05,0,0)" xlink:href="#bH"/><use transform="matrix(0.05,0,0,0.05,12,0)" xlink:href="#aE"/><use transform="matrix(0.05,0,0,0.05,21,0)" xlink:href="#aO"/><use transform="matrix(0.05,0,0,0.05,24.95,0)" xlink:href="#aJ"/><use transform="matrix(0.05,0,0,0.05,34.95,0)" xlink:href="#aK"/><use transform="matrix(0.05,0,0,0.05,44.95,0)" xlink:href="#aE"/><use transform="matrix(0.05,0,0,0.05,53.95,0)" xlink:href="#aJ"/></g><g id="am"><use transform="matrix(0.05,0,0,0.05,0,0)" xlink:href="#bL"/><use transform="matrix(0.05,0,0,0.05,12.950000000000001,0)" xlink:href="#aP"/><use transform="matrix(0.05,0,0,0.05,22.950000000000003,0)" xlink:href="#aF"/><use transform="matrix(0.05,0,0,0.05,27.950000000000003,0)" xlink:href="#aP"/></g><path d="M212-179c-10-28-35-45-73-45-59 0-87 40-87 99 0 60 29 101 89 101 43 0 62-24 78-52l27 14C228-24 195 4 139 4 59 4 22-46 18-125c-6-104 99-153 187-111 19 9 31 26 39 46" id="bO"/><g id="an"><use transform="matrix(0.05,0,0,0.05,0,0)" xlink:href="#bO"/><use transform="matrix(0.05,0,0,0.05,12.950000000000001,0)" xlink:href="#aP"/><use transform="matrix(0.05,0,0,0.05,22.950000000000003,0)" xlink:href="#aF"/><use transform="matrix(0.05,0,0,0.05,27.950000000000003,0)" xlink:href="#aJ"/><use transform="matrix(0.05,0,0,0.05,37.95,0)" xlink:href="#aI"/><use transform="matrix(0.05,0,0,0.05,47.95,0)" xlink:href="#aX"/><use transform="matrix(0.05,0,0,0.05,57.95,0)" xlink:href="#aN"/><use transform="matrix(0.05,0,0,0.05,63.900000000000006,0)" xlink:href="#aZ"/></g><g id="ao"><use transform="matrix(0.05,0,0,0.05,0,0)" xlink:href="#aW"/><use transform="matrix(0.05,0,0,0.05,10,0)" xlink:href="#aP"/><use transform="matrix(0.05,0,0,0.05,20,0)" xlink:href="#aM"/></g><g id="ap"><use transform="matrix(0.05,0,0,0.05,0,0)" xlink:href="#aJ"/><use transform="matrix(0.05,0,0,0.05,10,0)" xlink:href="#aP"/><use transform="matrix(0.05,0,0,0.05,20,0)" xlink:href="#aN"/><use transform="matrix(0.05,0,0,0.05,25.950000000000003,0)" xlink:href="#aF"/><use transform="matrix(0.05,0,0,0.05,30.950000000000003,0)" xlink:href="#aW"/></g><g id="aq"><use transform="matrix(0.05,0,0,0.05,0,0)" xlink:href="#aM"/><use transform="matrix(0.05,0,0,0.05,9,0)" xlink:href="#aE"/><use transform="matrix(0.05,0,0,0.05,18,0)" xlink:href="#aO"/><use transform="matrix(0.05,0,0,0.05,21.95,0)" xlink:href="#aJ"/><use transform="matrix(0.05,0,0,0.05,31.950000000000003,0)" xlink:href="#aK"/><use transform="matrix(0.05,0,0,0.05,41.95,0)" xlink:href="#aE"/><use transform="matrix(0.05,0,0,0.05,50.95,0)" xlink:href="#aJ"/></g><path d="M143 0L79-87 56-68V0H24v-261h32v163l83-92h37l-77 82L181 0h-38" id="bP"/><g id="ar"><use transform="matrix(0.05,0,0,0.05,0,0)" xlink:href="#aM"/><use transform="matrix(0.05,0,0,0.05,9,0)" xlink:href="#bP"/><use transform="matrix(0.05,0,0,0.05,18,0)" xlink:href="#aX"/><use transform="matrix(0.05,0,0,0.05,28,0)" xlink:href="#aM"/><use transform="matrix(0.05,0,0,0.05,37,0)" xlink:href="#aG"/></g><g id="as"><use transform="matrix(0.05,0,0,0.05,0,0)" xlink:href="#bO"/><use transform="matrix(0.05,0,0,0.05,12.950000000000001,0)" xlink:href="#aX"/><use transform="matrix(0.05,0,0,0.05,22.950000000000003,0)" xlink:href="#aK"/><use transform="matrix(0.05,0,0,0.05,32.95,0)" xlink:href="#aE"/><use transform="matrix(0.05,0,0,0.05,41.95,0)" xlink:href="#aJ"/><use transform="matrix(0.05,0,0,0.05,51.95,0)" xlink:href="#aS"/><use transform="matrix(0.05,0,0,0.05,61.95,0)" xlink:href="#aF"/></g><path fill="#fff" d="M143 4C61 4 22-44 18-125c-5-107 100-154 193-111 17 8 29 25 37 43l-32 9c-13-25-37-40-76-40-61 0-88 39-88 99 0 61 29 100 91 101 35 0 62-11 79-27v-45h-74v-28h105v86C228-13 192 4 143 4" id="bQ"/><path fill="#fff" d="M140-251c81 0 123 46 123 126C263-53 228-8 163 1c7 30 30 48 69 40v23c-55 16-95-15-103-61C56-3 17-48 17-125c0-80 42-126 123-126zm0 227c63 0 89-41 89-101s-29-99-89-99c-61 0-89 39-89 99S79-25 140-24" id="bR"/><g id="at"><use transform="matrix(0.05,0,0,0.05,0,0)" xlink:href="#bQ"/><use transform="matrix(0.05,0,0,0.05,14,0)" xlink:href="#bB"/><use transform="matrix(0.05,0,0,0.05,26,0)" xlink:href="#bR"/></g><path fill="#fff" d="M212-179c-10-28-35-45-73-45-59 0-87 40-87 99 0 60 29 101 89 101 43 0 62-24 78-52l27 14C228-24 195 4 139 4 59 4 22-46 18-125c-6-104 99-153 187-111 19 9 31 26 39 46" id="bS"/><path fill="#fff" d="M24 0v-261h32V0H24" id="bT"/><g id="au"><use transform="matrix(0.05,0,0,0.05,0,0)" xlink:href="#bS"/><use transform="matrix(0.05,0,0,0.05,12.950000000000001,0)" xlink:href="#bT"/><use transform="matrix(0.05,0,0,0.05,16.900000000000002,0)" xlink:href="#bF"/><use transform="matrix(0.05,0,0,0.05,26.900000000000002,0)" xlink:href="#bs"/><use transform="matrix(0.05,0,0,0.05,35.900000000000006,0)" xlink:href="#bs"/></g><g id="av"><use transform="matrix(0.05,0,0,0.05,0,0)" xlink:href="#bL"/><use transform="matrix(0.05,0,0,0.05,12.950000000000001,0)" xlink:href="#aO"/><use transform="matrix(0.05,0,0,0.05,16.900000000000002,0)" xlink:href="#aP"/><use transform="matrix(0.05,0,0,0.05,26.900000000000002,0)" xlink:href="#aI"/><use transform="matrix(0.05,0,0,0.05,36.900000000000006,0)" xlink:href="#aN"/><use transform="matrix(0.05,0,0,0.05,42.85000000000001,0)" xlink:href="#aP"/><use transform="matrix(0.05,0,0,0.05,52.85,0)" xlink:href="#aR"/><path d="M-.9 1.25h74.6v1.32H-.9z"/></g><g id="aw"><use transform="matrix(0.05,0,0,0.05,0,0)" xlink:href="#bI"/><use transform="matrix(0.05,0,0,0.05,12,0)" xlink:href="#aV"/><use transform="matrix(0.05,0,0,0.05,15.949999999999998,0)" xlink:href="#aJ"/><use transform="matrix(0.05,0,0,0.05,25.950000000000003,0)" xlink:href="#aR"/><use transform="matrix(0.05,0,0,0.05,40.9,0)" xlink:href="#aJ"/><use transform="matrix(0.05,0,0,0.05,50.9,0)" xlink:href="#aK"/><use transform="matrix(0.05,0,0,0.05,60.900000000000006,0)" xlink:href="#aF"/><path d="M-.9 1.25h72.7v1.32H-.9z"/></g><path d="M194 0L95-120 63-95V0H30v-248h33v124l119-124h40L117-140 236 0h-42" id="bU"/><g id="ax"><use transform="matrix(0.05,0,0,0.05,0,0)" xlink:href="#bU"/><use transform="matrix(0.05,0,0,0.05,12,0)" xlink:href="#aJ"/><use transform="matrix(0.05,0,0,0.05,22,0)" xlink:href="#aZ"/><path d="M-.9 1.25h32.8v1.32H-.9z"/></g><g id="ay"><use transform="matrix(0.05,0,0,0.05,0,0)" xlink:href="#aX"/><use transform="matrix(0.05,0,0,0.05,10,0)" xlink:href="#bN"/><use transform="matrix(0.05,0,0,0.05,22.950000000000003,0)" xlink:href="#aV"/><use transform="matrix(0.05,0,0,0.05,26.900000000000002,0)" xlink:href="#aG"/></g><g id="az"><use transform="matrix(0.05,0,0,0.05,0,0)" xlink:href="#bO"/><use transform="matrix(0.05,0,0,0.05,12.950000000000001,0)" xlink:href="#aV"/><use transform="matrix(0.05,0,0,0.05,16.900000000000002,0)" xlink:href="#aP"/><use transform="matrix(0.05,0,0,0.05,26.900000000000002,0)" xlink:href="#aM"/><use transform="matrix(0.05,0,0,0.05,35.900000000000006,0)" xlink:href="#aM"/></g><g id="aA"><use transform="matrix(0.05,0,0,0.05,0,0)" xlink:href="#aN"/><use transform="matrix(0.05,0,0,0.05,5.95,0)" xlink:href="#aD"/><use transform="matrix(0.05,0,0,0.05,15.949999999999998,0)" xlink:href="#bg"/><use transform="matrix(0.05,0,0,0.05,20.95,0)" xlink:href="#aG"/><use transform="matrix(0.05,0,0,0.05,25.950000000000003,0)" xlink:href="#aS"/><use transform="matrix(0.05,0,0,0.05,35.95,0)" xlink:href="#aN"/><use transform="matrix(0.05,0,0,0.05,41.900000000000006,0)" xlink:href="#aX"/><use transform="matrix(0.05,0,0,0.05,51.900000000000006,0)" xlink:href="#aS"/><use transform="matrix(0.05,0,0,0.05,61.900000000000006,0)" xlink:href="#aJ"/><use transform="matrix(0.05,0,0,0.05,71.9,0)" xlink:href="#aN"/><use transform="matrix(0.05,0,0,0.05,77.85000000000001,0)" xlink:href="#aF"/><use transform="matrix(0.05,0,0,0.05,82.85000000000001,0)" xlink:href="#aZ"/></g><g id="aB"><use transform="matrix(0.05,0,0,0.05,0,0)" xlink:href="#bJ"/><use transform="matrix(0.05,0,0,0.05,10,0)" xlink:href="#aO"/><use transform="matrix(0.05,0,0,0.05,13.949999999999998,0)" xlink:href="#aF"/><use transform="matrix(0.05,0,0,0.05,18.95,0)" xlink:href="#aJ"/><use transform="matrix(0.05,0,0,0.05,28.950000000000003,0)" xlink:href="#aN"/><use transform="matrix(0.05,0,0,0.05,34.9,0)" xlink:href="#aP"/><use transform="matrix(0.05,0,0,0.05,44.9,0)" xlink:href="#aV"/></g><g id="aC"><use transform="matrix(0.05,0,0,0.05,0,0)" xlink:href="#aN"/><use transform="matrix(0.05,0,0,0.05,5.95,0)" xlink:href="#aD"/><use transform="matrix(0.05,0,0,0.05,15.949999999999998,0)" xlink:href="#bg"/><use transform="matrix(0.05,0,0,0.05,20.95,0)" xlink:href="#aM"/><use transform="matrix(0.05,0,0,0.05,29.950000000000003,0)" xlink:href="#aG"/><use transform="matrix(0.05,0,0,0.05,34.95,0)" xlink:href="#aM"/><use transform="matrix(0.05,0,0,0.05,43.95,0)" xlink:href="#aT"/><use transform="matrix(0.05,0,0,0.05,53.95,0)" xlink:href="#aU"/><use transform="matrix(0.05,0,0,0.05,63.95,0)" xlink:href="#bO"/><use transform="matrix(0.05,0,0,0.05,76.9,0)" xlink:href="#aV"/><use transform="matrix(0.05,0,0,0.05,80.85000000000001,0)" xlink:href="#aP"/><use transform="matrix(0.05,0,0,0.05,90.85000000000001,0)" xlink:href="#aM"/><use transform="matrix(0.05,0,0,0.05,99.85000000000001,0)" xlink:href="#aM"/><use transform="matrix(0.05,0,0,0.05,108.85000000000001,0)" xlink:href="#bG"/><use transform="matrix(0.05,0,0,0.05,122.85000000000001,0)" xlink:href="#bg"/></g></defs></g></svg>